aileron_thin-italic.sfdir

StartChar: exclam
Encoding: 33 33 250
Width: 182
Flags: MW
HStem: -14 21G<33.5 51> -14 62<43.5 51> 670 20G<148 191 191 191>
VStem: 16 62<13 21.5>
LayerCount: 2
Fore
SplineSet
83 128 m 1xb0
 50 128 l 1
 148 690 l 1
 191 690 l 1
 83 128 l 1xb0
53 48 m 0x70
 69 48 78 38 78 23 c 0
 78 3 61 -14 41 -14 c 0
 26 -14 16 -4 16 11 c 0
 16 32 34 48 53 48 c 0x70
EndSplineSet
EndChar

StartChar: quotedbl
Encoding: 34 34 257
Width: 189
Flags: MW
HStem: 715 20G<89 128 128 128 185 224 224 224>
VStem: 49 175
LayerCount: 2
Fore
SplineSet
79 490 m 1
 49 490 l 1
 89 735 l 1
 128 735 l 1
 79 490 l 1
175 490 m 1
 146 490 l 1
 185 735 l 1
 224 735 l 1
 175 490 l 1
EndSplineSet
EndChar

StartChar: numbersign
Encoding: 35 35 252
Width: 543
Flags: MW
HStem: 0 21G<68 98 68 68 204 235 204 204> 239 29<60 161 54 172 202 297 60 191 339 449> 422 30<122 233 117 244 122 262 274 368 411 512> 670 20G<337 367 367 367 473 504 504 504>
VStem: 54 463<239 452>
LayerCount: 2
Fore
SplineSet
400 422 m 1
 339 268 l 1
 455 268 l 1
 449 239 l 1
 328 239 l 1
 235 0 l 1
 204 0 l 1
 297 239 l 1
 191 239 l 1
 98 0 l 1
 68 0 l 1
 161 239 l 1
 54 239 l 1
 60 268 l 1
 172 268 l 1
 233 422 l 1
 117 422 l 1
 122 452 l 1
 244 452 l 1
 337 690 l 1
 367 690 l 1
 274 452 l 1
 380 452 l 1
 473 690 l 1
 504 690 l 1
 411 452 l 1
 517 452 l 1
 512 422 l 1
 400 422 l 1
368 422 m 1
 262 422 l 1
 202 268 l 1
 308 268 l 1
 368 422 l 1
EndSplineSet
EndChar

StartChar: dollar
Encoding: 36 36 285
Width: 543
Flags: MW
HStem: -13 33<207 212> 670 33<359 364>
VStem: 29 40<137.5 182> 112 41<475 547.5 475 551.5> 431 40<136 217> 485 39<513 513>
LayerCount: 2
Fore
SplineSet
524 513 m 1
 485 513 l 1xfc
 484 613 436 663 359 670 c 1
 304 363 l 1
 411 329 471 272 471 178 c 0xf8
 471 82 398 -10 237 -14 c 1
 224 -90 l 1
 193 -90 l 1
 207 -13 l 1
 73 -4 29 93 29 182 c 1
 69 182 l 1
 75 78 125 27 212 20 c 1
 267 331 l 1
 184 358 112 411 112 506 c 0
 112 597 177 700 334 704 c 1
 347 780 l 1
 378 780 l 1
 364 703 l 1
 478 694 522 611 524 513 c 1
153 510 m 0
 153 440 205 394 275 371 c 1
 328 671 l 1
 206 666 153 585 153 510 c 0
431 176 m 0xf8
 431 258 383 297 297 324 c 1
 243 19 l 1
 374 23 431 96 431 176 c 0xf8
EndSplineSet
EndChar

StartChar: percent
Encoding: 37 37 305
Width: 709
Flags: MW
HStem: -14 31<449 514 449 524> 0 21G<62 106 62 62> 273 31<471.5 536.5> 386 31<200.5 265.5 200.5 275.5> 670 20G<629 673 673 673> 673 31<223.5 288.5>
VStem: 108 39<484 550.5 484 557> 343 38<540 606> 356 39<84 150.5 84 157> 591 38<140 206>
LayerCount: 2
Fore
SplineSet
222 386 m 0xb740
 151 386 108 440 108 515 c 0
 108 599 160 704 267 704 c 0
 338 704 381 650 381 575 c 0
 381 491 329 386 222 386 c 0xb740
673 690 m 1x7b40
 106 0 l 1
 62 0 l 1
 629 690 l 1
 673 690 l 1x7b40
263 673 m 0xb740
 184 673 147 587 147 514 c 0
 147 454 175 417 226 417 c 0
 305 417 343 504 343 576 c 0
 343 636 314 673 263 673 c 0xb740
515 304 m 0
 586 304 629 250 629 175 c 0
 629 91 577 -14 471 -14 c 0
 400 -14 356 40 356 115 c 0xb6c0
 356 199 408 304 515 304 c 0
475 17 m 0xb6c0
 553 17 591 104 591 176 c 0
 591 236 562 273 511 273 c 0
 432 273 395 187 395 114 c 0
 395 54 423 17 475 17 c 0xb6c0
EndSplineSet
EndChar

StartChar: ampersand
Encoding: 38 38 313
Width: 643
Flags: MW
HStem: -14 33<228.5 308> 329 34<375 490 393 484 528 628 393 522> 671 33<341 424.5> 674 20G<527 527>
VStem: 45 43<92 193> 143 42<443 545 438 549>
LayerCount: 2
Fore
SplineSet
635 363 m 1xec
 628 329 l 1
 522 329 l 1
 465 3 l 1
 406 -8 333 -14 283 -14 c 0
 141 -14 45 18 45 132 c 0
 45 254 140 330 265 346 c 1
 194 358 143 401 143 485 c 0
 143 613 259 704 409 704 c 0xec
 458 704 490 701 527 694 c 1xdc
 521 660 l 1
 482 668 449 671 400 671 c 0
 282 671 185 604 185 486 c 0
 185 390 262 368 331 364 c 0
 351 363 371 363 393 363 c 2
 490 363 l 1
 515 505 l 1
 553 505 l 1
 528 363 l 1
 635 363 l 1xec
484 329 m 1
 386 329 l 2
 364 329 345 329 325 327 c 0
 195 316 88 267 88 138 c 0
 88 46 166 19 291 19 c 0
 333 19 389 22 431 30 c 1
 484 329 l 1
EndSplineSet
EndChar

StartChar: quotesingle
Encoding: 39 39 258
Width: 93
Flags: MW
HStem: 715 20G<89 128 128 128>
VStem: 49 79
LayerCount: 2
Fore
SplineSet
79 490 m 1
 49 490 l 1
 89 735 l 1
 128 735 l 1
 79 490 l 1
EndSplineSet
EndChar

StartChar: parenleft
Encoding: 40 40 266
Width: 261
Flags: MW
HStem: -80 860<146 329 146 329>
VStem: 91 34<147.5 286.5>
LayerCount: 2
Fore
SplineSet
177 -80 m 1
 146 -80 l 1
 111 -7 91 93 91 198 c 0
 91 375 158 614 298 780 c 1
 329 780 l 1
 185 596 125 378 125 198 c 0
 125 97 143 1 177 -80 c 1
EndSplineSet
EndChar

StartChar: parenright
Encoding: 41 41 267
Width: 261
Flags: MW
HStem: -80 860<-38 145 -38 145>
VStem: 167 33<414 552.5>
LayerCount: 2
Fore
SplineSet
114 780 m 1
 145 780 l 1
 180 707 200 608 200 503 c 0
 200 325 133 87 -7 -80 c 1
 -38 -80 l 1
 106 104 167 322 167 502 c 0
 167 603 149 700 114 780 c 1
EndSplineSet
EndChar

StartChar: asterisk
Encoding: 42 42 244
Width: 530
Flags: MW
HStem: 96 378<126 315 282 337>
VStem: 90 360<311 311>
LayerCount: 2
Fore
SplineSet
278 285 m 1
 445 342 l 1
 450 311 l 1
 282 261 l 1
 368 115 l 1
 337 96 l 1
 259 249 l 1
 126 96 l 1
 102 115 l 1
 240 261 l 1
 90 311 l 1
 105 342 l 1
 253 284 l 1
 282 474 l 1
 315 474 l 1
 278 285 l 1
EndSplineSet
EndChar

StartChar: plus
Encoding: 43 43 307
Width: 543
Flags: MW
HStem: 302 30<76 257 70 263 294 475 76 288>
VStem: 70 411<302 332>
LayerCount: 2
Fore
SplineSet
475 302 m 1
 288 302 l 1
 250 87 l 1
 219 87 l 1
 257 302 l 1
 70 302 l 1
 76 332 l 1
 263 332 l 1
 301 548 l 1
 332 548 l 1
 294 332 l 1
 481 332 l 1
 475 302 l 1
EndSplineSet
EndChar

StartChar: comma
Encoding: 44 44 248
Width: 154
Flags: MW
HStem: -117 160<-93 32 -93 32>
VStem: -93 125
LayerCount: 2
Fore
SplineSet
31 36 m 1
 -57 -117 l 1
 -93 -117 l 1
 -11 43 l 1
 32 43 l 1
 31 36 l 1
EndSplineSet
EndChar

StartChar: hyphen
Encoding: 45 45 271
Width: 274
Flags: MW
HStem: 267 30<35 239 29 245>
VStem: 29 216<267 297>
LayerCount: 2
Fore
SplineSet
239 267 m 1
 29 267 l 1
 35 297 l 1
 245 297 l 1
 239 267 l 1
EndSplineSet
EndChar

StartChar: period
Encoding: 46 46 253
Width: 154
Flags: MW
HStem: -14 62<8.5 19>
VStem: -17 62<11.5 23>
LayerCount: 2
Fore
SplineSet
18 48 m 0
 35 48 45 36 45 22 c 0
 45 1 28 -14 10 -14 c 0
 -7 -14 -17 -2 -17 12 c 0
 -17 34 -1 48 18 48 c 0
EndSplineSet
EndChar

StartChar: slash
Encoding: 47 47 260
Width: 273
Flags: MW
HStem: -30 750<-57 358 -57 358>
VStem: -57 415
LayerCount: 2
Fore
SplineSet
-25 -30 m 1
 -57 -30 l 1
 326 720 l 1
 358 720 l 1
 -25 -30 l 1
EndSplineSet
EndChar

StartChar: zero
Encoding: 48 48 233
Width: 543
Flags: MW
HStem: -14 33<176 327.5 176 339> 671 33<236 387.5>
VStem: 35 41<165.5 299 165.5 316> 487 42<391.5 525>
LayerCount: 2
Fore
SplineSet
338 704 m 0
 468 704 529 609 529 462 c 0
 529 287 453 -14 225 -14 c 0
 96 -14 35 82 35 228 c 0
 35 404 110 704 338 704 c 0
228 19 m 0
 427 19 487 322 487 461 c 0
 487 589 439 671 336 671 c 0
 136 671 76 369 76 229 c 0
 76 102 124 19 228 19 c 0
EndSplineSet
EndChar

StartChar: one
Encoding: 49 49 234
Width: 543
Flags: MW
HStem: 0 21G<265 303 265 265> 650 40<379 425> 670 20G<403 425 425 425>
VStem: 169 256<533 690>
LayerCount: 2
Fore
SplineSet
425 690 m 1xb0
 303 0 l 1
 265 0 l 1
 379 650 l 1xd0
 169 533 l 1
 176 574 l 1
 350 672 l 2
 377 687 389 690 403 690 c 2
 425 690 l 1xb0
EndSplineSet
EndChar

StartChar: two
Encoding: 50 50 235
Width: 543
Flags: MW
HStem: 0 33<62 444> 671 33<310 402>
VStem: 111 38 489 43<503 585.5>
LayerCount: 2
Fore
SplineSet
62 33 m 1
 450 33 l 1
 444 0 l 1
 -3 0 l 1
 2 24 l 1
 283 262 l 2
 443 397 489 457 489 549 c 0
 489 622 444 671 360 671 c 0
 260 671 171 605 150 495 c 2
 148 485 l 1
 110 485 l 1
 112 495 l 1
 140 629 245 704 368 704 c 0
 479 704 532 632 532 553 c 0
 532 447 465 371 306 238 c 2
 62 33 l 1
EndSplineSet
EndChar

StartChar: three
Encoding: 51 51 236
Width: 543
Flags: MW
HStem: -14 33<174.5 289 174.5 294.5> 336 33<264 274 257 281> 671 33<314 404>
VStem: 35 38<194 204 194 204> 118 38 448 42<150 250> 496 42<505.5 586>
LayerCount: 2
Fore
SplineSet
365 359 m 1
 443 343 490 296 490 217 c 0
 490 74 368 -14 221 -14 c 0
 102 -14 25 55 35 194 c 1
 35 204 l 1
 73 204 l 1
 73 194 l 1
 65 89 120 19 229 19 c 0
 349 19 448 91 448 209 c 0xfc
 448 291 395 336 274 336 c 2
 257 336 l 1
 264 369 l 1
 281 369 l 2
 379 369 496 436 496 545 c 0
 496 627 445 671 363 671 c 0
 265 671 178 614 157 507 c 2
 155 497 l 1
 117 497 l 1
 119 507 l 2
 144 633 248 704 372 704 c 0
 481 704 538 638 538 552 c 0xfa
 538 459 459 380 365 359 c 1
EndSplineSet
EndChar

StartChar: four
Encoding: 52 52 237
Width: 543
Flags: MW
HStem: 0 21G<337 375 337 337> 194 33<71 371 415 505 71 409> 670 20G<468 502 502 502>
VStem: 14 497<194 227>
LayerCount: 2
Fore
SplineSet
505 194 m 1
 409 194 l 1
 375 0 l 1
 337 0 l 1
 371 194 l 1
 14 194 l 1
 18 216 l 1
 468 690 l 1
 502 690 l 1
 415 227 l 1
 511 227 l 1
 505 194 l 1
377 227 m 1
 453 634 l 1
 428 604 395 566 352 521 c 2
 71 227 l 1
 377 227 l 1
EndSplineSet
EndChar

StartChar: five
Encoding: 53 53 238
Width: 543
Flags: MW
HStem: -14 33<165 272.5 165 283> 405 33<282 343.5> 654 33<222 222 222 551>
VStem: 33 39<179 189> 444 42<172.5 300>
LayerCount: 2
Fore
SplineSet
222 654 m 1
 118 349 l 1
 164 395 l 1
 208 425 255 438 309 438 c 0
 426 438 486 359 486 255 c 0
 486 87 354 -14 212 -14 c 0
 111 -14 23 44 33 179 c 1
 34 189 l 1
 72 189 l 1
 72 179 l 1
 66 83 111 19 219 19 c 0
 326 19 444 95 444 250 c 0
 444 350 388 405 299 405 c 0
 221 405 154 372 102 294 c 1
 65 294 l 1
 196 687 l 1
 556 687 l 1
 551 654 l 1
 222 654 l 1
EndSplineSet
EndChar

StartChar: six
Encoding: 54 54 239
Width: 543
Flags: MW
HStem: -14 33<182 297 182 305.5> 427 33<278 352.5> 671 33<303.5 403.5>
VStem: 35 40<142.5 262 142.5 350> 456 43<192.5 307.5> 496 40<516 577 526 577>
LayerCount: 2
Fore
SplineSet
496 516 m 1xf4
 496 526 l 1xf4
 495 623 449 671 358 671 c 0
 249 671 115 584 82 316 c 1
 122 376 l 1
 175 431 242 460 314 460 c 0
 437 460 499 366 499 265 c 0xf8
 499 110 384 -14 227 -14 c 0
 113 -14 35 63 35 211 c 0
 35 489 166 704 366 704 c 0
 487 704 536 628 536 526 c 1
 535 516 l 1
 496 516 l 1xf4
303 427 m 0
 186 427 75 333 75 191 c 0
 75 94 132 19 232 19 c 0
 362 19 456 126 456 259 c 0xf8
 456 356 402 427 303 427 c 0
EndSplineSet
EndChar

StartChar: seven
Encoding: 55 55 240
Width: 543
Flags: MW
HStem: 0 21G<55 100 55 55> 657 33<120 524 114 581>
VStem: 55 526
LayerCount: 2
Fore
SplineSet
581 690 m 1
 578 672 l 1
 100 0 l 1
 55 0 l 1
 524 657 l 1
 114 657 l 1
 120 690 l 1
 581 690 l 1
EndSplineSet
EndChar

StartChar: eight
Encoding: 56 56 241
Width: 543
Flags: MW
HStem: -15 33<184.5 281.5 184.5 288.5> 342 33<251.5 342.5> 671 33<294.5 395>
VStem: 21 42<107.5 202.5> 114 42<461 548.5 458.5 552> 449 42<142.5 245.5> 491 41<508 584.5>
LayerCount: 2
Fore
SplineSet
376 360 m 1xfc
 450 340 491 282 491 211 c 0xfc
 491 61 356 -15 221 -15 c 0
 112 -15 21 40 21 148 c 0
 21 257 102 336 211 361 c 1
 155 378 114 428 114 494 c 0
 114 610 213 704 355 704 c 0
 465 704 532 639 532 552 c 0xfa
 532 464 466 384 376 360 c 1xfc
156 498 m 0
 156 419 206 375 297 375 c 0
 394 375 491 433 491 547 c 0xfa
 491 622 440 671 350 671 c 0
 239 671 156 599 156 498 c 0
229 18 m 0
 334 18 449 79 449 206 c 0
 449 285 397 342 288 342 c 0
 146 342 63 258 63 153 c 0
 63 62 140 18 229 18 c 0
EndSplineSet
EndChar

StartChar: nine
Encoding: 57 57 242
Width: 543
Flags: MW
HStem: -14 33<165.5 265.5 165.5 303> 230 33<216.5 291> 671 33<272 387>
VStem: 33 40<113.5 175> 70 43<382.5 497.5 382.5 502.5> 494 40<428 548>
LayerCount: 2
Fore
SplineSet
342 704 m 0xec
 456 704 534 627 534 479 c 0
 534 201 403 -14 203 -14 c 0
 82 -14 33 62 33 165 c 1
 34 175 l 1
 73 175 l 1
 73 165 l 1xf4
 74 67 120 19 211 19 c 0
 320 19 454 106 487 374 c 1
 447 315 l 1
 394 259 327 230 255 230 c 0
 132 230 70 324 70 425 c 0
 70 580 185 704 342 704 c 0xec
266 263 m 0
 383 263 494 357 494 499 c 0
 494 597 437 671 337 671 c 0
 207 671 113 564 113 431 c 0
 113 334 167 263 266 263 c 0
EndSplineSet
EndChar

StartChar: colon
Encoding: 58 58 247
Width: 154
Flags: MW
HStem: -14 21G<1.5 19> -14 62<8.5 19> 479 62<96.5 106.5> 521 20G<96.5 114>
VStem: -17 62<11.5 23> 71 62<504.5 516>
LayerCount: 2
Fore
SplineSet
106 541 m 0x9c
 122 541 133 529 133 515 c 0
 133 494 116 479 97 479 c 0xac
 81 479 71 491 71 505 c 0
 71 527 87 541 106 541 c 0x9c
18 48 m 0x58
 35 48 45 36 45 22 c 0
 45 1 28 -14 10 -14 c 0
 -7 -14 -17 -2 -17 12 c 0
 -17 34 -1 48 18 48 c 0x58
EndSplineSet
EndChar

StartChar: semicolon
Encoding: 59 59 259
Width: 154
Flags: MW
HStem: -117 160<-93 32 -93 32> 479 62<96.5 106.5> 521 20G<96.5 114>
VStem: 71 62<504.5 516>
LayerCount: 2
Fore
SplineSet
106 541 m 0xb0
 122 541 133 529 133 515 c 0
 133 494 116 479 97 479 c 0xd0
 81 479 71 491 71 505 c 0
 71 527 87 541 106 541 c 0xb0
31 36 m 1
 -57 -117 l 1
 -93 -117 l 1
 -11 43 l 1
 32 43 l 1
 31 36 l 1
EndSplineSet
EndChar

StartChar: less
Encoding: 60 60 298
Width: 543
Flags: MW
HStem: 53 425<442 516>
VStem: 75 441<249 478>
LayerCount: 2
Fore
SplineSet
510 441 m 1
 114 264 l 1
 448 88 l 1
 442 53 l 1
 75 249 l 1
 81 281 l 1
 516 478 l 1
 510 441 l 1
EndSplineSet
EndChar

StartChar: equal
Encoding: 61 61 293
Width: 543
Flags: MW
HStem: 210 29<52 466 46 472> 395 29<85 499 79 505>
VStem: 46 459<210 424>
LayerCount: 2
Fore
SplineSet
499 395 m 1
 79 395 l 1
 85 424 l 1
 505 424 l 1
 499 395 l 1
466 210 m 1
 46 210 l 1
 52 239 l 1
 472 239 l 1
 466 210 l 1
EndSplineSet
EndChar

StartChar: greater
Encoding: 62 62 294
Width: 543
Flags: MW
HStem: 53 425<31 105>
VStem: 31 441<53 281>
LayerCount: 2
Fore
SplineSet
472 281 m 1
 466 249 l 1
 31 53 l 1
 37 90 l 1
 433 266 l 1
 99 443 l 1
 105 478 l 1
 472 281 l 1
EndSplineSet
EndChar

StartChar: question
Encoding: 63 63 255
Width: 530
Flags: MW
HStem: -14 21G<210.5 228> -14 62<220.5 228> 671 33<293 387.5>
VStem: 193 62<13 21.5> 479 41<527.5 590.5>
LayerCount: 2
Fore
SplineSet
352 704 m 0xa8
 464 704 520 632 520 561 c 0
 520 484 483 429 387 337 c 0
 300 253 274 220 257 128 c 1
 221 128 l 1
 234 220 265 262 356 353 c 0
 454 450 479 496 479 559 c 0
 479 622 428 671 347 671 c 0
 239 671 170 603 145 494 c 1
 106 494 l 1
 131 621 226 704 352 704 c 0xa8
230 48 m 0x78
 246 48 255 38 255 23 c 0
 255 3 238 -14 218 -14 c 0
 203 -14 193 -4 193 11 c 0
 193 32 211 48 230 48 c 0x78
EndSplineSet
EndChar

StartChar: at
Encoding: 64 64 315
Width: 846
Flags: MW
HStem: -104 30<311.5 437.5> -15 21G<674 674> 67 32<346 387.5> 75 30<585 647.5 585 648.5> 451 32<403.5 470 390 481> 634 30<373.5 545.5>
VStem: 54 34<140.5 368 140.5 375.5> 238 42<181.5 287 181.5 290> 499 40<167 167> 531.69 15.31 757 33<261.5 428>
LayerCount: 2
Fore
SplineSet
603 465 m 1xef60
 549 242 l 2
 540 202 539 185 539 168 c 0
 539 129 563 105 607 105 c 0
 688 105 757 191 757 332 c 0
 757 524 632 634 459 634 c 0
 288 634 88 490 88 246 c 0
 88 35 232 -74 391 -74 c 0
 489 -74 568 -52 659 12 c 1
 674 -15 l 1
 566 -88 485 -104 390 -104 c 0
 222 -104 54 9 54 244 c 0
 54 507 267 664 465 664 c 0
 658 664 790 530 790 336 c 0
 790 161 696 75 601 75 c 0
 551 75 502 97 499 167 c 1xdfa0
 481 128 l 1xefa0
 447 86 409 67 366 67 c 0
 309 67 238 100 238 221 c 0
 238 359 329 483 451 483 c 0
 489 483 515 469 529 450 c 1
 547 398 l 1
 564 465 l 1
 603 465 l 1xef60
518 272 m 2
 527 312 l 2xef60
 546 394 512 451 450 451 c 0
 357 451 280 349 280 225 c 0
 280 138 318 99 374 99 c 0xefa0
 433 99 491 152 518 272 c 2
EndSplineSet
EndChar

StartChar: B
Encoding: 66 66 12
Width: 597
GlyphClass: 2
Flags: MW
HStem: 0 33<78 234> 344 33<139 294 294 302.5 139 304 133 294> 657 33<189 333 189 189>
VStem: 491 41<153.5 247.5> 523 42<501 582.5>
LayerCount: 2
Fore
SplineSet
405 364 m 1xf0
 490 347 532 293 532 215 c 0xf0
 532 84 421 12 308 3 c 0
 280 0 260 0 234 0 c 2
 34 0 l 1
 156 690 l 1
 337 690 l 2
 366 690 384 690 418 688 c 0
 510 680 565 630 565 550 c 0xe8
 565 452 501 384 405 364 c 1xf0
139 377 m 1
 294 377 l 2
 311 377 327 378 350 379 c 0
 434 386 523 431 523 542 c 0xe8
 523 623 466 652 395 656 c 0
 374 657 357 657 333 657 c 2
 189 657 l 1
 139 377 l 1
297 35 m 0xf0
 388 42 491 93 491 214 c 0
 491 281 454 337 356 342 c 0
 333 344 320 344 304 344 c 2
 133 344 l 1
 78 33 l 1
 251 33 l 2
 267 33 284 34 297 35 c 0xf0
EndSplineSet
Position2: "'cpsp' Capital Spacing in Latin lookup 0 subtable" dx=5 dy=0 dh=10 dv=0
EndChar

StartChar: D
Encoding: 68 68 18
Width: 681
GlyphClass: 2
Flags: MW
HStem: 0 33<78 212> 657 33<188 338 188 188>
VStem: 613 41<314.5 482.5>
LayerCount: 2
Fore
SplineSet
418 688 m 0
 544 677 654 593 654 403 c 0
 654 206 518 21 301 3 c 0
 265 0 245 0 212 0 c 2
 34 0 l 1
 156 690 l 1
 342 690 l 2
 375 690 391 690 418 688 c 0
306 37 m 0
 504 58 613 228 613 401 c 0
 613 564 526 643 411 654 c 0
 389 657 373 657 338 657 c 2
 188 657 l 1
 78 33 l 1
 222 33 l 2
 253 33 275 34 306 37 c 0
EndSplineSet
Position2: "'cpsp' Capital Spacing in Latin lookup 0 subtable" dx=5 dy=0 dh=10 dv=0
EndChar

StartChar: E
Encoding: 69 69 22
Width: 551
GlyphClass: 2
Flags: MW
HStem: 0 33<78 471> 329 32<136 496 130 502> 658 32<188 188 188 576>
VStem: 34 549
AnchorPoint: "Anchor-0" 231 0 basechar 0
LayerCount: 2
Fore
SplineSet
188 658 m 1
 136 361 l 1
 502 361 l 1
 496 329 l 1
 130 329 l 1
 78 33 l 1
 477 33 l 1
 471 0 l 1
 34 0 l 1
 156 690 l 1
 583 690 l 1
 576 658 l 1
 188 658 l 1
EndSplineSet
Position2: "'cpsp' Capital Spacing in Latin lookup 0 subtable" dx=5 dy=0 dh=10 dv=0
EndChar

StartChar: F
Encoding: 70 70 31
Width: 527
GlyphClass: 2
Flags: MW
HStem: 0 21G<34 72 34 34> 329 32<136 486 130 492> 658 32<188 188 188 576>
VStem: 34 549
LayerCount: 2
Fore
SplineSet
188 658 m 1
 136 361 l 1
 492 361 l 1
 486 329 l 1
 130 329 l 1
 72 0 l 1
 34 0 l 1
 156 690 l 1
 583 690 l 1
 576 658 l 1
 188 658 l 1
EndSplineSet
Position2: "'cpsp' Capital Spacing in Latin lookup 0 subtable" dx=5 dy=0 dh=10 dv=0
EndChar

StartChar: H
Encoding: 72 72 36
Width: 646
GlyphClass: 2
Flags: MW
HStem: 0 21G<34 72 34 34 500 538 500 500> 322 33<135 557 129 563> 670 20G<156 194 194 194 622 660 660 660>
VStem: 34 626
LayerCount: 2
Fore
SplineSet
660 690 m 1
 538 0 l 1
 500 0 l 1
 557 322 l 1
 129 322 l 1
 72 0 l 1
 34 0 l 1
 156 690 l 1
 194 690 l 1
 135 355 l 1
 563 355 l 1
 622 690 l 1
 660 690 l 1
EndSplineSet
Position2: "'cpsp' Capital Spacing in Latin lookup 0 subtable" dx=5 dy=0 dh=10 dv=0
EndChar

StartChar: I
Encoding: 73 73 38
Width: 180
GlyphClass: 2
Flags: MW
HStem: 0 21G<34 72 34 34> 670 20G<156 194 194 194>
VStem: 34 160
LayerCount: 2
Fore
SplineSet
72 0 m 1
 34 0 l 1
 156 690 l 1
 194 690 l 1
 72 0 l 1
EndSplineSet
Position2: "'cpsp' Capital Spacing in Latin lookup 0 subtable" dx=5 dy=0 dh=10 dv=0
EndChar

StartChar: J
Encoding: 74 74 47
Width: 477
GlyphClass: 2
Flags: MW
HStem: -14 33<147 237.5 147 250.5> 670 20G<459 497 497 497>
VStem: 12.83 38.23
LayerCount: 2
Fore
SplineSet
497 690 m 1
 421 261 l 2
 416 231 411 205 403 172 c 0
 380 74 317 -14 184 -14 c 0
 71 -14 -4 56 16 194 c 2
 21 227 l 1
 59 227 l 1
 54 194 l 1
 36 67 102 19 192 19 c 0
 283 19 341 75 367 176 c 0
 372 197 376 224 383 256 c 1
 459 690 l 1
 497 690 l 1
EndSplineSet
Position2: "'cpsp' Capital Spacing in Latin lookup 0 subtable" dx=5 dy=0 dh=10 dv=0
EndChar

StartChar: K
Encoding: 75 75 48
Width: 556
GlyphClass: 2
Flags: MW
HStem: 0 21G<34 72 34 34 442 492 442 442> 670 20G<156 194 194 194 572 622 622 622>
VStem: 34 588
AnchorPoint: "Anchor-0" 243 0 basechar 0
LayerCount: 2
Fore
SplineSet
203 345 m 1
 492 0 l 1
 442 0 l 1
 174 324 l 1
 122 281 l 1
 72 0 l 1
 34 0 l 1
 156 690 l 1
 194 690 l 1
 130 326 l 1
 572 690 l 1
 622 690 l 1
 203 345 l 1
EndSplineSet
Position2: "'cpsp' Capital Spacing in Latin lookup 0 subtable" dx=5 dy=0 dh=10 dv=0
EndChar

StartChar: M
Encoding: 77 77 56
Width: 785
GlyphClass: 2
Flags: MW
HStem: 0 37<363 363 363 380 332 363> 657 33<758 758>
VStem: 34 765<0 690>
LayerCount: 2
Fore
SplineSet
799 690 m 1
 677 0 l 1
 639 0 l 1
 758 657 l 1
 380 0 l 1
 332 0 l 1
 187 656 l 1
 72 0 l 1
 34 0 l 1
 156 690 l 1
 218 690 l 1
 363 37 l 1
 737 690 l 1
 799 690 l 1
EndSplineSet
Position2: "'cpsp' Capital Spacing in Latin lookup 0 subtable" dx=5 dy=0 dh=10 dv=0
EndChar

StartChar: O
Encoding: 79 79 63
Width: 744
GlyphClass: 2
Flags: MW
HStem: -14 33<277 451 277 461.5> 671 33<332 505.5>
VStem: 66 41<203.5 378.5 203.5 386.5> 676 41<312 487>
LayerCount: 2
Fore
SplineSet
445 704 m 0
 608 704 717 584 717 404 c 0
 717 204 585 -14 338 -14 c 0
 175 -14 66 106 66 287 c 0
 66 486 197 704 445 704 c 0
345 19 m 0
 557 19 676 220 676 404 c 0
 676 570 573 671 438 671 c 0
 226 671 107 470 107 287 c 0
 107 120 209 19 345 19 c 0
EndSplineSet
Position2: "'cpsp' Capital Spacing in Latin lookup 0 subtable" dx=5 dy=0 dh=10 dv=0
EndChar

StartChar: P
Encoding: 80 80 73
Width: 511
GlyphClass: 2
Flags: MW
HStem: 0 21G<35 73 35 35> 302 33<132 256 126 264> 656 34<188 321 188 188>
VStem: 520 41<470.5 568>
LayerCount: 2
Fore
SplineSet
420 685 m 0
 503 675 561 627 561 534 c 0
 561 395 465 321 354 306 c 0
 321 302 291 302 256 302 c 2
 126 302 l 1
 73 0 l 1
 35 0 l 1
 156 690 l 1
 324 690 l 2
 359 690 389 689 420 685 c 0
356 340 m 0
 446 353 520 411 520 530 c 0
 520 606 474 642 410 651 c 0
 383 655 356 656 321 656 c 2
 188 656 l 1
 132 335 l 1
 264 335 l 2
 299 335 326 336 356 340 c 0
EndSplineSet
Position2: "'cpsp' Capital Spacing in Latin lookup 0 subtable" dx=5 dy=0 dh=10 dv=0
EndChar

StartChar: Q
Encoding: 81 81 75
Width: 731
GlyphClass: 2
Flags: MW
HStem: -14 33<272.5 348> 3 32 671 33<327 500.5>
VStem: 65 41<199.5 370.5 199.5 377.5> 668 40<339.5 490.5>
LayerCount: 2
Fore
SplineSet
708 411 m 0xb8
 708 268 641 110 509 35 c 1
 563 31 597 12 634 -25 c 1
 608 -52 l 1
 559 -8 526 3 477 3 c 0x78
 456 3 434 -1 405 -7 c 0
 380 -12 360 -14 336 -14 c 0
 168 -14 65 106 65 279 c 0
 65 476 193 704 438 704 c 0
 605 704 708 584 708 411 c 0xb8
106 279 m 0
 106 120 205 19 340 19 c 0
 552 19 668 228 668 411 c 0
 668 570 568 671 433 671 c 0
 221 671 106 462 106 279 c 0
EndSplineSet
Position2: "'cpsp' Capital Spacing in Latin lookup 0 subtable" dx=5 dy=0 dh=10 dv=0
EndChar

StartChar: R
Encoding: 82 82 76
Width: 567
GlyphClass: 2
Flags: MW
HStem: 0 21G<34 72 34 34 450 491 450 450> 328 33<136 284 130 290> 657 33<188 332 188 188>
VStem: 436 38 533 42<489.5 571>
AnchorPoint: "Anchor-0" 216 0 basechar 0
LayerCount: 2
Fore
SplineSet
575 544 m 0
 575 435 499 361 398 344 c 1
 453 330 473 279 474 175 c 0
 476 70 482 30 491 0 c 1
 450 0 l 1
 444 32 439 68 436 197 c 0
 434 265 415 323 343 327 c 0
 323 328 300 328 284 328 c 2
 130 328 l 1
 72 0 l 1
 34 0 l 1
 156 690 l 1
 338 690 l 2
 373 690 403 689 435 685 c 0
 524 674 575 624 575 544 c 0
363 363 m 0
 463 371 533 439 533 537 c 0
 533 605 492 643 420 652 c 0
 391 656 367 657 332 657 c 2
 188 657 l 1
 136 361 l 1
 290 361 l 2
 317 361 334 361 363 363 c 0
EndSplineSet
Position2: "'cpsp' Capital Spacing in Latin lookup 0 subtable" dx=5 dy=0 dh=10 dv=0
EndChar

StartChar: S
Encoding: 83 83 80
Width: 549
GlyphClass: 2
Flags: MW
HStem: -14 33<188 304 188 312.5> 671 33<293 388.5>
VStem: 18 39<184 184> 106 43<470 559> 452 43<131.5 222> 501 40<510 510>
AnchorPoint: "Anchor-0" 246 0 basechar 0
LayerCount: 2
Fore
SplineSet
350 704 m 0
 482 704 546 617 541 510 c 1
 501 510 l 1xd4
 503 612 436 671 341 671 c 0
 245 671 149 618 149 507 c 0
 149 433 202 403 310 371 c 1
 432 337 495 285 495 187 c 0
 495 68 388 -14 237 -14 c 0
 111 -14 8 51 18 184 c 1
 57 184 l 1
 53 77 130 19 246 19 c 0
 362 19 452 82 452 181 c 0xf8
 452 263 401 303 288 336 c 0
 170 370 106 410 106 496 c 0
 106 622 209 704 350 704 c 0
EndSplineSet
Position2: "'cpsp' Capital Spacing in Latin lookup 0 subtable" dx=5 dy=0 dh=10 dv=0
EndChar

StartChar: T
Encoding: 84 84 85
Width: 588
GlyphClass: 2
Flags: MW
HStem: 0 21G<245 283 245 245> 658 32<108 361 102 665 399 659 399 399>
VStem: 102 563<658 690>
AnchorPoint: "Anchor-0" 261 0 basechar 0
LayerCount: 2
Fore
SplineSet
659 658 m 1
 399 658 l 1
 283 0 l 1
 245 0 l 1
 361 658 l 1
 102 658 l 1
 108 690 l 1
 665 690 l 1
 659 658 l 1
EndSplineSet
Position2: "'cpsp' Capital Spacing in Latin lookup 0 subtable" dx=5 dy=0 dh=10 dv=0
EndChar

StartChar: V
Encoding: 86 86 99
Width: 602
GlyphClass: 2
Flags: MW
HStem: 0 31<272 272 272 295> 670 20G<103 143 143 143 635 679 679 679>
VStem: 103 576<690 690>
LayerCount: 2
Fore
SplineSet
295 0 m 1
 240 0 l 1
 103 690 l 1
 143 690 l 1
 272 31 l 1
 635 690 l 1
 679 690 l 1
 295 0 l 1
EndSplineSet
Position2: "'cpsp' Capital Spacing in Latin lookup 0 subtable" dx=5 dy=0 dh=10 dv=0
EndChar

StartChar: W
Encoding: 87 87 100
Width: 856
GlyphClass: 2
Flags: MW
HStem: 0 44<187 187 187 204 155 187> 643 37<508 508> 670 20G<101 141 141 141 890 931 931 931>
VStem: 101 830<690 690>
LayerCount: 2
Fore
SplineSet
931 690 m 1xb0
 621 0 l 1
 573 0 l 1
 508 643 l 1xd0
 204 0 l 1
 155 0 l 1
 101 690 l 1
 141 690 l 1xb0
 187 44 l 1
 486 680 l 1
 541 680 l 1xd0
 605 45 l 1
 890 690 l 1
 931 690 l 1xb0
EndSplineSet
Position2: "'cpsp' Capital Spacing in Latin lookup 0 subtable" dx=5 dy=0 dh=10 dv=0
EndChar

StartChar: X
Encoding: 88 88 105
Width: 579
GlyphClass: 2
Flags: MW
HStem: 0 21G<-20 26 -20 -20 477 524 477 477> 670 20G<119 162 162 162 595 595>
VStem: -20 661
LayerCount: 2
Fore
SplineSet
335 348 m 1
 524 0 l 1
 477 0 l 1
 308 322 l 1
 26 0 l 1
 -20 0 l 1
 289 350 l 1
 119 690 l 1
 162 690 l 1
 318 377 l 1
 595 690 l 1
 641 689 l 1
 335 348 l 1
EndSplineSet
Position2: "'cpsp' Capital Spacing in Latin lookup 0 subtable" dx=5 dy=0 dh=10 dv=0
EndChar

StartChar: Z
Encoding: 90 90 111
Width: 551
GlyphClass: 2
Flags: MW
HStem: 0 33<48 479> 657 33<142 541 135 595>
VStem: -9 604
LayerCount: 2
Fore
SplineSet
589 658 m 1
 48 33 l 1
 486 33 l 1
 479 0 l 1
 -9 0 l 1
 -3 29 l 1
 541 657 l 1
 135 657 l 1
 142 690 l 1
 595 690 l 1
 589 658 l 1
EndSplineSet
Position2: "'cpsp' Capital Spacing in Latin lookup 0 subtable" dx=5 dy=0 dh=10 dv=0
EndChar

StartChar: bracketleft
Encoding: 91 91 264
Width: 258
Flags: MW
HStem: -80 30<49 168> 750 30<190 315 190 190>
VStem: 13 307
LayerCount: 2
Fore
SplineSet
165 780 m 1
 320 780 l 1
 315 750 l 1
 190 750 l 1
 49 -50 l 1
 174 -50 l 1
 168 -80 l 1
 13 -80 l 1
 165 780 l 1
EndSplineSet
EndChar

StartChar: backslash
Encoding: 92 92 245
Width: 273
Flags: MW
HStem: -30 750<75 226 75 194>
VStem: 75 151
LayerCount: 2
Fore
SplineSet
226 -30 m 1
 194 -30 l 1
 75 720 l 1
 107 720 l 1
 226 -30 l 1
EndSplineSet
EndChar

StartChar: bracketright
Encoding: 93 93 265
Width: 260
Flags: MW
HStem: -80 30<-31 94 -31 120 -36 94> 750 30<116 235 111 272>
VStem: -36 308
LayerCount: 2
Fore
SplineSet
120 -80 m 1
 -36 -80 l 1
 -31 -50 l 1
 94 -50 l 1
 235 750 l 1
 111 750 l 1
 116 780 l 1
 272 780 l 1
 120 -80 l 1
EndSplineSet
EndChar

StartChar: asciicircum
Encoding: 94 94 314
Width: 543
Flags: MW
HStem: 587 29<324 324>
VStem: 65 383<215 215>
LayerCount: 2
Fore
SplineSet
412 215 m 1
 324 587 l 1
 102 215 l 1
 65 215 l 1
 308 616 l 1
 347 616 l 1
 448 215 l 1
 412 215 l 1
EndSplineSet
EndChar

StartChar: underscore
Encoding: 95 95 261
Width: 500
Flags: MW
HStem: -82 30<53 447 47 453>
VStem: 47 406<-82 -52>
LayerCount: 2
Fore
SplineSet
447 -82 m 1
 47 -82 l 1
 53 -52 l 1
 453 -52 l 1
 447 -82 l 1
EndSplineSet
EndChar

StartChar: grave
Encoding: 96 96 333
Width: 300
Flags: MW
HStem: 580 110<76 157 76 130>
VStem: 76 81
LayerCount: 2
Fore
SplineSet
157 580 m 1
 130 580 l 1
 76 690 l 1
 115 690 l 1
 157 580 l 1
EndSplineSet
EndChar

StartChar: b
Encoding: 98 98 126
Width: 564
GlyphClass: 2
Flags: MW
HStem: -14 32<212.5 329.5 188.5 341.5> 0 21G<26 64 26 26> 509 32<314 391.5> 715 20G<156 194 194 194>
VStem: 84 16.25 498 41<249.5 378.5>
LayerCount: 2
Fore
SplineSet
350 541 m 0xbc
 470 541 539 451 539 327 c 0
 539 160 436 -14 247 -14 c 0
 178 -14 134 7 103 55 c 1xbc
 84 113 l 1
 64 0 l 1
 26 0 l 1x7c
 156 735 l 1
 194 735 l 1
 138 417 l 1
 179 475 l 1
 230 523 278 541 350 541 c 0xbc
252 18 m 0
 407 18 498 173 498 326 c 0
 498 431 443 509 340 509 c 0
 240 509 144 451 114 284 c 1
 105 232 l 2
 85 114 125 18 252 18 c 0
EndSplineSet
EndChar

StartChar: d
Encoding: 100 100 132
Width: 563
GlyphClass: 2
Flags: MW
HStem: -14 32<172.5 250> 0 21G<407 445 407 407> 509 32<234.5 351.5 222.5 375.5> 715 20G<537 575 575 575>
VStem: 25 41<149 278.5 149 283.5> 463.73 16.27
LayerCount: 2
Fore
SplineSet
575 735 m 1xbc
 445 0 l 1
 407 0 l 1x7c
 426 111 l 1
 385 52 l 1
 334 4 286 -14 214 -14 c 0
 94 -14 25 77 25 200 c 0
 25 367 128 541 317 541 c 0
 386 541 430 520 461 472 c 1
 480 414 l 1
 537 735 l 1
 575 735 l 1xbc
450 244 m 2
 459 295 l 2
 479 413 439 509 312 509 c 0
 157 509 66 355 66 202 c 0
 66 96 121 18 224 18 c 0xbc
 324 18 420 77 450 244 c 2
EndSplineSet
EndChar

StartChar: e
Encoding: 101 101 136
Width: 527
GlyphClass: 2
Flags: MW
HStem: -14 32<179.5 260 179.5 263> 253 33<75 454 75 485 69 454> 509 32<240.5 350>
VStem: 24 41<136 211 136 274.5> 458 39<332 397.5 327 402.5>
AnchorPoint: "Anchor-0" 213 0 basechar 0
LayerCount: 2
Fore
SplineSet
485 253 m 1
 69 253 l 1
 66 235 65 219 65 203 c 0
 65 69 139 18 220 18 c 0
 300 18 380 64 424 164 c 1
 463 164 l 1
 410 39 314 -14 212 -14 c 0
 104 -14 24 59 24 202 c 0
 24 347 119 541 313 541 c 0
 442 541 497 453 497 342 c 0
 497 312 492 275 485 253 c 1
308 509 m 0
 173 509 100 392 75 286 c 1
 454 286 l 1
 457 305 458 323 458 341 c 0
 458 464 392 509 308 509 c 0
EndSplineSet
EndChar

StartChar: f
Encoding: 102 102 145
Width: 236
GlyphClass: 2
Flags: MW
HStem: 0 21G<31 69 31 31> 494 32<76 117 70 122 161 263> 720 29
VStem: 31 288
LayerCount: 2
Fore
SplineSet
266 754 m 0
 289 754 301 753 319 749 c 1
 312 716 l 1
 298 719 285 720 273 720 c 0
 227 720 198 696 186 655 c 0
 180 633 177 616 174 601 c 2
 161 526 l 1
 268 526 l 1
 263 494 l 1
 155 494 l 1
 69 0 l 1
 31 0 l 1
 117 494 l 1
 70 494 l 1
 76 526 l 1
 122 526 l 1
 134 593 l 2
 138 614 142 632 148 656 c 0
 167 725 217 754 266 754 c 0
EndSplineSet
EndChar

StartChar: h
Encoding: 104 104 150
Width: 547
GlyphClass: 2
Flags: MW
HStem: 0 21G<26 64 26 26 395 433 395 395> 508 33<310 331> 720 20G<156 194 194 194>
VStem: 457 40<383 425>
LayerCount: 2
Fore
SplineSet
341 541 m 0
 443 541 497 487 497 399 c 0
 497 367 494 345 485 294 c 2
 433 0 l 1
 395 0 l 1
 445 285 l 2
 453 330 457 362 457 391 c 0
 457 459 420 509 331 508 c 1
 234 508 141 441 115 292 c 2
 64 0 l 1
 26 0 l 1
 156 740 l 1
 194 740 l 1
 137 414 l 1
 171 472 l 1
 221 522 279 541 341 541 c 0
EndSplineSet
EndChar

StartChar: i
Encoding: 105 105 152
Width: 181
GlyphClass: 2
Flags: MW
HStem: 0 21G<25 63 25 25> 507 20G<118 156 156 156> 608 58<152 161>
VStem: 128 58<632 642.5>
LayerCount: 2
Fore
SplineSet
161 666 m 0
 176 666 186 655 186 642 c 0
 186 622 170 608 152 608 c 0
 138 608 128 619 128 633 c 0
 128 652 143 666 161 666 c 0
63 0 m 1
 25 0 l 1
 118 527 l 1
 156 527 l 1
 63 0 l 1
EndSplineSet
EndChar

StartChar: j
Encoding: 106 106 161
Width: 164
GlyphClass: 2
Flags: MW
HStem: -210 32.54 507 20G<121 159 159 159> 608 58<152 161>
VStem: 127 58<632 642.5>
LayerCount: 2
Fore
SplineSet
161 666 m 0
 175 666 185 655 185 642 c 0
 185 622 170 608 152 608 c 0
 137 608 127 619 127 633 c 0
 127 652 143 666 161 666 c 0
159 527 m 1
 55 -66 l 2
 51 -86 48 -103 43 -121 c 0
 26 -185 -12 -210 -64 -210 c 0
 -76 -210 -88 -209 -101 -207 c 1
 -94 -175 l 1
 -40 -185 -8 -168 6 -116 c 0
 10 -102 13 -92 16 -73 c 2
 121 527 l 1
 159 527 l 1
EndSplineSet
EndChar

StartChar: k
Encoding: 107 107 162
Width: 484
GlyphClass: 2
Flags: MW
HStem: 0 21G<26 64 26 26 370 417 370 370> 507 20G<443 497 497 497> 715 20G<156 194 194 194>
VStem: 26 471
AnchorPoint: "Anchor-0" 194 0 basechar 0
LayerCount: 2
Fore
SplineSet
188 277 m 1
 417 0 l 1
 370 0 l 1
 158 255 l 1
 101 209 l 1
 64 0 l 1
 26 0 l 1
 156 735 l 1
 194 735 l 1
 109 254 l 1
 443 527 l 1
 497 527 l 1
 188 277 l 1
EndSplineSet
EndChar

StartChar: m
Encoding: 109 109 170
Width: 821
GlyphClass: 2
Flags: MW
HStem: 0 21G<26 64 26 26 348 386 348 348 669 707 669 669> 507 20G<118 156 156 156> 509 32<291.5 341.5 613.5 662>
VStem: 410 40<414 414 414 431> 732 40<385 430.5>
LayerCount: 2
Fore
SplineSet
640 541 m 0xb8
 728 541 772 488 772 405 c 0
 772 365 769 352 760 300 c 2
 707 0 l 1
 669 0 l 1
 719 283 l 2
 728 331 732 356 732 392 c 0
 732 469 699 509 625 509 c 0
 543 509 462 437 437 292 c 2
 386 0 l 1
 348 0 l 1
 398 283 l 2
 407 336 410 361 410 392 c 0
 410 470 379 509 304 509 c 0xb8
 221 509 141 438 115 294 c 1
 64 0 l 1
 26 0 l 1
 118 527 l 1
 156 527 l 1xd8
 138 423 l 1
 175 482 l 1
 216 522 265 541 318 541 c 0
 404 541 447 492 450 414 c 1
 497 482 l 1
 538 522 587 541 640 541 c 0xb8
EndSplineSet
EndChar

StartChar: n
Encoding: 110 110 171
Width: 547
GlyphClass: 2
Flags: MW
HStem: 0 21G<26 64 26 26 395 433 395 395> 507 20G<118 156 156 156> 508 33<310 331>
VStem: 457 40<383 425>
AnchorPoint: "Anchor-0" 225 0 basechar 0
LayerCount: 2
Fore
SplineSet
341 541 m 0xb0
 443 541 497 487 497 399 c 0
 497 367 494 345 485 294 c 2
 433 0 l 1
 395 0 l 1
 445 285 l 2
 453 330 457 362 457 391 c 0
 457 459 420 509 331 508 c 1xb0
 234 508 141 441 115 292 c 2
 64 0 l 1
 26 0 l 1
 118 527 l 1
 156 527 l 1xd0
 136 414 l 1
 171 472 l 1
 221 522 279 541 341 541 c 0xb0
EndSplineSet
EndChar

StartChar: p
Encoding: 112 112 187
Width: 564
GlyphClass: 2
Flags: MW
HStem: -14 32<212.5 329.5 188.5 341.5> 507 20G<120 158 158 158> 509 32<314 391.5>
VStem: 84 16.25 498 41<249.5 378.5>
LayerCount: 2
Fore
SplineSet
350 541 m 0xb8
 470 541 539 451 539 327 c 0
 539 160 436 -14 247 -14 c 0
 178 -14 134 7 103 55 c 1
 84 113 l 1
 29 -196 l 1
 -9 -196 l 1
 120 527 l 1
 158 527 l 1xd8
 138 418 l 1
 179 475 l 1
 230 523 278 541 350 541 c 0xb8
252 18 m 0
 407 18 498 173 498 326 c 0
 498 431 443 509 340 509 c 0
 240 509 144 451 114 285 c 1
 114 284 l 1
 105 232 l 2
 85 114 125 18 252 18 c 0
EndSplineSet
EndChar

StartChar: q
Encoding: 113 113 189
Width: 563
GlyphClass: 2
Flags: MW
HStem: -14 32<172.5 250> 507 20G<500 538 538 538> 509 32<234.5 351.5 222.5 375.5>
VStem: 25 41<149 278.5 149 283.5> 463.73 16.27
LayerCount: 2
Fore
SplineSet
538 527 m 1xd8
 409 -196 l 1
 371 -196 l 1
 426 110 l 1
 385 52 l 1
 334 4 286 -14 214 -14 c 0
 94 -14 25 77 25 200 c 0
 25 367 128 541 317 541 c 0
 386 541 430 520 461 472 c 1xb8
 480 415 l 1
 500 527 l 1
 538 527 l 1xd8
450 244 m 2
 459 295 l 2
 479 413 439 509 312 509 c 0
 157 509 66 355 66 202 c 0
 66 96 121 18 224 18 c 0
 324 18 420 77 450 244 c 2
EndSplineSet
EndChar

StartChar: t
Encoding: 116 116 200
Width: 258
GlyphClass: 2
Flags: MW
HStem: -7 30.01 -7 33 493 30<62 122 56 127 165 260>
VStem: 49 39<47.5 66.5>
AnchorPoint: "Anchor-0" 105 0 basechar 0
LayerCount: 2
Fore
SplineSet
160 493 m 1xb0
 97 135 l 2
 90 99 88 82 88 68 c 0xb0
 88 27 117 17 180 26 c 1x70
 175 -3 l 1
 160 -6 145 -7 125 -7 c 0
 75 -7 49 11 49 57 c 0
 49 76 51 98 59 137 c 1
 122 493 l 1
 56 493 l 1
 62 523 l 1
 127 523 l 1
 147 635 l 1
 185 635 l 1
 165 523 l 1
 265 523 l 1
 260 493 l 1
 160 493 l 1xb0
EndSplineSet
EndChar

StartChar: v
Encoding: 118 118 214
Width: 478
GlyphClass: 2
Flags: MW
HStem: 0 31<193 193 193 213 163 193> 507 20G<51 93 93 93 469 513 513 513>
VStem: 51 462<527 527>
LayerCount: 2
Fore
SplineSet
513 527 m 1
 213 0 l 1
 163 0 l 1
 51 527 l 1
 93 527 l 1
 193 31 l 1
 469 527 l 1
 513 527 l 1
EndSplineSet
EndChar

StartChar: w
Encoding: 119 119 215
Width: 728
GlyphClass: 2
Flags: MW
HStem: 0 36<153 153 153 171 122 153> 490 36<400 400>
VStem: 51 713<527 527>
LayerCount: 2
Fore
SplineSet
764 527 m 1
 503 0 l 1
 456 0 l 1
 400 490 l 1
 171 0 l 1
 122 0 l 1
 51 527 l 1
 92 527 l 1
 153 36 l 1
 379 526 l 1
 430 526 l 1
 487 39 l 1
 721 527 l 1
 764 527 l 1
EndSplineSet
EndChar

StartChar: x
Encoding: 120 120 220
Width: 449
GlyphClass: 2
Flags: MW
HStem: 0 21G<-43 4 -43 -43 336 381 336 336> 507 20G<65 109 109 109 431 479 479 479>
VStem: -43 522
LayerCount: 2
Fore
SplineSet
240 264 m 1
 381 0 l 1
 336 0 l 1
 214 237 l 1
 4 0 l 1
 -43 0 l 1
 196 267 l 1
 65 527 l 1
 109 527 l 1
 224 294 l 1
 431 527 l 1
 479 527 l 1
 240 264 l 1
EndSplineSet
EndChar

StartChar: y
Encoding: 121 121 221
Width: 478
GlyphClass: 2
Flags: MW
HStem: -210 33<-9.5 20.5 -9.5 28> 507 20G<51 93 93 93 469 513 513 513>
VStem: -41 554
LayerCount: 2
Fore
SplineSet
513 527 m 1
 213 0 l 2
 112 -179 63 -210 -7 -210 c 0
 -18 -210 -30 -209 -41 -206 c 1
 -35 -174 l 1
 -23 -177 -14 -177 -5 -177 c 0
 46 -177 87 -146 152 -34 c 1
 165 -11 l 1
 51 527 l 1
 93 527 l 1
 193 31 l 1
 469 527 l 1
 513 527 l 1
EndSplineSet
EndChar

StartChar: z
Encoding: 122 122 226
Width: 467
GlyphClass: 2
Flags: MW
HStem: 0 31<29 387> 490 33<92 418 87 473>
VStem: -23 496
LayerCount: 2
Fore
SplineSet
468 491 m 1
 29 31 l 1
 392 31 l 1
 387 0 l 1
 -23 0 l 1
 -18 30 l 1
 418 490 l 1
 87 490 l 1
 92 523 l 1
 473 523 l 1
 468 491 l 1
EndSplineSet
EndChar

StartChar: bar
Encoding: 124 124 316
Width: 251
Flags: MW
HStem: -200 1000<27 234 27 234>
VStem: 27 207
LayerCount: 2
Fore
SplineSet
58 -200 m 1
 27 -200 l 1
 203 800 l 1
 234 800 l 1
 58 -200 l 1
EndSplineSet
EndChar

StartChar: braceright
Encoding: 125 125 263
Width: 291
Flags: MW
HStem: -80 30<-34 -24 -39 -17> 750 30<113 124 107 128>
VStem: 146 33<416 445.5> 211 32<677 713>
LayerCount: 2
Fore
SplineSet
179 433 m 0
 179 399 196 370 246 365 c 1
 240 335 l 1
 146 326 135 248 134 135 c 0
 132 -5 110 -80 -24 -80 c 2
 -39 -80 l 1
 -34 -50 l 1
 -17 -50 l 2
 86 -50 100 10 102 125 c 1
 105 234 113 333 211 350 c 1
 164 359 146 392 146 430 c 0
 146 461 153 493 180 572 c 1
 206 643 211 663 211 691 c 0
 211 735 178 750 124 750 c 2
 107 750 l 1
 113 780 l 1
 128 780 l 2
 197 780 243 755 243 692 c 0
 243 662 235 636 208 562 c 0
 184 495 179 460 179 433 c 0
EndSplineSet
EndChar

StartChar: asciitilde
Encoding: 126 126 290
Width: 595
Flags: MW
HStem: 231 30<398.5 435 398.5 435.5> 319 30<162 198.5>
VStem: 77 443<228 352>
LayerCount: 2
Fore
SplineSet
490 352 m 1
 520 352 l 1
 505 268 465 231 406 231 c 0
 368 231 348 239 288 276 c 0
 237 307 214 319 183 319 c 0
 140 319 117 286 107 228 c 1
 77 228 l 1
 92 311 133 349 191 349 c 0
 229 349 250 339 309 303 c 0
 361 271 384 261 413 261 c 0
 457 261 480 293 490 352 c 1
EndSplineSet
EndChar

StartChar: exclamdown
Encoding: 161 161 251
Width: 182
Flags: MW
HStem: 479 62<130.5 138.5>
VStem: 103 63<506 514.5>
LayerCount: 2
Fore
SplineSet
129 479 m 0
 113 479 103 490 103 504 c 0
 103 525 121 541 140 541 c 0
 156 541 166 531 166 516 c 0
 166 496 148 479 129 479 c 0
98 400 m 1
 132 400 l 1
 33 -163 l 1
 -10 -163 l 1
 98 400 l 1
EndSplineSet
EndChar

StartChar: cent
Encoding: 162 162 283
Width: 543
Flags: MW
HStem: -13 32<208 213> 510 31<331 337>
VStem: 35 40<147.5 279.5> 470 39<360 360>
LayerCount: 2
Fore
SplineSet
509 360 m 1
 470 360 l 1
 469 450 423 506 331 510 c 1
 244 18 l 1
 328 23 398 72 436 160 c 1
 475 160 l 1
 431 50 345 -9 239 -14 c 1
 225 -90 l 1
 194 -90 l 1
 208 -13 l 1
 105 -6 35 72 35 206 c 0
 35 353 129 526 306 540 c 1
 320 620 l 1
 351 620 l 1
 337 541 l 1
 450 538 511 466 509 360 c 1
75 208 m 0
 75 87 135 27 213 19 c 1
 300 509 l 1
 164 495 75 352 75 208 c 0
EndSplineSet
EndChar

StartChar: sterling
Encoding: 163 163 287
Width: 543
Flags: MW
HStem: 0 33<68 440> 343 30<70 144 70 156 65 144 198 414 198 198> 671 33<274 379>
VStem: 122 40<473.5 541 473.5 545> 179 40<202.5 257.5> 471 40<508 508>
LayerCount: 2
Fore
SplineSet
326 671 m 0
 222 671 162 582 162 500 c 0
 162 447 172 413 188 373 c 1xf4
 419 373 l 1
 414 343 l 1
 198 343 l 1
 213 305 219 272 219 245 c 0
 219 160 179 90 68 33 c 1
 446 33 l 1
 440 0 l 1
 -5 0 l 1
 0 30 l 1
 122 75 179 151 179 241 c 0
 179 274 171 304 156 343 c 1xfc
 65 343 l 1
 70 373 l 1
 144 373 l 1
 131 407 122 445 122 499 c 0
 122 591 192 704 333 704 c 0
 467 704 504 615 511 508 c 1
 471 508 l 1
 466 606 432 671 326 671 c 0
EndSplineSet
EndChar

StartChar: currency
Encoding: 164 164 284
Width: 543
Flags: MW
HStem: 121 30<225.5 271> 451 30<275.5 320.5 275.5 330>
VStem: 98 32<268 308.5> 416 33<292 334.5 292 355.5>
LayerCount: 2
Fore
SplineSet
449 316 m 0
 449 268 430 216 391 177 c 1
 434 126 l 1
 408 104 l 1
 365 156 l 1
 334 134 295 121 247 121 c 0
 204 121 168 138 142 167 c 1
 73 109 l 1
 55 131 l 1
 124 190 l 1
 107 217 98 250 98 286 c 0
 98 331 117 384 156 424 c 1
 112 478 l 1
 138 500 l 1
 183 446 l 1
 213 467 252 481 299 481 c 0
 342 481 379 464 405 436 c 1
 475 496 l 1
 493 474 l 1
 423 413 l 1
 440 387 449 353 449 316 c 0
130 289 m 0
 130 209 179 151 253 151 c 0
 362 151 416 244 416 313 c 0
 416 398 367 451 293 451 c 0
 185 451 130 359 130 289 c 0
EndSplineSet
EndChar

StartChar: yen
Encoding: 165 165 288
Width: 543
Flags: MW
HStem: 0 21G<199 237 199 199> 211 30<64 236 58 241 279 453> 316 30<82 242 82 255 77 242 319 472> 670 20G<92 135 135 135 544 590 590 590>
VStem: 58 532<211 690>
LayerCount: 2
Fore
SplineSet
319 346 m 1
 477 346 l 1
 472 316 l 1
 296 316 l 1
 292 311 l 1
 279 241 l 1
 459 241 l 1
 453 211 l 1
 274 211 l 1
 237 0 l 1
 199 0 l 1
 236 211 l 1
 58 211 l 1
 64 241 l 1
 241 241 l 1
 255 316 l 1
 77 316 l 1
 82 346 l 1
 242 346 l 1
 92 690 l 1
 135 690 l 1
 280 348 l 1
 544 690 l 1
 590 690 l 1
 319 346 l 1
EndSplineSet
EndChar

StartChar: brokenbar
Encoding: 166 166 317
Width: 251
Flags: MW
HStem: 670 20G<184 215 215 215>
VStem: 34 181
LayerCount: 2
Fore
SplineSet
155 350 m 1
 124 350 l 1
 184 690 l 1
 215 690 l 1
 155 350 l 1
65 -160 m 1
 34 -160 l 1
 94 180 l 1
 125 180 l 1
 65 -160 l 1
EndSplineSet
EndChar

StartChar: section
Encoding: 167 167 324
Width: 538
Flags: MW
HStem: -174 32<177 260 177 268.5> 672 32<277 359.5>
VStem: 46 41<239 315> 148 41<524 583 514.5 589> 365 41<-61.5 4 -67 8.5> 466 41<217 289.5>
LayerCount: 2
Fore
SplineSet
507 255 m 0
 507 179 446 116 338 100 c 1
 384 70 406 30 406 -22 c 0
 406 -112 323 -174 214 -174 c 0
 115 -174 38 -123 24 -7 c 1
 63 -7 l 1
 78 -100 136 -142 218 -142 c 0
 302 -142 365 -98 365 -25 c 0
 365 42 326 82 205 112 c 1
 126 134 46 180 46 276 c 0
 46 354 106 417 209 436 c 1
 171 461 148 497 148 551 c 0
 148 627 210 704 324 704 c 0
 433 704 486 640 499 546 c 1
 460 546 l 1
 445 632 398 672 321 672 c 0
 233 672 189 615 189 551 c 0
 189 478 253 446 329 426 c 0
 440 397 507 347 507 255 c 0
290 125 m 1
 393 130 466 174 466 253 c 0
 466 326 415 363 306 395 c 0
 288 400 272 405 257 411 c 1
 160 405 87 360 87 280 c 0
 87 198 152 165 226 145 c 0
 250 139 271 132 290 125 c 1
EndSplineSet
EndChar

StartChar: dieresis
Encoding: 168 168 331
Width: 300
Flags: MW
HStem: 606 53<99 105 195.5 201>
VStem: 75 54<628.5 635.5> 172 53<628.5 635.5>
LayerCount: 2
Fore
SplineSet
107 659 m 0
 120 659 129 649 129 637 c 0
 129 620 113 606 97 606 c 0
 84 606 75 615 75 627 c 0
 75 644 91 659 107 659 c 0
203 659 m 0
 217 659 225 649 225 637 c 0
 225 620 209 606 193 606 c 0
 180 606 172 615 172 627 c 0
 172 644 188 659 203 659 c 0
EndSplineSet
EndChar

StartChar: copyright
Encoding: 169 169 318
Width: 838
Flags: MW
HStem: -21 32<325 513 325 522> 143 33<377 455.5 377 463> 537 33<376.5 461.5> 700 31<325 513>
VStem: 51 32<259 451 259 460> 235 40<304 405 304 421.5> 755 32<259 451>
LayerCount: 2
Fore
SplineSet
419 731 m 0
 625 731 787 565 787 355 c 0
 787 145 625 -21 419 -21 c 0
 213 -21 51 145 51 355 c 0
 51 565 213 731 419 731 c 0
419 700 m 0
 231 700 83 547 83 355 c 0
 83 163 231 11 419 11 c 0
 607 11 755 163 755 355 c 0
 755 547 607 700 419 700 c 0
423 570 m 0
 513 570 581 519 595 426 c 1
 555 426 l 1
 542 492 500 537 423 537 c 0
 330 537 275 454 275 356 c 0
 275 252 334 176 420 176 c 0
 491 176 539 215 554 286 c 1
 594 286 l 1
 574 193 511 143 415 143 c 0
 316 143 235 224 235 355 c 0
 235 488 317 570 423 570 c 0
EndSplineSet
EndChar

StartChar: guillemotleft
Encoding: 171 171 272
Width: 476
Flags: MW
HStem: 82 332<209 311 209 311 267 339 267 377>
VStem: 101 340<248 414>
LayerCount: 2
Fore
SplineSet
141 244 m 1
 247 82 l 1
 209 82 l 1
 101 248 l 1
 267 414 l 1
 311 414 l 1
 141 244 l 1
271 244 m 1
 377 82 l 1
 339 82 l 1
 231 248 l 1
 397 414 l 1
 441 414 l 1
 271 244 l 1
EndSplineSet
EndChar

StartChar: logicalnot
Encoding: 172 172 300
Width: 543
Flags: MW
HStem: 340 30<92 411 86 447>
VStem: 86 361<340 370>
LayerCount: 2
Fore
SplineSet
419 210 m 1
 388 210 l 1
 411 340 l 1
 86 340 l 1
 92 370 l 1
 447 370 l 1
 419 210 l 1
EndSplineSet
EndChar

StartChar: registered
Encoding: 174 174 323
Width: 519
Flags: MW
HStem: 344 27<186.5 307 186.5 313> 534 24<226 251 251 254.5 226 258 222 251> 635 25<239 263 239 239> 737 27<212.5 333>
VStem: 45 29<484.5 576 484.5 583> 286 29<500.5 512 500.5 513> 314 31<589 611> 445 30<532 623.5>
LayerCount: 2
Fore
SplineSet
286 764 m 0xfd
 405 764 475 684 475 580 c 0
 475 471 392 344 234 344 c 0
 115 344 45 424 45 528 c 0
 45 638 127 764 286 764 c 0xfd
239 371 m 0
 375 371 445 484 445 580 c 0
 445 667 385 737 281 737 c 0
 144 737 74 624 74 528 c 0
 74 441 134 371 239 371 c 0
292 659 m 0xfb
 325 655 345 633 345 604 c 0
 345 574 325 554 293 547 c 1xfb
 307 542 316 530 315 512 c 1
 315 489 317 475 324 456 c 1
 292 456 l 1
 289 468 286 482 286 500 c 0
 286 526 280 534 258 534 c 2
 222 534 l 1
 208 456 l 1xfd
 180 456 l 1
 216 660 l 1
 268 660 l 2
 276 660 283 660 292 659 c 0xfb
272 559 m 0
 299 562 314 577 314 601 c 0
 314 621 303 631 284 634 c 0
 278 635 271 635 263 635 c 2
 239 635 l 1
 226 558 l 1
 251 558 l 2
 258 558 264 558 272 559 c 0
EndSplineSet
EndChar

StartChar: macron
Encoding: 175 175 335
Width: 300
Flags: MW
HStem: 616 29<70 230 65 235>
VStem: 65 170<616 645>
LayerCount: 2
Fore
SplineSet
230 616 m 1
 65 616 l 1
 70 645 l 1
 235 645 l 1
 230 616 l 1
EndSplineSet
EndChar

StartChar: degree
Encoding: 176 176 321
Width: 283
Flags: MW
HStem: 538 30<177 220 177 226.5> 719 30<196.5 240>
VStem: 100 33<609.5 655.5 609.5 663> 283 34<631.5 677.5>
LayerCount: 2
Fore
SplineSet
225 749 m 0
 281 749 317 711 317 661 c 0
 317 588 262 538 191 538 c 0
 136 538 100 576 100 627 c 0
 100 699 154 749 225 749 c 0
221 719 m 0
 172 719 133 683 133 628 c 0
 133 591 158 568 196 568 c 0
 244 568 283 604 283 659 c 0
 283 696 259 719 221 719 c 0
EndSplineSet
EndChar

StartChar: plusminus
Encoding: 177 177 308
Width: 543
Flags: MW
HStem: 0 30<25 425 20 430> 303 30<78 260 74 266 297 479 78 291> 514 20G<301 332 332 332>
VStem: 20 463<0 333>
LayerCount: 2
Fore
SplineSet
483 333 m 1
 479 303 l 1
 291 303 l 1
 256 101 l 1
 225 101 l 1
 260 303 l 1
 74 303 l 1
 78 333 l 1
 266 333 l 1
 301 534 l 1
 332 534 l 1
 297 333 l 1
 483 333 l 1
25 30 m 1
 430 30 l 1
 425 0 l 1
 20 0 l 1
 25 30 l 1
EndSplineSet
EndChar

StartChar: acute
Encoding: 180 180 326
Width: 300
Flags: MW
HStem: 580 110<123 244 123 244>
VStem: 123 121<580 690>
LayerCount: 2
Fore
SplineSet
151 580 m 1
 123 580 l 1
 203 690 l 1
 244 690 l 1
 151 580 l 1
EndSplineSet
EndChar

StartChar: paragraph
Encoding: 182 182 322
Width: 528
Flags: MW
HStem: 660 30<377 496 377 377>
VStem: 78 454<439.5 690>
LayerCount: 2
Fore
SplineSet
532 690 m 1
 390 -110 l 1
 359 -110 l 1
 496 660 l 1
 377 660 l 1
 240 -110 l 1
 209 -110 l 1
 285 320 l 1
 262 320 l 2
 244 320 223 320 206 321 c 0
 121 326 78 401 78 478 c 0
 78 563 135 681 271 689 c 0
 289 690 310 690 328 690 c 2
 532 690 l 1
EndSplineSet
EndChar

StartChar: periodcentered
Encoding: 183 183 254
Width: 153
Flags: MW
HStem: 271 68<77.5 86.5>
VStem: 48 68<300 310>
LayerCount: 2
Fore
SplineSet
88 339 m 0
 106 339 116 328 116 311 c 0
 116 289 97 271 76 271 c 0
 58 271 48 283 48 299 c 0
 48 321 67 339 88 339 c 0
EndSplineSet
EndChar

StartChar: cedilla
Encoding: 184 184 329
Width: 300
Flags: MW
HStem: -210 26<92.5 129 92.5 131> -71 23
VStem: 186 32<-140.5 -104>
LayerCount: 2
Fore
SplineSet
181 3 m 1
 145 -48 l 1
 190 -53 218 -78 218 -120 c 0
 218 -181 165 -210 97 -210 c 0
 78 -210 61 -208 46 -203 c 1
 51 -177 l 1
 67 -183 83 -184 102 -184 c 0
 156 -184 186 -159 186 -122 c 0
 186 -86 158 -67 98 -71 c 1
 155 8 l 1
 181 3 l 1
EndSplineSet
EndChar

StartChar: guillemotright
Encoding: 187 187 273
Width: 476
Flags: MW
HStem: 82 332<29 131 29 131 93 159 93 203>
VStem: 29 340<82 248>
LayerCount: 2
Fore
SplineSet
239 248 m 1
 73 82 l 1
 29 82 l 1
 199 252 l 1
 93 414 l 1
 131 414 l 1
 239 248 l 1
369 248 m 1
 203 82 l 1
 159 82 l 1
 329 252 l 1
 223 414 l 1
 261 414 l 1
 369 248 l 1
EndSplineSet
EndChar

StartChar: questiondown
Encoding: 191 191 256
Width: 490
Flags: MW
HStem: -178 33<149.5 244 149.5 248> 478 62<309 316.5>
VStem: 17 41<-64 -1 -64 3.5> 282 62<505.5 513.5>
LayerCount: 2
Fore
SplineSet
307 478 m 0
 291 478 282 489 282 503 c 0
 282 524 299 540 319 540 c 0
 334 540 344 530 344 516 c 0
 344 495 326 478 307 478 c 0
185 -178 m 0
 73 -178 17 -106 17 -35 c 0
 17 42 54 97 150 190 c 0
 237 274 263 306 280 399 c 1
 316 399 l 1
 303 306 272 265 181 174 c 0
 83 77 58 31 58 -33 c 0
 58 -95 109 -145 190 -145 c 0
 298 -145 367 -77 392 32 c 1
 431 32 l 1
 406 -95 311 -178 185 -178 c 0
EndSplineSet
EndChar

StartChar: Agrave
Encoding: 192 192 6
Width: 627
GlyphClass: 2
Flags: MW
HStem: 0 21G<-13 32 -13 -13 524 524 524 565> 263 33<195 466 195 473 177 466> 659 31<395 395> 736 94<347 397 347 425>
VStem: -13 578<0 0>
LayerCount: 2
Fore
SplineSet
397 736 m 1
 347 830 l 1
 386 830 l 1
 425 736 l 1
 397 736 l 1
473 263 m 1
 177 263 l 1
 32 0 l 1
 -13 0 l 1
 372 690 l 1
 427 690 l 1
 565 0 l 1
 524 0 l 1
 473 263 l 1
466 296 m 1
 395 659 l 1
 195 296 l 1
 466 296 l 1
EndSplineSet
Position2: "'cpsp' Capital Spacing in Latin lookup 0 subtable" dx=5 dy=0 dh=10 dv=0
EndChar

StartChar: Atilde
Encoding: 195 195 10
Width: 627
GlyphClass: 2
Flags: MW
HStem: 0 21G<-13 32 -13 -13 524 524 524 565> 263 33<195 466 195 473 177 466> 659 31<395 395> 757 29<466.5 476 466.5 482> 781 29<361 370.5>
VStem: 322 24<761 761> 490 24<806 806>
LayerCount: 2
Fore
SplineSet
366 781 m 0xee
 356 781 349 776 346 761 c 1
 322 761 l 1
 325 795 341 810 367 810 c 0xee
 384 810 401 806 426 797 c 0
 449 789 462 786 471 786 c 0
 481 786 488 791 490 806 c 1
 514 806 l 1
 511 772 495 757 469 757 c 0xf6
 452 757 436 761 410 770 c 0
 388 778 375 781 366 781 c 0xee
473 263 m 1
 177 263 l 1
 32 0 l 1
 -13 0 l 1
 372 690 l 1
 427 690 l 1
 565 0 l 1
 524 0 l 1
 473 263 l 1
466 296 m 1
 395 659 l 1
 195 296 l 1
 466 296 l 1
EndSplineSet
Position2: "'cpsp' Capital Spacing in Latin lookup 0 subtable" dx=5 dy=0 dh=10 dv=0
EndChar

StartChar: Adieresis
Encoding: 196 196 5
Width: 627
GlyphClass: 2
Flags: MW
HStem: 0 21G<-13 32 -13 -13 524 524 524 565> 263 33<195 466 195 473 177 466> 659 31<395 395> 757 53<371.5 377 459 465>
VStem: 348 53<779.5 786.5> 435 54<779.5 786.5>
LayerCount: 2
Fore
SplineSet
369 757 m 0
 356 757 348 766 348 778 c 0
 348 795 364 810 379 810 c 0
 393 810 401 800 401 788 c 0
 401 771 385 757 369 757 c 0
457 757 m 0
 444 757 435 766 435 778 c 0
 435 795 451 810 467 810 c 0
 480 810 489 800 489 788 c 0
 489 771 473 757 457 757 c 0
473 263 m 1
 177 263 l 1
 32 0 l 1
 -13 0 l 1
 372 690 l 1
 427 690 l 1
 565 0 l 1
 524 0 l 1
 473 263 l 1
466 296 m 1
 395 659 l 1
 195 296 l 1
 466 296 l 1
EndSplineSet
Position2: "'cpsp' Capital Spacing in Latin lookup 0 subtable" dx=5 dy=0 dh=10 dv=0
EndChar

StartChar: Aring
Encoding: 197 197 9
Width: 627
GlyphClass: 2
Flags: MW
HStem: 0 21G<-13 32 -13 -13 524 524 524 565> 263 33<195 466 195 473 177 466> 659 31<395 395> 721 24<401 426 401 429> 827 25<412.5 437>
VStem: 348 31<768.5 791 768.5 798> 460 30<781 804>
LayerCount: 2
Fore
SplineSet
408 721 m 0
 373 721 348 741 348 774 c 0
 348 822 389 852 430 852 c 0
 465 852 490 831 490 798 c 0
 490 750 450 721 408 721 c 0
426 827 m 0
 399 827 379 805 379 777 c 0
 379 760 390 745 412 745 c 0
 440 745 460 767 460 795 c 0
 460 813 448 827 426 827 c 0
473 263 m 1
 177 263 l 1
 32 0 l 1
 -13 0 l 1
 372 690 l 1
 427 690 l 1
 565 0 l 1
 524 0 l 1
 473 263 l 1
466 296 m 1
 395 659 l 1
 195 296 l 1
 466 296 l 1
EndSplineSet
Position2: "'cpsp' Capital Spacing in Latin lookup 0 subtable" dx=5 dy=0 dh=10 dv=0
EndChar

StartChar: AE
Encoding: 198 198 11
Width: 935
GlyphClass: 2
Flags: MW
HStem: 0 33<486 855> 263 33<244 479 217 484> 329 32<529 880 524 886> 653 37<530 530> 658 32<567 567 567 960>
VStem: -43 1010<0 690>
LayerCount: 2
Fore
SplineSet
567 658 m 1xec
 529 361 l 1
 886 361 l 1
 880 329 l 1
 524 329 l 1
 486 33 l 1
 861 33 l 1
 855 0 l 1
 445 0 l 1
 479 263 l 1
 217 263 l 1
 6 0 l 1
 -43 0 l 1
 515 690 l 1
 967 690 l 1
 960 658 l 1
 567 658 l 1xec
530 653 m 1xf4
 244 296 l 1
 484 296 l 1
 530 653 l 1xf4
EndSplineSet
Position2: "'cpsp' Capital Spacing in Latin lookup 0 subtable" dx=5 dy=0 dh=10 dv=0
EndChar

StartChar: Ccedilla
Encoding: 199 199 16
Width: 700
GlyphClass: 2
Flags: MW
HStem: -210 26<202.5 239 202.5 241> -71 23 -14 33<308 392 260.5 399> -8 21G<254 254> 671 33<354.5 502.5>
VStem: 65 42 296 32<-140.5 -104> 643 38<471 481 471 542.5>
AnchorPoint: "Anchor-0" 271 0 basechar 0
LayerCount: 2
Fore
SplineSet
446 704 m 0xaf
 603 704 684 607 681 481 c 1
 681 471 l 1
 643 471 l 1
 643 481 l 2
 643 604 568 671 437 671 c 0
 272 671 107 523 107 273 c 0
 107 102 199 19 322 19 c 0
 462 19 549 106 594 218 c 2
 598 228 l 1
 636 228 l 1
 632 218 l 1
 584 89 484 -14 314 -14 c 0
 302 -14 291 -13 280 -12 c 1xaf
 255 -48 l 1
 300 -53 328 -78 328 -120 c 0
 328 -181 275 -210 207 -210 c 0
 188 -210 171 -208 156 -203 c 1
 161 -177 l 1
 177 -183 193 -184 212 -184 c 0
 266 -184 296 -159 296 -122 c 0
 296 -86 268 -67 208 -71 c 1
 254 -8 l 1xdf
 136 17 64 118 65 270 c 1
 64 532 239 704 446 704 c 0xaf
EndSplineSet
Position2: "'cpsp' Capital Spacing in Latin lookup 0 subtable" dx=5 dy=0 dh=10 dv=0
EndChar

StartChar: Eacute
Encoding: 201 201 23
Width: 551
GlyphClass: 2
Flags: MW
HStem: 0 33<78 471> 329 32<136 496 130 502> 658 32<188 188 188 576> 658 172<421 462 421 576>
VStem: 34 549
AnchorPoint: "Anchor-0" 231 0 basechar 0
LayerCount: 2
Fore
SplineSet
380 736 m 1xd8
 352 736 l 1
 421 830 l 1
 462 830 l 1
 380 736 l 1xd8
188 658 m 1xe8
 136 361 l 1
 502 361 l 1
 496 329 l 1
 130 329 l 1
 78 33 l 1
 477 33 l 1
 471 0 l 1
 34 0 l 1
 156 690 l 1
 583 690 l 1
 576 658 l 1
 188 658 l 1xe8
EndSplineSet
Position2: "'cpsp' Capital Spacing in Latin lookup 0 subtable" dx=5 dy=0 dh=10 dv=0
EndChar

StartChar: Edieresis
Encoding: 203 203 26
Width: 551
GlyphClass: 2
Flags: MW
HStem: 0 33<78 471> 329 32<136 496 130 502> 658 32<188 188 188 576> 658 152<188 345 330.5 345 418 432.5 330.5 576>
VStem: 34 549 307 53<779.5 786.5> 394 54<779.5 786.5>
AnchorPoint: "Anchor-0" 231 0 basechar 0
LayerCount: 2
Fore
SplineSet
328 757 m 0xd6
 315 757 307 766 307 778 c 0
 307 795 323 810 338 810 c 0
 352 810 360 800 360 788 c 0
 360 771 344 757 328 757 c 0xd6
416 757 m 0
 403 757 394 766 394 778 c 0
 394 795 410 810 426 810 c 0
 439 810 448 800 448 788 c 0
 448 771 432 757 416 757 c 0
188 658 m 1xe8
 136 361 l 1
 502 361 l 1
 496 329 l 1
 130 329 l 1
 78 33 l 1
 477 33 l 1
 471 0 l 1
 34 0 l 1
 156 690 l 1
 583 690 l 1
 576 658 l 1
 188 658 l 1xe8
EndSplineSet
Position2: "'cpsp' Capital Spacing in Latin lookup 0 subtable" dx=5 dy=0 dh=10 dv=0
EndChar

StartChar: Igrave
Encoding: 204 204 44
Width: 180
GlyphClass: 2
Flags: MW
HStem: 0 21G<34 72 34 34> 670 20G<156 194 194 194> 736 94<120 198 120 170>
VStem: 34 164
LayerCount: 2
Fore
SplineSet
198 736 m 1
 170 736 l 1
 120 830 l 1
 159 830 l 1
 198 736 l 1
72 0 m 1
 34 0 l 1
 156 690 l 1
 194 690 l 1
 72 0 l 1
EndSplineSet
Position2: "'cpsp' Capital Spacing in Latin lookup 0 subtable" dx=5 dy=0 dh=10 dv=0
EndChar

StartChar: Iacute
Encoding: 205 205 40
Width: 180
GlyphClass: 2
Flags: MW
HStem: 0 21G<34 72 34 34> 670 20G<156 194 194 194> 736 94<166 276 166 276>
VStem: 34 242
LayerCount: 2
Fore
SplineSet
194 736 m 1
 166 736 l 1
 235 830 l 1
 276 830 l 1
 194 736 l 1
72 0 m 1
 34 0 l 1
 156 690 l 1
 194 690 l 1
 72 0 l 1
EndSplineSet
Position2: "'cpsp' Capital Spacing in Latin lookup 0 subtable" dx=5 dy=0 dh=10 dv=0
EndChar

StartChar: Icircumflex
Encoding: 206 206 41
Width: 180
GlyphClass: 2
Flags: MW
HStem: 0 21G<34 72 34 34> 670 20G<156 194 194 194> 809 21<198 198>
VStem: 34 233
LayerCount: 2
Fore
SplineSet
233 736 m 1
 198 809 l 1
 139 736 l 1
 103 736 l 1
 184 830 l 1
 218 830 l 1
 267 736 l 1
 233 736 l 1
156 690 m 1
 194 690 l 1
 72 0 l 1
 34 0 l 1
 156 690 l 1
EndSplineSet
Position2: "'cpsp' Capital Spacing in Latin lookup 0 subtable" dx=5 dy=0 dh=10 dv=0
EndChar

StartChar: Idieresis
Encoding: 207 207 42
Width: 180
GlyphClass: 2
Flags: MW
HStem: 0 21G<34 72 34 34> 670 20G<156 194 194 194> 757 53<144.5 150 232 238>
VStem: 121 53<779.5 786.5> 208 54<779.5 786.5>
LayerCount: 2
Fore
SplineSet
152 810 m 0
 166 810 174 800 174 788 c 0
 174 771 158 757 142 757 c 0
 129 757 121 766 121 778 c 0
 121 795 137 810 152 810 c 0
240 810 m 0
 253 810 262 800 262 788 c 0
 262 771 246 757 230 757 c 0
 217 757 208 766 208 778 c 0
 208 795 224 810 240 810 c 0
72 0 m 1
 34 0 l 1
 156 690 l 1
 194 690 l 1
 72 0 l 1
EndSplineSet
Position2: "'cpsp' Capital Spacing in Latin lookup 0 subtable" dx=5 dy=0 dh=10 dv=0
EndChar

StartChar: Ntilde
Encoding: 209 209 62
Width: 629
GlyphClass: 2
Flags: MW
HStem: 0 35<490 490 490 522 463 490> 657 33<187 187> 757 29<464.5 474 464.5 480> 781 29<359 368.5>
VStem: 320 24<761 761> 488 24<806 806>
AnchorPoint: "Anchor-0" 278 0 basechar 0
LayerCount: 2
Fore
SplineSet
364 781 m 0xdc
 354 781 347 776 344 761 c 1
 320 761 l 1
 323 795 339 810 365 810 c 0xdc
 382 810 399 806 424 797 c 0
 447 789 460 786 469 786 c 0
 479 786 486 791 488 806 c 1
 512 806 l 1
 509 772 493 757 467 757 c 0xec
 450 757 434 761 408 770 c 0
 386 778 373 781 364 781 c 0xdc
644 690 m 1
 522 0 l 1
 463 0 l 1
 187 657 l 1
 72 0 l 1
 34 0 l 1
 156 690 l 1
 214 690 l 1
 490 35 l 1
 606 690 l 1
 644 690 l 1
EndSplineSet
Position2: "'cpsp' Capital Spacing in Latin lookup 0 subtable" dx=5 dy=0 dh=10 dv=0
EndChar

StartChar: Ocircumflex
Encoding: 212 212 65
Width: 744
GlyphClass: 2
Flags: MW
HStem: -14 33<277 451 277 461.5> 671 33<332 505.5> 809 21<470 470>
VStem: 66 41<203.5 378.5 203.5 386.5> 676 41<312 487>
LayerCount: 2
Fore
SplineSet
411 736 m 1
 375 736 l 1
 456 830 l 1
 490 830 l 1
 539 736 l 1
 505 736 l 1
 470 809 l 1
 411 736 l 1
445 704 m 0
 608 704 717 584 717 404 c 0
 717 204 585 -14 338 -14 c 0
 175 -14 66 106 66 287 c 0
 66 486 197 704 445 704 c 0
345 19 m 0
 557 19 676 220 676 404 c 0
 676 570 573 671 438 671 c 0
 226 671 107 470 107 287 c 0
 107 120 209 19 345 19 c 0
EndSplineSet
Position2: "'cpsp' Capital Spacing in Latin lookup 0 subtable" dx=5 dy=0 dh=10 dv=0
EndChar

StartChar: Otilde
Encoding: 213 213 71
Width: 744
GlyphClass: 2
Flags: MW
HStem: -14 33<277 451 277 461.5> 671 33<332 505.5> 757 29<511.5 521 511.5 527> 781 29<406 415.5>
VStem: 66 41<203.5 378.5 203.5 386.5> 367 24<761 761> 535 24<806 806> 676 41<312 487>
LayerCount: 2
Fore
SplineSet
411 781 m 0xdd
 401 781 394 776 391 761 c 1
 367 761 l 1
 370 795 386 810 412 810 c 0xdd
 429 810 446 806 471 797 c 0
 494 789 507 786 516 786 c 0
 526 786 533 791 535 806 c 1
 559 806 l 1
 556 772 540 757 514 757 c 0xef
 497 757 481 761 455 770 c 0
 433 778 420 781 411 781 c 0xdd
445 704 m 0
 608 704 717 584 717 404 c 0
 717 204 585 -14 338 -14 c 0
 175 -14 66 106 66 287 c 0
 66 486 197 704 445 704 c 0
345 19 m 0
 557 19 676 220 676 404 c 0
 676 570 573 671 438 671 c 0
 226 671 107 470 107 287 c 0
 107 120 209 19 345 19 c 0
EndSplineSet
Position2: "'cpsp' Capital Spacing in Latin lookup 0 subtable" dx=5 dy=0 dh=10 dv=0
EndChar

StartChar: Odieresis
Encoding: 214 214 66
Width: 744
GlyphClass: 2
Flags: MW
HStem: -14 33<277 451 277 461.5> 671 33<332 505.5> 757 53<416.5 422 504 510>
VStem: 66 41<203.5 378.5 203.5 386.5> 393 53<779.5 786.5> 480 54<779.5 786.5> 676 41<312 487>
LayerCount: 2
Fore
SplineSet
414 757 m 0
 401 757 393 766 393 778 c 0
 393 795 409 810 424 810 c 0
 438 810 446 800 446 788 c 0
 446 771 430 757 414 757 c 0
502 757 m 0
 489 757 480 766 480 778 c 0
 480 795 496 810 512 810 c 0
 525 810 534 800 534 788 c 0
 534 771 518 757 502 757 c 0
445 704 m 0
 608 704 717 584 717 404 c 0
 717 204 585 -14 338 -14 c 0
 175 -14 66 106 66 287 c 0
 66 486 197 704 445 704 c 0
345 19 m 0
 557 19 676 220 676 404 c 0
 676 570 573 671 438 671 c 0
 226 671 107 470 107 287 c 0
 107 120 209 19 345 19 c 0
EndSplineSet
Position2: "'cpsp' Capital Spacing in Latin lookup 0 subtable" dx=5 dy=0 dh=10 dv=0
EndChar

StartChar: multiply
Encoding: 215 215 302
Width: 543
Flags: MW
HStem: 143 341
VStem: 78 394<167 460>
LayerCount: 2
Fore
SplineSet
298 312 m 1
 419 166 l 1
 394 144 l 1
 273 291 l 1
 99 143 l 1
 78 167 l 1
 253 316 l 1
 133 461 l 1
 158 483 l 1
 278 337 l 1
 451 484 l 1
 472 460 l 1
 298 312 l 1
EndSplineSet
EndChar

StartChar: Oslash
Encoding: 216 216 70
Width: 738
GlyphClass: 2
Flags: MW
HStem: -14 33<302.5 449 302.5 460> 671 33<330 476.5>
VStem: 64 41<260.5 378.5 260.5 386.5> 674 41<312 431>
LayerCount: 2
Fore
SplineSet
762 643 m 1
 676 570 l 1
 701 524 715 468 715 404 c 0
 715 204 584 -14 336 -14 c 0
 241 -14 165 26 118 96 c 1
 33 24 l 1
 14 47 l 1
 102 122 l 1
 77 168 64 224 64 287 c 0
 64 486 196 704 443 704 c 0
 537 704 613 664 660 596 c 1
 743 666 l 1
 762 643 l 1
105 287 m 0
 105 234 115 187 134 149 c 1
 629 569 l 1
 587 635 517 671 436 671 c 0
 224 671 105 470 105 287 c 0
674 404 m 0
 674 458 664 504 645 543 c 1
 149 122 l 1
 192 56 262 19 343 19 c 0
 555 19 674 220 674 404 c 0
EndSplineSet
Position2: "'cpsp' Capital Spacing in Latin lookup 0 subtable" dx=5 dy=0 dh=10 dv=0
EndChar

StartChar: Uacute
Encoding: 218 218 91
Width: 621
GlyphClass: 2
Flags: MW
HStem: -14 33<224.5 346 224.5 353> 670 20G<166 204 204 204 591 629 629 629> 736 94<389 499 389 499>
VStem: 79 38<118.5 170.5>
LayerCount: 2
Fore
SplineSet
417 736 m 1
 389 736 l 1
 458 830 l 1
 499 830 l 1
 417 736 l 1
629 690 m 1
 550 243 l 2
 546 221 541 198 536 177 c 0
 508 65 429 -14 277 -14 c 0
 147 -14 79 54 79 155 c 0
 79 186 82 212 87 245 c 2
 166 690 l 1
 204 690 l 1
 126 244 l 2
 120 211 117 185 117 157 c 0
 117 80 166 19 283 19 c 0
 409 19 475 86 500 184 c 0
 505 204 508 220 513 246 c 2
 591 690 l 1
 629 690 l 1
EndSplineSet
Position2: "'cpsp' Capital Spacing in Latin lookup 0 subtable" dx=5 dy=0 dh=10 dv=0
EndChar

StartChar: Udieresis
Encoding: 220 220 93
Width: 621
GlyphClass: 2
Flags: MW
HStem: -14 33<224.5 346 224.5 353> 670 20G<166 204 204 204 591 629 629 629> 757 53<367.5 373 455 461>
VStem: 79 38<118.5 170.5> 344 53<779.5 786.5> 431 54<779.5 786.5>
LayerCount: 2
Fore
SplineSet
375 810 m 0
 389 810 397 800 397 788 c 0
 397 771 381 757 365 757 c 0
 352 757 344 766 344 778 c 0
 344 795 360 810 375 810 c 0
463 810 m 0
 476 810 485 800 485 788 c 0
 485 771 469 757 453 757 c 0
 440 757 431 766 431 778 c 0
 431 795 447 810 463 810 c 0
629 690 m 1
 550 243 l 2
 546 221 541 198 536 177 c 0
 508 65 429 -14 277 -14 c 0
 147 -14 79 54 79 155 c 0
 79 186 82 212 87 245 c 2
 166 690 l 1
 204 690 l 1
 126 244 l 2
 120 211 117 185 117 157 c 0
 117 80 166 19 283 19 c 0
 409 19 475 86 500 184 c 0
 505 204 508 220 513 246 c 2
 591 690 l 1
 629 690 l 1
EndSplineSet
Position2: "'cpsp' Capital Spacing in Latin lookup 0 subtable" dx=5 dy=0 dh=10 dv=0
EndChar

StartChar: Yacute
Encoding: 221 221 107
Width: 554
GlyphClass: 2
Flags: MW
HStem: 0 21G<220 258 220 220> 670 20G<97 138 138 138 579 626 626 626> 736 94<352 462 352 462>
VStem: 97 529<690 690>
LayerCount: 2
Fore
SplineSet
380 736 m 1
 352 736 l 1
 421 830 l 1
 462 830 l 1
 380 736 l 1
305 269 m 1
 258 0 l 1
 220 0 l 1
 268 273 l 1
 97 690 l 1
 138 690 l 1
 293 309 l 1
 579 690 l 1
 626 690 l 1
 305 269 l 1
EndSplineSet
Position2: "'cpsp' Capital Spacing in Latin lookup 0 subtable" dx=5 dy=0 dh=10 dv=0
EndChar

StartChar: Thorn
Encoding: 222 222 74
Width: 555
GlyphClass: 2
Flags: MW
HStem: 0 21G<34 72 34 34> 210 34<115 241 109 247> 546 34<175 300 168 306> 546 144<168 194 156 300 168 168>
VStem: 501 43<432 466>
LayerCount: 2
Fore
SplineSet
402 575 m 0xe8
 483 564 544 523 544 438 c 0
 544 426 542 413 540 399 c 0
 520 285 435 227 338 215 c 0
 306 211 276 210 241 210 c 2
 109 210 l 1
 72 0 l 1
 34 0 l 1
 156 690 l 1
 194 690 l 1xd8
 175 580 l 1
 306 580 l 2
 341 580 371 579 402 575 c 0xe8
499 399 m 0
 501 410 501 421 501 431 c 0
 501 501 454 532 389 541 c 0
 361 545 335 546 300 546 c 2
 168 546 l 1
 115 244 l 1
 247 244 l 2
 282 244 309 245 338 249 c 0
 416 259 482 302 499 399 c 0
EndSplineSet
Position2: "'cpsp' Capital Spacing in Latin lookup 0 subtable" dx=5 dy=0 dh=10 dv=0
EndChar

StartChar: germandbls
Encoding: 223 223 199
Width: 525
GlyphClass: 2
Flags: MW
HStem: -4 32<272 343.5 272 354.5> 0 21G<26 64 26 26> 721 33<291 400.5>
VStem: 333 40<360 399 360 403> 447 41<125.5 169.5> 486 40<593.5 646>
LayerCount: 2
Fore
SplineSet
366 754 m 0xb4
 462 754 526 699 526 614 c 0xb4
 526 572 516 529 477 484 c 1
 405 451 373 423 373 375 c 0
 373 345 385 325 417 291 c 0
 463 242 488 203 488 155 c 0
 488 82 427 -4 282 -4 c 0
 249 -4 217 -1 179 8 c 1
 185 41 l 1
 224 31 257 28 287 28 c 0
 400 28 447 98 447 153 c 0xb8
 447 186 432 218 387 267 c 0
 347 311 333 338 333 373 c 0
 333 433 369 469 450 508 c 1
 477 543 486 574 486 613 c 0
 486 679 439 721 362 721 c 0
 220 721 170 600 151 491 c 2
 64 0 l 1
 26 0 l 1x74
 112 488 l 2
 135 618 195 754 366 754 c 0xb4
EndSplineSet
EndChar

StartChar: aacute
Encoding: 225 225 116
Width: 498
GlyphClass: 2
Flags: MW
HStem: -14 32<146.5 200> 0 21G<361 400 361 361> 279.1 30.4 509 32<267 348.5> 580 110<308 429 308 429> 670 20G<388 429 429 429>
VStem: 26 40<85 175 85 193> 367.5 32.5 420 39<404 437>
LayerCount: 2
Fore
SplineSet
336 580 m 1xba80
 308 580 l 1
 388 690 l 1
 429 690 l 1
 336 580 l 1xba80
310 541 m 0
 412 541 459 488 459 413 c 0
 459 395 457 371 450 336 c 2xb680
 419 161 l 2
 410 106 405 67 400 0 c 1
 361 0 l 1x7780
 374 116 l 1
 341 65 l 1xb780
 296 12 234 -14 166 -14 c 0
 91 -14 26 27 26 114 c 0
 26 272 209 322 406 307 c 1
 411 334 l 2
 418 368 420 389 420 406 c 0
 420 468 390 509 307 509 c 0
 227 509 156 470 129 378 c 1
 90 378 l 1
 112 472 197 541 310 541 c 0
389 207 m 2
 401 276 l 1
 200 294 66 233 66 117 c 0
 66 53 112 18 181 18 c 0
 283 18 372 108 389 207 c 2
EndSplineSet
EndChar

StartChar: adieresis
Encoding: 228 228 119
Width: 498
GlyphClass: 2
Flags: MW
HStem: -14 32<146.5 200> 0 21G<361 400 361 361> 279.1 30.4 509 32<267 348.5> 606 53<283 289 379.5 385>
VStem: 26 40<85 175 85 193> 259 54<628.5 635.5> 356 53<628.5 635.5> 367.5 32.5 420 39<404 437>
LayerCount: 2
Fore
SplineSet
281 606 m 0xbe40
 268 606 259 615 259 627 c 0
 259 644 275 659 291 659 c 0
 304 659 313 649 313 637 c 0
 313 620 297 606 281 606 c 0xbe40
377 606 m 0xbf40
 364 606 356 615 356 627 c 0
 356 644 372 659 387 659 c 0
 401 659 409 649 409 637 c 0
 409 620 393 606 377 606 c 0xbf40
310 541 m 0xbe40
 412 541 459 488 459 413 c 0
 459 395 457 371 450 336 c 2xbe40
 419 161 l 2
 410 106 405 67 400 0 c 1
 361 0 l 1x7ec0
 374 116 l 1
 341 65 l 1xbec0
 296 12 234 -14 166 -14 c 0
 91 -14 26 27 26 114 c 0
 26 272 209 322 406 307 c 1
 411 334 l 2
 418 368 420 389 420 406 c 0
 420 468 390 509 307 509 c 0
 227 509 156 470 129 378 c 1
 90 378 l 1
 112 472 197 541 310 541 c 0xbe40
389 207 m 2
 401 276 l 1
 200 294 66 233 66 117 c 0
 66 53 112 18 181 18 c 0
 283 18 372 108 389 207 c 2
EndSplineSet
EndChar

StartChar: ae
Encoding: 230 230 125
Width: 921
GlyphClass: 2
Flags: MW
HStem: -14 32<150 216.5 566.5 649.5> 253 33<421 421 465 845> 512 32<271.5 354 661.5 765>
VStem: 23 43<82.5 160 82.5 163.5> 421 34<143 143> 438 39 849.34 40.66
LayerCount: 2
Fore
SplineSet
879 253 m 1xfa
 460 253 l 1
 456 232 455 211 455 193 c 0
 455 68 523 18 610 18 c 0
 689 18 774 64 817 164 c 1
 856 164 l 1
 806 45 704 -14 602 -14 c 0
 485 -14 431 58 421 143 c 1
 387 84 l 1xfa
 325 15 259 -14 174 -14 c 0
 92 -14 23 24 23 103 c 0
 23 224 149 286 393 286 c 2
 427 286 l 1
 436 336 438 359 438 379 c 0
 438 464 399 512 309 512 c 0
 234 512 154 473 127 381 c 1
 88 381 l 1
 111 475 204 544 314 544 c 0
 439 544 473 475 477 410 c 1xf6
 527 496 617 544 706 544 c 0
 835 544 890 453 890 343 c 0
 890 313 885 275 879 253 c 1xfa
698 512 m 0
 596 512 498 438 465 286 c 1
 845 286 l 1
 863 398 832 512 698 512 c 0
188 18 m 0
 298 18 394 101 416 224 c 2
 421 253 l 1
 404 254 386 254 369 254 c 0
 183 254 66 209 66 111 c 0
 66 54 112 18 188 18 c 0
EndSplineSet
EndChar

StartChar: ccedilla
Encoding: 231 231 130
Width: 521
GlyphClass: 2
Flags: MW
HStem: -210 26<151.5 188 151.5 190> -71 23 -13 31<199 199> 510 31<238 362>
VStem: 26 40<142.5 287.5 142.5 289> 245 32<-140.5 -104> 461 39<360 360>
AnchorPoint: "Anchor-0" 219 0 basechar 0
LayerCount: 2
Fore
SplineSet
313 510 m 0
 163 510 66 367 66 208 c 0
 66 77 136 18 223 18 c 0
 313 18 388 68 428 160 c 1
 467 160 l 1
 422 49 336 -10 228 -14 c 1
 204 -48 l 1
 249 -53 277 -78 277 -120 c 0
 277 -181 224 -210 156 -210 c 0
 137 -210 120 -208 105 -203 c 1
 110 -177 l 1
 126 -183 142 -184 161 -184 c 0
 215 -184 245 -159 245 -122 c 0
 245 -86 217 -67 157 -71 c 1
 199 -13 l 1
 96 -6 26 72 26 206 c 0
 26 372 129 541 321 541 c 0
 438 541 502 468 500 360 c 1
 461 360 l 1
 460 453 411 510 313 510 c 0
EndSplineSet
EndChar

StartChar: edieresis
Encoding: 235 235 140
Width: 527
GlyphClass: 2
Flags: MW
HStem: -14 32<179.5 260 179.5 263> 253 33<75 454 75 485 69 454> 509 32<240.5 350> 606 53<276 282 372.5 378>
VStem: 24 41<136 211 136 274.5> 252 54<628.5 635.5> 349 53<628.5 635.5> 458 39<332 397.5 327 402.5>
AnchorPoint: "Anchor-0" 213 0 basechar 0
LayerCount: 2
Fore
SplineSet
274 606 m 0
 261 606 252 615 252 627 c 0
 252 644 268 659 284 659 c 0
 297 659 306 649 306 637 c 0
 306 620 290 606 274 606 c 0
370 606 m 0
 357 606 349 615 349 627 c 0
 349 644 365 659 380 659 c 0
 394 659 402 649 402 637 c 0
 402 620 386 606 370 606 c 0
485 253 m 1
 69 253 l 1
 66 235 65 219 65 203 c 0
 65 69 139 18 220 18 c 0
 300 18 380 64 424 164 c 1
 463 164 l 1
 410 39 314 -14 212 -14 c 0
 104 -14 24 59 24 202 c 0
 24 347 119 541 313 541 c 0
 442 541 497 453 497 342 c 0
 497 312 492 275 485 253 c 1
308 509 m 0
 173 509 100 392 75 286 c 1
 454 286 l 1
 457 305 458 323 458 341 c 0
 458 464 392 509 308 509 c 0
EndSplineSet
EndChar

StartChar: igrave
Encoding: 236 236 157
Width: 181
GlyphClass: 2
Flags: MW
HStem: 0 21G<25 63 25 25> 507 20G<118 156 156 156> 580 110<83 164 83 137>
VStem: 25 139
LayerCount: 2
Fore
SplineSet
164 580 m 1
 137 580 l 1
 83 690 l 1
 122 690 l 1
 164 580 l 1
63 0 m 1
 25 0 l 1
 118 527 l 1
 156 527 l 1
 63 0 l 1
EndSplineSet
EndChar

StartChar: iacute
Encoding: 237 237 154
Width: 181
GlyphClass: 2
Flags: MW
HStem: 0 21G<25 63 25 25> 507 20G<118 156 156 156> 580 110<130 251 130 251>
VStem: 25 226
LayerCount: 2
Fore
SplineSet
158 580 m 1
 130 580 l 1
 210 690 l 1
 251 690 l 1
 158 580 l 1
63 0 m 1
 25 0 l 1
 118 527 l 1
 156 527 l 1
 63 0 l 1
EndSplineSet
EndChar

StartChar: icircumflex
Encoding: 238 238 155
Width: 181
GlyphClass: 2
Flags: MW
HStem: 0 21G<25 63 25 25> 507 20G<118 156 156 156> 580 110<66 184 66 184 152 230 152 197> 666 24<164 164>
VStem: 25 205
LayerCount: 2
Fore
SplineSet
197 580 m 1xe8
 164 666 l 1xd8
 100 580 l 1
 66 580 l 1xe8
 152 690 l 1
 184 690 l 1xd8
 230 580 l 1
 197 580 l 1xe8
118 527 m 1
 156 527 l 1
 63 0 l 1
 25 0 l 1
 118 527 l 1
EndSplineSet
EndChar

StartChar: idieresis
Encoding: 239 239 156
Width: 181
GlyphClass: 2
Flags: MW
HStem: 0 21G<25 63 25 25> 507 20G<118 156 156 156> 606 53<105 111 201.5 207>
VStem: 81 54<628.5 635.5> 178 53<628.5 635.5>
LayerCount: 2
Fore
SplineSet
113 659 m 0
 126 659 135 649 135 637 c 0
 135 620 119 606 103 606 c 0
 90 606 81 615 81 627 c 0
 81 644 97 659 113 659 c 0
209 659 m 0
 223 659 231 649 231 637 c 0
 231 620 215 606 199 606 c 0
 186 606 178 615 178 627 c 0
 178 644 194 659 209 659 c 0
63 0 m 1
 25 0 l 1
 118 527 l 1
 156 527 l 1
 63 0 l 1
EndSplineSet
EndChar

StartChar: eth
Encoding: 240 240 133
Width: 555
GlyphClass: 2
Flags: MW
HStem: -14 32<172.5 306 172.5 310.5> 512 32<226 337.5 211 355.5> 725 20G<344 344>
VStem: 24 41<144 267.5 144 269> 462 43<286 403.5>
LayerCount: 2
Fore
SplineSet
534 688 m 1
 457 659 l 1
 489 605 505 523 505 393 c 0
 505 176 411 -14 210 -14 c 0
 93 -14 24 84 24 202 c 0
 24 336 109 544 313 544 c 0
 362 544 402 532 436 503 c 1
 467 447 l 1
 463 534 452 599 423 645 c 1
 260 583 l 1
 251 609 l 1
 406 668 l 1
 384 693 354 711 315 722 c 1
 344 745 l 1
 384 731 416 712 441 682 c 1
 524 714 l 1
 534 688 l 1
216 18 m 0
 396 18 462 218 462 354 c 0
 462 453 400 512 311 512 c 0
 141 512 65 332 65 203 c 0
 65 85 129 18 216 18 c 0
EndSplineSet
EndChar

StartChar: ntilde
Encoding: 241 241 176
Width: 547
GlyphClass: 2
Flags: MW
HStem: 0 21G<26 64 26 26 395 433 395 395> 507 20G<118 156 156 156> 508 33<310 331> 619 28<388.5 398 388.5 404> 643 28<283 292.5>
VStem: 244 24<623 623> 412 24<667 667> 457 40<383 425>
AnchorPoint: "Anchor-0" 225 0 basechar 0
LayerCount: 2
Fore
SplineSet
288 643 m 0xad
 278 643 271 638 268 623 c 1
 244 623 l 1
 247 656 263 671 289 671 c 0xad
 306 671 323 667 348 658 c 0
 371 650 384 647 393 647 c 0
 403 647 410 652 412 667 c 1
 436 667 l 1
 433 634 417 619 391 619 c 0xb7
 374 619 358 623 332 632 c 0
 310 640 297 643 288 643 c 0xad
341 541 m 0
 443 541 497 487 497 399 c 0
 497 367 494 345 485 294 c 2
 433 0 l 1
 395 0 l 1
 445 285 l 2
 453 330 457 362 457 391 c 0
 457 459 420 509 331 508 c 1xad
 234 508 141 441 115 292 c 2
 64 0 l 1
 26 0 l 1
 118 527 l 1
 156 527 l 1xcd
 136 414 l 1
 171 472 l 1
 221 522 279 541 341 541 c 0
EndSplineSet
EndChar

StartChar: ograve
Encoding: 242 242 181
Width: 560
GlyphClass: 2
Flags: MW
HStem: -14 32<193.5 329 193.5 343.5> 509 32<231 366.5> 580 110<272 326 272 353>
VStem: 27 40<154.5 280 154.5 284> 492 41<247 372.5>
LayerCount: 2
Fore
SplineSet
326 580 m 1
 272 690 l 1
 311 690 l 1
 353 580 l 1
 326 580 l 1
319 541 m 0
 463 541 533 439 533 312 c 0
 533 175 446 -14 241 -14 c 0
 96 -14 27 88 27 216 c 0
 27 352 114 541 319 541 c 0
247 18 m 0
 411 18 492 183 492 311 c 0
 492 434 420 509 313 509 c 0
 149 509 67 344 67 216 c 0
 67 93 140 18 247 18 c 0
EndSplineSet
EndChar

StartChar: otilde
Encoding: 245 245 185
Width: 560
GlyphClass: 2
Flags: MW
HStem: -14 32<193.5 329 193.5 343.5> 509 32<231 366.5> 619 28<395.5 405 395.5 411> 643 28<290 299.5>
VStem: 27 40<154.5 280 154.5 284> 251 24<623 623> 419 24<667 667> 492 41<247 372.5>
LayerCount: 2
Fore
SplineSet
295 643 m 0xdd
 285 643 278 638 275 623 c 1
 251 623 l 1
 254 656 270 671 296 671 c 0xdd
 313 671 330 667 355 658 c 0
 378 650 391 647 400 647 c 0
 410 647 417 652 419 667 c 1
 443 667 l 1
 440 634 424 619 398 619 c 0xef
 381 619 365 623 339 632 c 0
 317 640 304 643 295 643 c 0xdd
319 541 m 0
 463 541 533 439 533 312 c 0
 533 175 446 -14 241 -14 c 0
 96 -14 27 88 27 216 c 0
 27 352 114 541 319 541 c 0
247 18 m 0
 411 18 492 183 492 311 c 0
 492 434 420 509 313 509 c 0
 149 509 67 344 67 216 c 0
 67 93 140 18 247 18 c 0
EndSplineSet
EndChar

StartChar: odieresis
Encoding: 246 246 180
Width: 560
GlyphClass: 2
Flags: MW
HStem: -14 32<193.5 329 193.5 343.5> 509 32<231 366.5> 606 53<294 300 390.5 396>
VStem: 27 40<154.5 280 154.5 284> 270 54<628.5 635.5> 367 53<628.5 635.5> 492 41<247 372.5>
LayerCount: 2
Fore
SplineSet
292 606 m 0
 279 606 270 615 270 627 c 0
 270 644 286 659 302 659 c 0
 315 659 324 649 324 637 c 0
 324 620 308 606 292 606 c 0
388 606 m 0
 375 606 367 615 367 627 c 0
 367 644 383 659 398 659 c 0
 412 659 420 649 420 637 c 0
 420 620 404 606 388 606 c 0
319 541 m 0
 463 541 533 439 533 312 c 0
 533 175 446 -14 241 -14 c 0
 96 -14 27 88 27 216 c 0
 27 352 114 541 319 541 c 0
247 18 m 0
 411 18 492 183 492 311 c 0
 492 434 420 509 313 509 c 0
 149 509 67 344 67 216 c 0
 67 93 140 18 247 18 c 0
EndSplineSet
EndChar

StartChar: divide
Encoding: 247 247 291
Width: 543
Flags: MW
HStem: 127 67<244 253.5> 303 30<77 476 71 482> 440 67<300 309.5>
VStem: 215 68<155 165> 270 69<469.5 479>
LayerCount: 2
Fore
SplineSet
310 507 m 0x68
 327 507 339 496 339 481 c 0
 339 458 320 440 299 440 c 0
 281 440 270 451 270 468 c 0
 270 490 290 507 310 507 c 0x68
476 303 m 1
 71 303 l 1
 77 333 l 1
 482 333 l 1
 476 303 l 1
255 194 m 0xd0
 273 194 283 183 283 166 c 0
 283 144 264 127 243 127 c 0
 227 127 215 138 215 154 c 0
 215 176 233 194 255 194 c 0xd0
EndSplineSet
EndChar

StartChar: oslash
Encoding: 248 248 184
Width: 615
GlyphClass: 2
Flags: MW
HStem: -14 32<229.5 343 229.5 357.5> -9 21G<-18 -1> 509 32<245.5 360.5> 519 20G<602 602>
VStem: 41 41<196.5 280 196.5 284> 507 41<247 329.5>
LayerCount: 2
Fore
SplineSet
619 518 m 1x9c
 521 435 l 1
 539 399 548 357 548 312 c 0
 548 175 460 -14 255 -14 c 0
 177 -14 120 16 85 64 c 1x9c
 -1 -9 l 1
 -18 12 l 1
 71 87 l 1
 51 124 41 168 41 216 c 0
 41 352 129 541 333 541 c 0
 414 541 472 509 507 458 c 1
 602 539 l 1x6c
 619 518 l 1x9c
82 216 m 0
 82 177 89 143 102 114 c 1
 476 432 l 1
 445 481 393 509 328 509 c 0xac
 163 509 82 344 82 216 c 0
507 311 m 0
 507 348 501 380 489 407 c 1
 116 90 l 1
 147 44 198 18 261 18 c 0
 425 18 507 183 507 311 c 0
EndSplineSet
EndChar

StartChar: uacute
Encoding: 250 250 206
Width: 542
GlyphClass: 2
Flags: MW
HStem: -14 33<212 233> 0 21G<387 425 387 387> 507 20G<111 149 149 149 479 517 517 517> 580 110<299 420 299 420> 670 20G<379 420 420 420>
VStem: 47 39<102 144.5>
LayerCount: 2
Fore
SplineSet
327 580 m 1xb4
 299 580 l 1
 379 690 l 1
 420 690 l 1
 327 580 l 1xb4
517 527 m 1
 425 0 l 1
 387 0 l 1x6c
 407 113 l 1
 372 56 l 1
 322 6 264 -14 202 -14 c 0
 100 -14 47 41 47 128 c 0
 47 161 49 182 58 234 c 2
 111 527 l 1
 149 527 l 1
 98 242 l 2
 90 198 86 166 86 136 c 0
 86 68 123 18 212 19 c 1
 309 19 402 86 429 235 c 1
 479 527 l 1
 517 527 l 1
EndSplineSet
EndChar

StartChar: ucircumflex
Encoding: 251 251 207
Width: 542
GlyphClass: 2
Flags: MW
HStem: -14 33<212 233> 0 21G<387 425 387 387> 507 20G<111 149 149 149 479 517 517 517> 580 110<235 353 235 353 321 366 321 399> 666 24<333 333>
VStem: 47 39<102 144.5>
LayerCount: 2
Fore
SplineSet
269 580 m 1xb4
 235 580 l 1xb4
 321 690 l 1
 353 690 l 1xac
 399 580 l 1
 366 580 l 1xb4
 333 666 l 1xac
 269 580 l 1xb4
517 527 m 1
 425 0 l 1
 387 0 l 1x6c
 407 113 l 1
 372 56 l 1
 322 6 264 -14 202 -14 c 0
 100 -14 47 41 47 128 c 0
 47 161 49 182 58 234 c 2
 111 527 l 1
 149 527 l 1
 98 242 l 2
 90 198 86 166 86 136 c 0
 86 68 123 18 212 19 c 1
 309 19 402 86 429 235 c 1
 479 527 l 1
 517 527 l 1
EndSplineSet
EndChar

StartChar: udieresis
Encoding: 252 252 208
Width: 542
GlyphClass: 2
Flags: MW
HStem: -14 33<212 233> 0 21G<387 425 387 387> 507 20G<111 149 149 149 479 517 517 517> 606 53<274 280 370.5 376>
VStem: 47 39<102 144.5> 250 54<628.5 635.5> 347 53<628.5 635.5>
LayerCount: 2
Fore
SplineSet
272 606 m 0xbe
 259 606 250 615 250 627 c 0
 250 644 266 659 282 659 c 0
 295 659 304 649 304 637 c 0
 304 620 288 606 272 606 c 0xbe
368 606 m 0
 355 606 347 615 347 627 c 0
 347 644 363 659 378 659 c 0
 392 659 400 649 400 637 c 0
 400 620 384 606 368 606 c 0
517 527 m 1
 425 0 l 1
 387 0 l 1x7e
 407 113 l 1
 372 56 l 1
 322 6 264 -14 202 -14 c 0
 100 -14 47 41 47 128 c 0
 47 161 49 182 58 234 c 2
 111 527 l 1
 149 527 l 1
 98 242 l 2
 90 198 86 166 86 136 c 0
 86 68 123 18 212 19 c 1
 309 19 402 86 429 235 c 1
 479 527 l 1
 517 527 l 1
EndSplineSet
EndChar

StartChar: yacute
Encoding: 253 253 222
Width: 478
GlyphClass: 2
Flags: MW
HStem: -210 33<-9.5 20.5 -9.5 28> 507 20G<51 93 93 93 469 513 513 513> 580 110<269 390 269 390>
VStem: -41 554
LayerCount: 2
Fore
SplineSet
297 580 m 1
 269 580 l 1
 349 690 l 1
 390 690 l 1
 297 580 l 1
513 527 m 1
 213 0 l 2
 112 -179 63 -210 -7 -210 c 0
 -18 -210 -30 -209 -41 -206 c 1
 -35 -174 l 1
 -23 -177 -14 -177 -5 -177 c 0
 46 -177 87 -146 152 -34 c 1
 165 -11 l 1
 51 527 l 1
 93 527 l 1
 193 31 l 1
 469 527 l 1
 513 527 l 1
EndSplineSet
EndChar

StartChar: thorn
Encoding: 254 254 188
Width: 564
GlyphClass: 2
Flags: MW
HStem: -14 32<209 330.5 185 343> 509 32<316 391.5> 715 20G<157 195 195 195>
VStem: 84 16.2 498 41<252 378.5>
LayerCount: 2
Fore
SplineSet
350 541 m 0
 470 541 539 451 539 327 c 0
 539 165 446 -14 240 -14 c 0
 178 -14 134 6 103 48 c 1
 84 112 l 1
 29 -196 l 1
 -9 -196 l 1
 157 735 l 1
 195 735 l 1
 138 418 l 1
 179 475 l 1
 230 523 282 541 350 541 c 0
245 18 m 0
 416 18 498 178 498 326 c 0
 498 431 443 509 340 509 c 0
 240 509 144 451 114 284 c 1
 105 232 l 2
 85 114 125 18 245 18 c 0
EndSplineSet
EndChar

StartChar: ydieresis
Encoding: 255 255 224
Width: 478
GlyphClass: 2
Flags: MW
HStem: -210 33<-9.5 20.5 -9.5 28> 507 20G<51 93 93 93 469 513 513 513> 606 53<244 250 340.5 346>
VStem: 220 54<628.5 635.5> 317 53<628.5 635.5>
LayerCount: 2
Fore
SplineSet
242 606 m 0
 229 606 220 615 220 627 c 0
 220 644 236 659 252 659 c 0
 265 659 274 649 274 637 c 0
 274 620 258 606 242 606 c 0
338 606 m 0
 325 606 317 615 317 627 c 0
 317 644 333 659 348 659 c 0
 362 659 370 649 370 637 c 0
 370 620 354 606 338 606 c 0
513 527 m 1
 213 0 l 2
 112 -179 63 -210 -7 -210 c 0
 -18 -210 -30 -209 -41 -206 c 1
 -35 -174 l 1
 -23 -177 -14 -177 -5 -177 c 0
 46 -177 87 -146 152 -34 c 1
 165 -11 l 1
 51 527 l 1
 93 527 l 1
 193 31 l 1
 469 527 l 1
 513 527 l 1
EndSplineSet
EndChar

StartChar: Amacron
Encoding: 256 256 7
Width: 627
GlyphClass: 2
Flags: MW
HStem: 0 21G<-13 32 -13 -13 524 524 524 565> 263 33<195 466 195 473 177 466> 659 31<395 395> 768 29<338 498 333 503>
VStem: -13 578<0 0>
LayerCount: 2
Fore
SplineSet
498 768 m 1
 333 768 l 1
 338 797 l 1
 503 797 l 1
 498 768 l 1
473 263 m 1
 177 263 l 1
 32 0 l 1
 -13 0 l 1
 372 690 l 1
 427 690 l 1
 565 0 l 1
 524 0 l 1
 473 263 l 1
466 296 m 1
 395 659 l 1
 195 296 l 1
 466 296 l 1
EndSplineSet
Position2: "'cpsp' Capital Spacing in Latin lookup 0 subtable" dx=5 dy=0 dh=10 dv=0
EndChar

StartChar: amacron
Encoding: 257 257 121
Width: 498
GlyphClass: 2
Flags: MW
HStem: -14 32<146.5 200> 0 21G<361 400 361 361> 279.1 30.4 509 32<267 348.5> 616 29<254 414 249 419>
VStem: 26 40<85 175 85 193> 367.5 32.5 420 39<404 437>
LayerCount: 2
Fore
SplineSet
414 616 m 1xbd
 249 616 l 1
 254 645 l 1
 419 645 l 1
 414 616 l 1xbd
310 541 m 0
 412 541 459 488 459 413 c 0
 459 395 457 371 450 336 c 2xbd
 419 161 l 2
 410 106 405 67 400 0 c 1
 361 0 l 1x7f
 374 116 l 1
 341 65 l 1xbf
 296 12 234 -14 166 -14 c 0
 91 -14 26 27 26 114 c 0
 26 272 209 322 406 307 c 1
 411 334 l 2
 418 368 420 389 420 406 c 0
 420 468 390 509 307 509 c 0
 227 509 156 470 129 378 c 1
 90 378 l 1
 112 472 197 541 310 541 c 0
389 207 m 2
 401 276 l 1
 200 294 66 233 66 117 c 0
 66 53 112 18 181 18 c 0
 283 18 372 108 389 207 c 2
EndSplineSet
EndChar

StartChar: Abreve
Encoding: 258 258 3
Width: 627
GlyphClass: 2
Flags: MW
HStem: 0 21G<-13 32 -13 -13 524 524 524 565> 263 33<195 466 195 473 177 466> 659 31<395 395> 722 30<395 431 395 436.5>
VStem: 334 27<830 830>
LayerCount: 2
Fore
SplineSet
406 722 m 0
 352 722 324 760 334 830 c 1
 361 830 l 1
 354 767 378 752 412 752 c 0
 450 752 481 775 494 830 c 1
 521 830 l 1
 506 758 467 722 406 722 c 0
473 263 m 1
 177 263 l 1
 32 0 l 1
 -13 0 l 1
 372 690 l 1
 427 690 l 1
 565 0 l 1
 524 0 l 1
 473 263 l 1
466 296 m 1
 395 659 l 1
 195 296 l 1
 466 296 l 1
EndSplineSet
Position2: "'cpsp' Capital Spacing in Latin lookup 0 subtable" dx=5 dy=0 dh=10 dv=0
EndChar

StartChar: abreve
Encoding: 259 259 117
Width: 498
GlyphClass: 2
Flags: MW
HStem: -14 32<146.5 200> 0 21G<361 400 361 361> 279.1 30.4 509 32<267 348.5> 569 30<307.5 349.5 307.5 354> 670 20G<251 278 278 278 411 438 438 438>
VStem: 26 40<85 175 85 193> 248.26 29.74 367.5 32.5 420 39<404 437>
LayerCount: 2
Fore
SplineSet
323 569 m 0xbf40
 258 569 240 618 251 690 c 1
 278 690 l 1
 270 626 286 599 329 599 c 0
 370 599 398 631 411 690 c 1
 438 690 l 1
 423 615 385 569 323 569 c 0xbf40
310 541 m 0xb740
 412 541 459 488 459 413 c 0
 459 395 457 371 450 336 c 2xb740
 419 161 l 2
 410 106 405 67 400 0 c 1
 361 0 l 1x77c0
 374 116 l 1
 341 65 l 1xb7c0
 296 12 234 -14 166 -14 c 0
 91 -14 26 27 26 114 c 0
 26 272 209 322 406 307 c 1
 411 334 l 2
 418 368 420 389 420 406 c 0
 420 468 390 509 307 509 c 0
 227 509 156 470 129 378 c 1
 90 378 l 1
 112 472 197 541 310 541 c 0xb740
389 207 m 2
 401 276 l 1
 200 294 66 233 66 117 c 0
 66 53 112 18 181 18 c 0
 283 18 372 108 389 207 c 2
EndSplineSet
EndChar

StartChar: Aogonek
Encoding: 260 260 8
Width: 627
GlyphClass: 2
Flags: MW
HStem: -223 28<440 450> 0 21G<-13 32 -13 -13 554 565 554 554> 263 33<195 466 195 473 177 466> 659 31<395 395>
VStem: 374 39<-168 -130>
LayerCount: 2
Fore
SplineSet
565 0 m 1
 554 0 l 1
 464 -40 413 -95 413 -153 c 0
 413 -183 428 -195 452 -195 c 0
 474 -195 494 -186 519 -166 c 1
 514 -195 l 1
 491 -214 465 -223 435 -223 c 0
 403 -223 374 -207 374 -161 c 0
 374 -99 423 -36 522 9 c 1
 473 263 l 1
 177 263 l 1
 32 0 l 1
 -13 0 l 1
 372 690 l 1
 427 690 l 1
 565 0 l 1
466 296 m 1
 395 659 l 1
 195 296 l 1
 466 296 l 1
EndSplineSet
Position2: "'cpsp' Capital Spacing in Latin lookup 0 subtable" dx=5 dy=0 dh=10 dv=0
EndChar

StartChar: aogonek
Encoding: 261 261 122
Width: 498
GlyphClass: 2
Flags: MW
HStem: -223 28<279 289> -14 32<146.5 200> 0 21G<393 400 393 393> 279.1 30.4 509 32<267 348.5>
VStem: 26 40<85 175 85 193> 213 39<-168 -130> 368 32 420 39<404 437>
LayerCount: 2
Fore
SplineSet
310 541 m 0xde80
 412 541 459 488 459 413 c 0
 459 395 457 371 450 336 c 2xde80
 419 161 l 2
 410 106 405 67 400 0 c 1
 393 0 l 1xbf80
 303 -40 252 -95 252 -153 c 0
 252 -183 267 -195 291 -195 c 0
 313 -195 333 -186 358 -166 c 1
 353 -195 l 1
 330 -214 304 -223 274 -223 c 0
 242 -223 213 -207 213 -161 c 0
 213 -99 262 -36 362 9 c 1
 374 116 l 1
 341 65 l 1xdf80
 296 12 234 -14 166 -14 c 0
 91 -14 26 27 26 114 c 0
 26 272 209 322 406 307 c 1
 411 334 l 2
 418 368 420 389 420 406 c 0
 420 468 390 509 307 509 c 0
 227 509 156 470 129 378 c 1
 90 378 l 1
 112 472 197 541 310 541 c 0xde80
389 207 m 2
 401 276 l 1
 200 294 66 233 66 117 c 0
 66 53 112 18 181 18 c 0
 283 18 372 108 389 207 c 2
EndSplineSet
EndChar

StartChar: cdotaccent
Encoding: 267 267 131
Width: 521
GlyphClass: 2
Flags: MW
HStem: -14 32<179.5 268 179.5 273> 510 31<238 362> 608 58<328 337>
VStem: 26 40<142.5 287.5 142.5 289> 304 58<632 642.5> 461 39<360 360>
AnchorPoint: "Anchor-0" 219 0 basechar 0
LayerCount: 2
Fore
SplineSet
337 666 m 0
 352 666 362 655 362 642 c 0
 362 622 346 608 328 608 c 0
 314 608 304 619 304 633 c 0
 304 652 319 666 337 666 c 0
321 541 m 0
 438 541 502 468 500 360 c 1
 461 360 l 1
 460 453 411 510 313 510 c 0
 163 510 66 367 66 208 c 0
 66 77 136 18 223 18 c 0
 313 18 388 68 428 160 c 1
 467 160 l 1
 420 45 330 -14 216 -14 c 0
 104 -14 26 65 26 206 c 0
 26 372 129 541 321 541 c 0
EndSplineSet
EndChar

StartChar: Ccaron
Encoding: 268 268 15
Width: 700
GlyphClass: 2
Flags: MW
HStem: -14 33<260.5 392 260.5 399> 671 33<354.5 502.5> 736 20<433 452 452 452 452 467>
VStem: 65 42 643 38<471 481 471 542.5>
AnchorPoint: "Anchor-0" 271 0 basechar 0
LayerCount: 2
Fore
SplineSet
433 736 m 1
 383 830 l 1
 418 830 l 1
 452 756 l 1
 512 830 l 1
 548 830 l 1
 467 736 l 1
 433 736 l 1
446 704 m 0
 603 704 684 607 681 481 c 1
 681 471 l 1
 643 471 l 1
 643 481 l 2
 643 604 568 671 437 671 c 0
 272 671 107 523 107 273 c 0
 107 102 199 19 322 19 c 0
 462 19 549 106 594 218 c 2
 598 228 l 1
 636 228 l 1
 632 218 l 1
 584 89 484 -14 314 -14 c 0
 161 -14 64 93 65 270 c 1
 64 532 239 704 446 704 c 0
EndSplineSet
Position2: "'cpsp' Capital Spacing in Latin lookup 0 subtable" dx=5 dy=0 dh=10 dv=0
EndChar

StartChar: ccaron
Encoding: 269 269 129
Width: 521
GlyphClass: 2
Flags: MW
HStem: -14 32<179.5 268 179.5 273> 510 31<238 362> 580 25<308 328 328 328 328 340> 580 110<262 308 262 340>
VStem: 26 40<142.5 287.5 142.5 289> 461 39<360 360>
AnchorPoint: "Anchor-0" 219 0 basechar 0
LayerCount: 2
Fore
SplineSet
308 580 m 1xdc
 262 690 l 1
 295 690 l 1xdc
 328 605 l 1xec
 392 690 l 1
 426 690 l 1
 340 580 l 1
 308 580 l 1xdc
313 510 m 0
 163 510 66 367 66 208 c 0
 66 77 136 18 223 18 c 0
 313 18 388 68 428 160 c 1
 467 160 l 1
 420 45 330 -14 216 -14 c 0
 104 -14 26 65 26 206 c 0
 26 372 129 541 321 541 c 0
 438 541 502 468 500 360 c 1
 461 360 l 1
 460 453 411 510 313 510 c 0
EndSplineSet
EndChar

StartChar: Dcaron
Encoding: 270 270 20
Width: 681
GlyphClass: 2
Flags: MW
HStem: 0 33<78 212> 657 33<188 338 188 188> 736 20<386 405 405 405 405 420>
VStem: 613 41<314.5 482.5>
LayerCount: 2
Fore
SplineSet
386 736 m 1
 336 830 l 1
 371 830 l 1
 405 756 l 1
 465 830 l 1
 501 830 l 1
 420 736 l 1
 386 736 l 1
418 688 m 0
 544 677 654 593 654 403 c 0
 654 206 518 21 301 3 c 0
 265 0 245 0 212 0 c 2
 34 0 l 1
 156 690 l 1
 342 690 l 2
 375 690 391 690 418 688 c 0
306 37 m 0
 504 58 613 228 613 401 c 0
 613 564 526 643 411 654 c 0
 389 657 373 657 338 657 c 2
 188 657 l 1
 78 33 l 1
 222 33 l 2
 253 33 275 34 306 37 c 0
EndSplineSet
Position2: "'cpsp' Capital Spacing in Latin lookup 0 subtable" dx=5 dy=0 dh=10 dv=0
EndChar

StartChar: dcaron
Encoding: 271 271 134
Width: 563
GlyphClass: 2
Flags: MW
HStem: -14 32<172.5 250> 0 21G<407 445 407 407> 509 32<234.5 351.5 222.5 375.5> 617 118<537 615 537 589> 714 20G<641 678 678 678> 715 20G<537 575 575 575>
VStem: 25 41<149 278.5 149 283.5> 463.73 16.27
LayerCount: 2
Fore
SplineSet
537 735 m 1xa7
 575 735 l 1
 445 0 l 1
 407 0 l 1x67
 426 111 l 1
 385 52 l 1
 334 4 286 -14 214 -14 c 0
 94 -14 25 77 25 200 c 0
 25 367 128 541 317 541 c 0
 386 541 430 520 461 472 c 1
 480 414 l 1
 537 735 l 1xa7
678 734 m 1xab
 678 730 l 1xab
 615 617 l 1
 589 617 l 1xb3
 641 734 l 1
 678 734 l 1xab
450 244 m 2
 459 295 l 2
 479 413 439 509 312 509 c 0
 157 509 66 355 66 202 c 0
 66 96 121 18 224 18 c 0xa7
 324 18 420 77 450 244 c 2
EndSplineSet
EndChar

StartChar: Dcroat
Encoding: 272 272 21
Width: 681
GlyphClass: 2
Flags: MW
HStem: 0 33<78 212> 319 29<28 90 22 96 134 302> 657 33<188 338 188 188>
VStem: 613 41<314.5 482.5>
LayerCount: 2
Fore
SplineSet
418 688 m 0
 544 677 654 593 654 403 c 0
 654 206 518 21 301 3 c 0
 265 0 245 0 212 0 c 2
 34 0 l 1
 90 319 l 1
 22 319 l 1
 28 348 l 1
 96 348 l 1
 156 690 l 1
 342 690 l 2
 375 690 391 690 418 688 c 0
306 37 m 0
 504 58 613 228 613 401 c 0
 613 564 526 643 411 654 c 0
 389 657 373 657 338 657 c 2
 188 657 l 1
 134 348 l 1
 308 348 l 1
 302 319 l 1
 129 319 l 1
 78 33 l 1
 222 33 l 2
 253 33 275 34 306 37 c 0
EndSplineSet
Position2: "'cpsp' Capital Spacing in Latin lookup 0 subtable" dx=5 dy=0 dh=10 dv=0
EndChar

StartChar: dcroat
Encoding: 273 273 135
Width: 568
GlyphClass: 2
Flags: MW
HStem: -14 32<172.5 250> 0 21G<407 445 407 407> 509 32<234.5 351.5 222.5 375.5> 609 29<405 515 401 520 558 598> 609 126<401 575 553 575 537 598 553 553>
VStem: 25 41<149 278.5 149 283.5> 463.73 16.27
LayerCount: 2
Fore
SplineSet
598 609 m 1xb6
 553 609 l 1
 445 0 l 1
 407 0 l 1x76
 426 111 l 1
 385 52 l 1
 334 4 286 -14 214 -14 c 0
 94 -14 25 77 25 200 c 0
 25 367 128 541 317 541 c 0
 386 541 430 520 461 472 c 1
 480 414 l 1
 515 609 l 1
 401 609 l 1
 405 638 l 1
 520 638 l 1xb6
 537 735 l 1
 575 735 l 1xae
 558 638 l 1
 603 638 l 1
 598 609 l 1xb6
450 244 m 2
 459 295 l 2
 479 413 439 509 312 509 c 0
 157 509 66 355 66 202 c 0
 66 96 121 18 224 18 c 0xb6
 324 18 420 77 450 244 c 2
EndSplineSet
EndChar

StartChar: Emacron
Encoding: 274 274 29
Width: 551
GlyphClass: 2
Flags: MW
HStem: 0 33<78 471> 329 32<136 496 130 502> 658 32<188 188 188 576> 768 29<297 457 292 462>
VStem: 34 549
AnchorPoint: "Anchor-0" 231 0 basechar 0
LayerCount: 2
Fore
SplineSet
457 768 m 1
 292 768 l 1
 297 797 l 1
 462 797 l 1
 457 768 l 1
188 658 m 1
 136 361 l 1
 502 361 l 1
 496 329 l 1
 130 329 l 1
 78 33 l 1
 477 33 l 1
 471 0 l 1
 34 0 l 1
 156 690 l 1
 583 690 l 1
 576 658 l 1
 188 658 l 1
EndSplineSet
Position2: "'cpsp' Capital Spacing in Latin lookup 0 subtable" dx=5 dy=0 dh=10 dv=0
EndChar

StartChar: Edotaccent
Encoding: 278 278 27
Width: 551
GlyphClass: 2
Flags: MW
HStem: 0 33<78 471> 329 32<136 496 130 502> 658 32<188 188 188 576> 757 53<374 380>
VStem: 350 54<779.5 786.5>
AnchorPoint: "Anchor-0" 231 0 basechar 0
LayerCount: 2
Fore
SplineSet
372 757 m 0
 359 757 350 766 350 778 c 0
 350 795 366 810 382 810 c 0
 395 810 404 800 404 788 c 0
 404 771 388 757 372 757 c 0
188 658 m 1
 136 361 l 1
 502 361 l 1
 496 329 l 1
 130 329 l 1
 78 33 l 1
 477 33 l 1
 471 0 l 1
 34 0 l 1
 156 690 l 1
 583 690 l 1
 576 658 l 1
 188 658 l 1
EndSplineSet
Position2: "'cpsp' Capital Spacing in Latin lookup 0 subtable" dx=5 dy=0 dh=10 dv=0
EndChar

StartChar: Eogonek
Encoding: 280 280 30
Width: 551
GlyphClass: 2
Flags: MW
HStem: -223 28<357 367> 0 33<78 421 471 471> 329 32<136 496 130 502> 658 32<188 188 188 576>
VStem: 291 39<-168 -132>
AnchorPoint: "Anchor-0" 231 0 basechar 0
LayerCount: 2
Fore
SplineSet
188 658 m 1
 136 361 l 1
 502 361 l 1
 496 329 l 1
 130 329 l 1
 78 33 l 1
 477 33 l 1
 471 0 l 1
 381 -40 330 -95 330 -153 c 0
 330 -183 345 -195 369 -195 c 0
 391 -195 411 -186 436 -166 c 1
 431 -195 l 1
 408 -214 382 -223 352 -223 c 0
 320 -223 291 -207 291 -161 c 0
 291 -103 334 -44 421 0 c 1
 34 0 l 1
 156 690 l 1
 583 690 l 1
 576 658 l 1
 188 658 l 1
EndSplineSet
Position2: "'cpsp' Capital Spacing in Latin lookup 0 subtable" dx=5 dy=0 dh=10 dv=0
EndChar

StartChar: eogonek
Encoding: 281 281 144
Width: 527
GlyphClass: 2
Flags: MW
HStem: -223 28<180 190> -14 32<179.5 212 212 219> 253 33<75 454 75 485 69 454> 509 32<240.5 350>
VStem: 24 41<136 211 136 274.5> 114 39<-168 -135> 458 39<332 397.5 327 402.5>
AnchorPoint: "Anchor-0" 213 0 basechar 0
LayerCount: 2
Fore
SplineSet
485 253 m 1
 69 253 l 1
 66 235 65 219 65 203 c 0
 65 69 139 18 220 18 c 0
 300 18 380 64 424 164 c 1
 463 164 l 1
 423 69 358 16 284 -5 c 1
 200 -44 153 -97 153 -153 c 0
 153 -183 168 -195 192 -195 c 0
 214 -195 234 -186 259 -166 c 1
 254 -195 l 1
 231 -214 205 -223 175 -223 c 0
 143 -223 114 -207 114 -161 c 0
 114 -109 149 -56 219 -14 c 1
 212 -14 l 2
 104 -14 24 59 24 202 c 0
 24 347 119 541 313 541 c 0
 442 541 497 453 497 342 c 0
 497 312 492 275 485 253 c 1
308 509 m 0
 173 509 100 392 75 286 c 1
 454 286 l 1
 457 305 458 323 458 341 c 0
 458 464 392 509 308 509 c 0
EndSplineSet
EndChar

StartChar: Ecaron
Encoding: 282 282 24
Width: 551
GlyphClass: 2
Flags: MW
HStem: 0 33<78 471> 329 32<136 496 130 502> 658 32<188 188 188 576> 658 172<188 339 304 339 433 469 304 576> 736 20<354 373 373 373 373 388>
VStem: 34 549
AnchorPoint: "Anchor-0" 231 0 basechar 0
LayerCount: 2
Fore
SplineSet
354 736 m 1xec
 304 830 l 1
 339 830 l 1xd4
 373 756 l 1xec
 433 830 l 1
 469 830 l 1xd4
 388 736 l 1
 354 736 l 1xec
188 658 m 1xec
 136 361 l 1
 502 361 l 1
 496 329 l 1
 130 329 l 1
 78 33 l 1
 477 33 l 1
 471 0 l 1
 34 0 l 1
 156 690 l 1
 583 690 l 1
 576 658 l 1
 188 658 l 1xec
EndSplineSet
Position2: "'cpsp' Capital Spacing in Latin lookup 0 subtable" dx=5 dy=0 dh=10 dv=0
EndChar

StartChar: Gbreve
Encoding: 286 286 33
Width: 734
GlyphClass: 2
Flags: MW
HStem: -14 33<259.5 357.5> 0 21G<563 599 563 563> 281 33<401 610 395 654> 671 33<364.5 515.5> 722 30<466 502 466 507.5>
VStem: 64 42<190 396> 405 27<830 830> 648 38<471 481 471 542>
AnchorPoint: "Anchor-0" 281 0 basechar 0
LayerCount: 2
Fore
SplineSet
477 722 m 0xbf
 423 722 395 760 405 830 c 1
 432 830 l 1
 425 767 449 752 483 752 c 0
 521 752 552 775 565 830 c 1
 592 830 l 1
 577 758 538 722 477 722 c 0xbf
459 704 m 0xb7
 616 704 688 607 686 481 c 1
 686 471 l 1
 648 471 l 1
 648 481 l 2
 648 603 581 671 450 671 c 0
 279 671 106 522 106 273 c 0
 106 107 197 19 322 19 c 0xb7
 429 19 577 91 610 281 c 1
 395 281 l 1
 401 314 l 1
 654 314 l 1
 599 0 l 1
 563 0 l 1x77
 592 165 l 1
 559 103 l 1
 491 20 401 -14 314 -14 c 0
 159 -14 64 95 64 270 c 0
 64 522 246 704 459 704 c 0xb7
EndSplineSet
Position2: "'cpsp' Capital Spacing in Latin lookup 0 subtable" dx=5 dy=0 dh=10 dv=0
EndChar

StartChar: Gdotaccent
Encoding: 288 288 35
Width: 734
GlyphClass: 2
Flags: MW
HStem: -14 33<259.5 357.5> 0 21G<563 599 563 563> 281 33<401 610 395 654> 671 33<364.5 515.5> 757 53<486 492>
VStem: 64 42<190 396> 462 54<779.5 786.5> 648 38<471 481 471 542>
AnchorPoint: "Anchor-0" 281 0 basechar 0
LayerCount: 2
Fore
SplineSet
484 757 m 0xbf
 471 757 462 766 462 778 c 0
 462 795 478 810 494 810 c 0
 507 810 516 800 516 788 c 0
 516 771 500 757 484 757 c 0xbf
459 704 m 0
 616 704 688 607 686 481 c 1
 686 471 l 1
 648 471 l 1
 648 481 l 2
 648 603 581 671 450 671 c 0
 279 671 106 522 106 273 c 0
 106 107 197 19 322 19 c 0xbf
 429 19 577 91 610 281 c 1
 395 281 l 1
 401 314 l 1
 654 314 l 1
 599 0 l 1
 563 0 l 1x7f
 592 165 l 1
 559 103 l 1
 491 20 401 -14 314 -14 c 0
 159 -14 64 95 64 270 c 0
 64 522 246 704 459 704 c 0
EndSplineSet
Position2: "'cpsp' Capital Spacing in Latin lookup 0 subtable" dx=5 dy=0 dh=10 dv=0
EndChar

StartChar: gdotaccent
Encoding: 289 289 149
Width: 562
GlyphClass: 2
Flags: MW
HStem: -218 33<144 247.5 144 254.5> -14 32<172.5 250> 509 32<234.5 351.5 222.5 372.5> 510 20G<500 538 538 538> 608 58<346 355>
VStem: -1 38<-55 -42 -55 -42> 25 41<149 278.5 149 283.5> 322 58<632 642.5> 463.57 16.43
LayerCount: 2
Fore
SplineSet
346 608 m 0xed80
 332 608 322 619 322 633 c 0
 322 652 337 666 355 666 c 0
 370 666 380 655 380 642 c 0
 380 622 364 608 346 608 c 0xed80
538 530 m 1xdd80
 469 138 l 2
 457 67 450 26 443 -7 c 0
 416 -135 329 -218 180 -218 c 0
 75 -218 -3 -167 -1 -55 c 1
 -1 -42 l 1
 38 -42 l 1
 37 -55 l 1xed80
 36 -149 100 -185 188 -185 c 0
 307 -185 382 -119 405 -4 c 0
 412 29 416 53 423 94 c 1
 426 109 l 1
 385 52 l 1
 334 4 286 -14 214 -14 c 0
 94 -14 25 77 25 200 c 0
 25 367 128 541 317 541 c 0
 386 541 430 520 461 472 c 1xeb80
 480 416 l 1
 500 530 l 1
 538 530 l 1xdd80
224 18 m 0
 320 18 412 72 446 224 c 1
 461 312 l 1
 475 422 433 509 312 509 c 0
 157 509 66 355 66 202 c 0xeb80
 66 96 121 18 224 18 c 0
EndSplineSet
EndChar

StartChar: Gcommaaccent
Encoding: 290 290 34
Width: 734
GlyphClass: 2
Flags: MW
HStem: -168 117<204 293 204 293> -14 33<259.5 357.5> 0 21G<563 599 563 563> 281 33<401 610 395 654> 671 33<364.5 515.5>
VStem: 64 42<190 396> 648 38<471 481 471 542>
AnchorPoint: "Anchor-0" 281 0 basechar 0
LayerCount: 2
Fore
SplineSet
459 704 m 0x5e
 616 704 688 607 686 481 c 1
 686 471 l 1
 648 471 l 1
 648 481 l 2
 648 603 581 671 450 671 c 0
 279 671 106 522 106 273 c 0
 106 107 197 19 322 19 c 0x5e
 429 19 577 91 610 281 c 1
 395 281 l 1
 401 314 l 1
 654 314 l 1
 599 0 l 1
 563 0 l 1x3e
 592 165 l 1
 559 103 l 1
 491 20 401 -14 314 -14 c 0
 159 -14 64 95 64 270 c 0
 64 522 246 704 459 704 c 0x5e
256 -51 m 1xde
 293 -51 l 1
 293 -55 l 1
 230 -168 l 1
 204 -168 l 1
 256 -51 l 1xde
EndSplineSet
Position2: "'cpsp' Capital Spacing in Latin lookup 0 subtable" dx=5 dy=0 dh=10 dv=0
EndChar

StartChar: gcommaaccent
Encoding: 291 291 148
Width: 562
GlyphClass: 2
Flags: MW
HStem: -218 33<144 247.5 144 254.5> -14 32<172.5 250> 509 32<234.5 351.5 222.5 372.5> 510 20G<500 538 538 538> 581 117<319 408 319 408> 678 20G<383 408 408 408>
VStem: -1 38<-55 -42 -55 -42> 25 41<149 278.5 149 283.5> 463.57 16.43
LayerCount: 2
Fore
SplineSet
356 581 m 1xda80
 319 581 l 1
 319 585 l 1
 383 698 l 1
 408 698 l 1
 356 581 l 1xda80
538 530 m 1
 469 138 l 2
 457 67 450 26 443 -7 c 0
 416 -135 329 -218 180 -218 c 0
 75 -218 -3 -167 -1 -55 c 1
 -1 -42 l 1
 38 -42 l 1
 37 -55 l 1xe680
 36 -149 100 -185 188 -185 c 0
 307 -185 382 -119 405 -4 c 0
 412 29 416 53 423 94 c 1
 426 109 l 1
 385 52 l 1
 334 4 286 -14 214 -14 c 0
 94 -14 25 77 25 200 c 0
 25 367 128 541 317 541 c 0
 386 541 430 520 461 472 c 1xe580
 480 416 l 1
 500 530 l 1
 538 530 l 1
224 18 m 0
 320 18 412 72 446 224 c 1
 461 312 l 1
 475 422 433 509 312 509 c 0
 157 509 66 355 66 202 c 0xe580
 66 96 121 18 224 18 c 0
EndSplineSet
EndChar

StartChar: Hbar
Encoding: 294 294 37
Width: 645
GlyphClass: 2
Flags: MW
HStem: 0 21G<34 72 34 34 500 538 500 500> 322 33<135 557 129 563> 516 29<91 125 85 130 168 591 634 669> 516 174<85 194 85 194 163 163 163 194 156 591 629 660 629 629>
VStem: 34 640<0 545>
LayerCount: 2
Fore
SplineSet
669 516 m 1xe8
 629 516 l 1
 538 0 l 1
 500 0 l 1
 557 322 l 1
 129 322 l 1
 72 0 l 1
 34 0 l 1
 125 516 l 1
 85 516 l 1
 91 545 l 1
 130 545 l 1xe8
 156 690 l 1
 194 690 l 1xd8
 168 545 l 1
 596 545 l 1xe8
 622 690 l 1
 660 690 l 1xd8
 634 545 l 1
 674 545 l 1
 669 516 l 1xe8
591 516 m 1
 163 516 l 1
 135 355 l 1
 563 355 l 1
 591 516 l 1
EndSplineSet
Position2: "'cpsp' Capital Spacing in Latin lookup 0 subtable" dx=5 dy=0 dh=10 dv=0
EndChar

StartChar: hbar
Encoding: 295 295 151
Width: 563
GlyphClass: 2
Flags: MW
HStem: 0 21G<42 80 42 42 410 448 410 410> 508 33<326 347> 609 29<98 149 93 154 192 290> 609 131<93 210 93 210 187 187 187 210 172 290>
VStem: 473 39<383 425>
LayerCount: 2
Fore
SplineSet
357 541 m 0xe8
 459 541 512 487 512 399 c 0
 512 367 510 345 501 294 c 2
 448 0 l 1
 410 0 l 1
 461 285 l 2
 469 330 473 362 473 391 c 0
 473 459 436 509 347 508 c 1
 250 508 157 441 130 292 c 1
 80 0 l 1
 42 0 l 1
 149 609 l 1
 93 609 l 1
 98 638 l 1
 154 638 l 1xe8
 172 740 l 1
 210 740 l 1xd8
 192 638 l 1
 296 638 l 1
 290 609 l 1
 187 609 l 1
 152 415 l 1
 187 472 l 1
 237 522 295 541 357 541 c 0xe8
EndSplineSet
EndChar

StartChar: Imacron
Encoding: 298 298 45
Width: 180
GlyphClass: 2
Flags: MW
HStem: 0 21G<34 72 34 34> 670 20G<156 194 194 194> 768 29<111 271 106 276>
VStem: 34 242
LayerCount: 2
Fore
SplineSet
271 768 m 1
 106 768 l 1
 111 797 l 1
 276 797 l 1
 271 768 l 1
72 0 m 1
 34 0 l 1
 156 690 l 1
 194 690 l 1
 72 0 l 1
EndSplineSet
Position2: "'cpsp' Capital Spacing in Latin lookup 0 subtable" dx=5 dy=0 dh=10 dv=0
EndChar

StartChar: imacron
Encoding: 299 299 159
Width: 181
GlyphClass: 2
Flags: MW
HStem: 0 21G<25 63 25 25> 507 20G<118 156 156 156> 616 29<76 236 71 241>
VStem: 25 216
LayerCount: 2
Fore
SplineSet
236 616 m 1
 71 616 l 1
 76 645 l 1
 241 645 l 1
 236 616 l 1
63 0 m 1
 25 0 l 1
 118 527 l 1
 156 527 l 1
 63 0 l 1
EndSplineSet
EndChar

StartChar: Iogonek
Encoding: 302 302 46
Width: 180
GlyphClass: 2
Flags: MW
HStem: -223 28<-48.5 -38> 0 21G<66 72 66 66> 670 20G<156 194 194 194>
VStem: -114 39<-168 -130>
LayerCount: 2
Fore
SplineSet
194 690 m 1
 72 0 l 1
 66 0 l 1
 -25 -40 -75 -95 -75 -153 c 0
 -75 -183 -60 -195 -37 -195 c 0
 -14 -195 6 -186 31 -166 c 1
 26 -195 l 1
 3 -214 -23 -223 -53 -223 c 0
 -85 -223 -114 -207 -114 -161 c 0
 -114 -99 -66 -35 36 9 c 1
 156 690 l 1
 194 690 l 1
EndSplineSet
Position2: "'cpsp' Capital Spacing in Latin lookup 0 subtable" dx=5 dy=0 dh=10 dv=0
EndChar

StartChar: iogonek
Encoding: 303 303 160
Width: 181
GlyphClass: 2
Flags: MW
HStem: -223 28<-57.5 -47> 0 21G<57 63 57 57> 507 20G<118 156 156 156> 608 58<152 161>
VStem: -123 39<-168 -130> 128 58<632 642.5>
LayerCount: 2
Fore
SplineSet
161 666 m 0
 176 666 186 655 186 642 c 0
 186 622 170 608 152 608 c 0
 138 608 128 619 128 633 c 0
 128 652 143 666 161 666 c 0
118 527 m 1
 156 527 l 1
 63 0 l 1
 57 0 l 1
 -34 -40 -84 -95 -84 -153 c 0
 -84 -183 -69 -195 -46 -195 c 0
 -23 -195 -3 -186 22 -166 c 1
 17 -195 l 1
 -6 -214 -32 -223 -62 -223 c 0
 -94 -223 -123 -207 -123 -161 c 0
 -123 -99 -75 -35 27 9 c 1
 118 527 l 1
EndSplineSet
EndChar

StartChar: Idotaccent
Encoding: 304 304 43
Width: 180
GlyphClass: 2
Flags: MW
HStem: 0 21G<34 72 34 34> 670 20G<156 194 194 194> 757 53<188 194>
VStem: 164 54<779.5 786.5>
LayerCount: 2
Fore
SplineSet
196 810 m 0
 209 810 218 800 218 788 c 0
 218 771 202 757 186 757 c 0
 173 757 164 766 164 778 c 0
 164 795 180 810 196 810 c 0
72 0 m 1
 34 0 l 1
 156 690 l 1
 194 690 l 1
 72 0 l 1
EndSplineSet
Position2: "'cpsp' Capital Spacing in Latin lookup 0 subtable" dx=5 dy=0 dh=10 dv=0
EndChar

StartChar: dotlessi
Encoding: 305 305 153
Width: 181
GlyphClass: 2
Flags: MW
HStem: 0 21G<25 63 25 25> 507 20G<118 156 156 156>
VStem: 25 131
LayerCount: 2
Fore
SplineSet
63 0 m 1
 25 0 l 1
 118 527 l 1
 156 527 l 1
 63 0 l 1
EndSplineSet
EndChar

StartChar: IJ
Encoding: 306 306 39
Width: 657
GlyphClass: 2
Flags: MW
HStem: -14 33<327 417.5 327 430.5> 0 21G<34 72 34 34> 670 20G<156 194 194 194 639 677 677 677>
VStem: 192.83 38.23
LayerCount: 2
Fore
SplineSet
72 0 m 1x70
 34 0 l 1
 156 690 l 1
 194 690 l 1
 72 0 l 1x70
677 690 m 1
 601 261 l 2
 596 231 591 205 583 172 c 0
 560 74 497 -14 364 -14 c 0
 251 -14 176 56 196 194 c 2
 201 227 l 1
 239 227 l 1
 234 194 l 1
 216 67 282 19 372 19 c 0xb0
 463 19 521 75 547 176 c 0
 552 197 556 224 563 256 c 1
 639 690 l 1
 677 690 l 1
EndSplineSet
Position2: "'cpsp' Capital Spacing in Latin lookup 0 subtable" dx=5 dy=0 dh=10 dv=0
EndChar

StartChar: ij
Encoding: 307 307 158
Width: 345
GlyphClass: 2
Flags: MW
HStem: -210 32.54 0 21G<25 63 25 25> 507 20G<118 156 156 156 302 340 340 340> 608 58<152 161 333 342>
VStem: 128 58<632 642.5> 308 58<632 642.5>
LayerCount: 2
Fore
SplineSet
161 666 m 0
 176 666 186 655 186 642 c 0
 186 622 170 608 152 608 c 0
 138 608 128 619 128 633 c 0
 128 652 143 666 161 666 c 0
342 666 m 0
 356 666 366 655 366 642 c 0
 366 622 351 608 333 608 c 0
 318 608 308 619 308 633 c 0
 308 652 324 666 342 666 c 0
63 0 m 1
 25 0 l 1
 118 527 l 1
 156 527 l 1
 63 0 l 1
340 527 m 1
 236 -66 l 2
 232 -86 229 -103 224 -121 c 0
 207 -185 169 -210 117 -210 c 0
 105 -210 94 -209 81 -207 c 1
 87 -175 l 1
 141 -185 173 -168 187 -116 c 0
 191 -102 194 -92 197 -73 c 2
 302 527 l 1
 340 527 l 1
EndSplineSet
EndChar

StartChar: Lacute
Encoding: 313 313 51
Width: 533
GlyphClass: 2
Flags: MW
HStem: 0 33<78 471> 670 20G<156 194 194 194> 736 94<168 278 168 278>
VStem: 34 443<0 33>
AnchorPoint: "Anchor-0" 237 0 basechar 0
LayerCount: 2
Fore
SplineSet
196 736 m 1
 168 736 l 1
 237 830 l 1
 278 830 l 1
 196 736 l 1
477 33 m 1
 471 0 l 1
 34 0 l 1
 156 690 l 1
 194 690 l 1
 78 33 l 1
 477 33 l 1
EndSplineSet
Position2: "'cpsp' Capital Spacing in Latin lookup 0 subtable" dx=5 dy=0 dh=10 dv=0
EndChar

StartChar: Lcommaaccent
Encoding: 315 315 53
Width: 533
GlyphClass: 2
Flags: MW
HStem: -168 117<160 249 160 249> 0 33<78 471> 670 20G<156 194 194 194>
VStem: 34 443<0 33>
AnchorPoint: "Anchor-0" 237 0 basechar 0
LayerCount: 2
Fore
SplineSet
477 33 m 1
 471 0 l 1
 34 0 l 1
 156 690 l 1
 194 690 l 1
 78 33 l 1
 477 33 l 1
212 -51 m 1
 249 -51 l 1
 249 -55 l 1
 186 -168 l 1
 160 -168 l 1
 212 -51 l 1
EndSplineSet
Position2: "'cpsp' Capital Spacing in Latin lookup 0 subtable" dx=5 dy=0 dh=10 dv=0
EndChar

StartChar: Lcaron
Encoding: 317 317 52
Width: 533
GlyphClass: 2
Flags: MW
HStem: 0 33<78 471> 670 20G<156 194 194 194>
VStem: 34 443<0 33>
AnchorPoint: "Anchor-0" 237 0 basechar 0
LayerCount: 2
Fore
SplineSet
477 33 m 1
 471 0 l 1
 34 0 l 1
 156 690 l 1
 194 690 l 1
 78 33 l 1
 477 33 l 1
EndSplineSet
Position2: "'cpsp' Capital Spacing in Latin lookup 0 subtable" dx=5 dy=0 dh=10 dv=0
EndChar

StartChar: lcaron
Encoding: 318 318 166
Width: 193
GlyphClass: 2
Flags: MW
HStem: -5 33 715 20G<152 190 190 190>
VStem: 32 40<42 47>
AnchorPoint: "Anchor-0" 69 0 basechar 0
LayerCount: 2
Fore
SplineSet
190 735 m 1
 83 128 l 2
 73 76 72 65 72 55 c 0
 72 29 86 23 125 28 c 1
 119 -2 l 1
 107 -5 94 -5 82 -5 c 0
 53 -5 32 5 32 41 c 0
 32 53 34 67 45 127 c 2
 152 735 l 1
 190 735 l 1
EndSplineSet
EndChar

StartChar: Ldot
Encoding: 319 319 54
Width: 533
GlyphClass: 2
Flags: MW
HStem: 0 33<78 471> 371 58<324 333> 670 20G<156 194 194 194>
VStem: 300 58<395 405.5>
AnchorPoint: "Anchor-0" 237 0 basechar 0
LayerCount: 2
Fore
SplineSet
477 33 m 1
 471 0 l 1
 34 0 l 1
 156 690 l 1
 194 690 l 1
 78 33 l 1
 477 33 l 1
324 371 m 0
 310 371 300 382 300 396 c 0
 300 415 315 429 333 429 c 0
 348 429 358 418 358 405 c 0
 358 385 342 371 324 371 c 0
EndSplineSet
Ligature2: "Ligature Substitution lookup 6 subtable" L periodcentered
Position2: "'cpsp' Capital Spacing in Latin lookup 0 subtable" dx=5 dy=0 dh=10 dv=0
EndChar

StartChar: ldot
Encoding: 320 320 168
Width: 228
GlyphClass: 2
Flags: MW
HStem: -5 33 371 58<204 213> 715 20G<152 190 190 190>
VStem: 32 40<42 47> 180 58<395 405.5>
AnchorPoint: "Anchor-0" 69 0 basechar 0
LayerCount: 2
Fore
SplineSet
190 735 m 1
 83 128 l 2
 73 76 72 65 72 55 c 0
 72 29 86 23 125 28 c 1
 119 -2 l 1
 107 -5 94 -5 82 -5 c 0
 53 -5 32 5 32 41 c 0
 32 53 34 67 45 127 c 2
 152 735 l 1
 190 735 l 1
213 429 m 0
 228 429 238 418 238 405 c 0
 238 385 222 371 204 371 c 0
 190 371 180 382 180 396 c 0
 180 415 195 429 213 429 c 0
EndSplineSet
Ligature2: "Ligature Substitution lookup 6 subtable" l periodcentered
EndChar

StartChar: Lslash
Encoding: 321 321 55
Width: 602
GlyphClass: 2
Flags: MW
HStem: 0 33<147 539> 670 20G<225 263 263 263>
VStem: 10 535<33 240>
AnchorPoint: "Anchor-0" 306 0 basechar 0
LayerCount: 2
Fore
SplineSet
545 33 m 1
 539 0 l 1
 103 0 l 1
 160 321 l 1
 10 240 l 1
 16 275 l 1
 166 356 l 1
 225 690 l 1
 263 690 l 1
 208 378 l 1
 369 465 l 1
 363 430 l 1
 202 343 l 1
 147 33 l 1
 545 33 l 1
EndSplineSet
Position2: "'cpsp' Capital Spacing in Latin lookup 0 subtable" dx=5 dy=0 dh=10 dv=0
EndChar

StartChar: lslash
Encoding: 322 322 169
Width: 226
GlyphClass: 2
Flags: MW
HStem: -5 33 715 20G<175 213 213 213>
VStem: 55 40<42 47>
AnchorPoint: "Anchor-0" 92 0 basechar 0
LayerCount: 2
Fore
SplineSet
146 355 m 1
 209 393 l 1
 203 357 l 1
 140 319 l 1
 106 128 l 2
 96 76 95 65 95 55 c 0
 95 29 109 23 148 28 c 1
 142 -2 l 1
 130 -5 117 -5 105 -5 c 0
 76 -5 55 5 55 41 c 0
 55 53 57 67 68 127 c 2
 97 293 l 1
 28 251 l 1
 35 288 l 1
 104 329 l 1
 175 735 l 1
 213 735 l 1
 146 355 l 1
EndSplineSet
EndChar

StartChar: nacute
Encoding: 324 324 172
Width: 547
GlyphClass: 2
Flags: MW
HStem: 0 21G<26 64 26 26 395 433 395 395> 507 20G<118 156 156 156> 508 33<310 331> 580 110<312 433 312 433> 670 20G<392 433 433 433>
VStem: 457 40<383 425>
AnchorPoint: "Anchor-0" 225 0 basechar 0
LayerCount: 2
Fore
SplineSet
340 580 m 1xb4
 312 580 l 1
 392 690 l 1
 433 690 l 1
 340 580 l 1xb4
341 541 m 0
 443 541 497 487 497 399 c 0
 497 367 494 345 485 294 c 2
 433 0 l 1
 395 0 l 1
 445 285 l 2
 453 330 457 362 457 391 c 0
 457 459 420 509 331 508 c 1xac
 234 508 141 441 115 292 c 2
 64 0 l 1
 26 0 l 1
 118 527 l 1
 156 527 l 1xcc
 136 414 l 1
 171 472 l 1
 221 522 279 541 341 541 c 0
EndSplineSet
EndChar

StartChar: Ncommaaccent
Encoding: 325 325 60
Width: 629
GlyphClass: 2
Flags: MW
HStem: -168 117<201 290 201 290> 0 35<490 490 490 522 463 490> 657 33<187 187>
VStem: 34 610
AnchorPoint: "Anchor-0" 278 0 basechar 0
LayerCount: 2
Fore
SplineSet
644 690 m 1
 522 0 l 1
 463 0 l 1
 187 657 l 1
 72 0 l 1
 34 0 l 1
 156 690 l 1
 214 690 l 1
 490 35 l 1
 606 690 l 1
 644 690 l 1
253 -51 m 1
 290 -51 l 1
 290 -55 l 1
 227 -168 l 1
 201 -168 l 1
 253 -51 l 1
EndSplineSet
Position2: "'cpsp' Capital Spacing in Latin lookup 0 subtable" dx=5 dy=0 dh=10 dv=0
EndChar

StartChar: ncommaaccent
Encoding: 326 326 174
Width: 547
GlyphClass: 2
Flags: MW
HStem: -168 117<148 237 148 237> 0 21G<26 64 26 26 395 433 395 395> 507 20G<118 156 156 156> 508 33<310 331>
VStem: 457 40<383 425>
AnchorPoint: "Anchor-0" 225 0 basechar 0
LayerCount: 2
Fore
SplineSet
341 541 m 0xd8
 443 541 497 487 497 399 c 0
 497 367 494 345 485 294 c 2
 433 0 l 1
 395 0 l 1
 445 285 l 2
 453 330 457 362 457 391 c 0
 457 459 420 509 331 508 c 1xd8
 234 508 141 441 115 292 c 2
 64 0 l 1
 26 0 l 1
 118 527 l 1
 156 527 l 1xe8
 136 414 l 1
 171 472 l 1
 221 522 279 541 341 541 c 0xd8
200 -51 m 1
 237 -51 l 1
 237 -55 l 1
 174 -168 l 1
 148 -168 l 1
 200 -51 l 1
EndSplineSet
EndChar

StartChar: Ncaron
Encoding: 327 327 59
Width: 629
GlyphClass: 2
Flags: MW
HStem: 0 35<490 490 490 522 463 490> 657 33<187 187> 736 20<393 412 412 412 412 427>
VStem: 34 610
AnchorPoint: "Anchor-0" 278 0 basechar 0
LayerCount: 2
Fore
SplineSet
393 736 m 1
 343 830 l 1
 378 830 l 1
 412 756 l 1
 472 830 l 1
 508 830 l 1
 427 736 l 1
 393 736 l 1
644 690 m 1
 522 0 l 1
 463 0 l 1
 187 657 l 1
 72 0 l 1
 34 0 l 1
 156 690 l 1
 214 690 l 1
 490 35 l 1
 606 690 l 1
 644 690 l 1
EndSplineSet
Position2: "'cpsp' Capital Spacing in Latin lookup 0 subtable" dx=5 dy=0 dh=10 dv=0
EndChar

StartChar: ncaron
Encoding: 328 328 173
Width: 547
GlyphClass: 2
Flags: MW
HStem: 0 21G<26 64 26 26 395 433 395 395> 507 20G<118 156 156 156> 508 33<310 331> 580 25<314 334 334 334 334 346> 580 110<268 314 268 346>
VStem: 457 40<383 425>
AnchorPoint: "Anchor-0" 225 0 basechar 0
LayerCount: 2
Fore
SplineSet
314 580 m 1xac
 268 690 l 1
 301 690 l 1xac
 334 605 l 1xb4
 398 690 l 1
 432 690 l 1
 346 580 l 1
 314 580 l 1xac
341 541 m 0
 443 541 497 487 497 399 c 0
 497 367 494 345 485 294 c 2
 433 0 l 1
 395 0 l 1
 445 285 l 2
 453 330 457 362 457 391 c 0
 457 459 420 509 331 508 c 1xac
 234 508 141 441 115 292 c 2
 64 0 l 1
 26 0 l 1
 118 527 l 1
 156 527 l 1xcc
 136 414 l 1
 171 472 l 1
 221 522 279 541 341 541 c 0
EndSplineSet
EndChar

StartChar: Eng
Encoding: 330 330 61
Width: 630
GlyphClass: 2
Flags: MW
HStem: -223 33<341 381.5> 0 21G<35 73 35 35> 652 38<188 188>
VStem: 35 609
LayerCount: 2
Fore
SplineSet
644 690 m 1
 511 -67 l 2
 491 -178 462 -220 341 -223 c 1
 346 -190 l 1
 417 -190 455 -163 469 -83 c 2
 480 -22 l 1
 188 652 l 1
 73 0 l 1
 35 0 l 1
 156 690 l 1
 214 690 l 1
 493 46 l 1
 606 690 l 1
 644 690 l 1
EndSplineSet
Position2: "'cpsp' Capital Spacing in Latin lookup 0 subtable" dx=5 dy=0 dh=10 dv=0
EndChar

StartChar: eng
Encoding: 331 331 175
Width: 547
GlyphClass: 2
Flags: MW
HStem: -174 33<260 300.5> 0 21G<26 64 26 26> 507 20G<118 156 156 156> 508 33<310 331>
VStem: 457 40<383 425>
LayerCount: 2
Fore
SplineSet
341 541 m 0xd8
 443 541 497 487 497 399 c 0
 497 367 494 345 485 294 c 2
 430 -18 l 2
 426 -37 424 -48 420 -62 c 0
 397 -146 347 -172 260 -174 c 1
 265 -141 l 1
 336 -141 374 -115 389 -34 c 2
 445 285 l 2
 453 330 457 362 457 391 c 0
 457 459 420 509 331 508 c 1xd8
 234 508 141 441 115 292 c 2
 64 0 l 1
 26 0 l 1
 118 527 l 1
 156 527 l 1xe8
 136 414 l 1
 171 472 l 1
 221 522 279 541 341 541 c 0xd8
EndSplineSet
EndChar

StartChar: omacron
Encoding: 333 333 183
Width: 560
GlyphClass: 2
Flags: MW
HStem: -14 32<193.5 329 193.5 343.5> 509 32<231 366.5> 616 29<265 425 260 430>
VStem: 27 40<154.5 280 154.5 284> 492 41<247 372.5>
LayerCount: 2
Fore
SplineSet
425 616 m 1
 260 616 l 1
 265 645 l 1
 430 645 l 1
 425 616 l 1
319 541 m 0
 463 541 533 439 533 312 c 0
 533 175 446 -14 241 -14 c 0
 96 -14 27 88 27 216 c 0
 27 352 114 541 319 541 c 0
247 18 m 0
 411 18 492 183 492 311 c 0
 492 434 420 509 313 509 c 0
 149 509 67 344 67 216 c 0
 67 93 140 18 247 18 c 0
EndSplineSet
EndChar

StartChar: Ohungarumlaut
Encoding: 336 336 68
Width: 744
GlyphClass: 2
Flags: MW
HStem: -14 33<277 451 277 461.5> 671 33<332 505.5> 736 94<389 499 389 499 481 499 458 509 481 481>
VStem: 66 41<203.5 378.5 203.5 386.5> 676 41<312 487>
LayerCount: 2
Fore
SplineSet
417 736 m 1
 389 736 l 1
 458 830 l 1
 499 830 l 1
 417 736 l 1
481 736 m 1
 550 830 l 1
 591 830 l 1
 509 736 l 1
 481 736 l 1
445 704 m 0
 608 704 717 584 717 404 c 0
 717 204 585 -14 338 -14 c 0
 175 -14 66 106 66 287 c 0
 66 486 197 704 445 704 c 0
345 19 m 0
 557 19 676 220 676 404 c 0
 676 570 573 671 438 671 c 0
 226 671 107 470 107 287 c 0
 107 120 209 19 345 19 c 0
EndSplineSet
Position2: "'cpsp' Capital Spacing in Latin lookup 0 subtable" dx=5 dy=0 dh=10 dv=0
EndChar

StartChar: ohungarumlaut
Encoding: 337 337 182
Width: 560
GlyphClass: 2
Flags: MW
HStem: -14 32<193.5 329 193.5 343.5> 509 32<231 366.5> 580 110<266 387 266 387 371 387 346 399 371 371>
VStem: 27 40<154.5 280 154.5 284> 492 41<247 372.5>
LayerCount: 2
Fore
SplineSet
294 580 m 1
 266 580 l 1
 346 690 l 1
 387 690 l 1
 294 580 l 1
371 580 m 1
 451 690 l 1
 492 690 l 1
 399 580 l 1
 371 580 l 1
319 541 m 0
 463 541 533 439 533 312 c 0
 533 175 446 -14 241 -14 c 0
 96 -14 27 88 27 216 c 0
 27 352 114 541 319 541 c 0
247 18 m 0
 411 18 492 183 492 311 c 0
 492 434 420 509 313 509 c 0
 149 509 67 344 67 216 c 0
 67 93 140 18 247 18 c 0
EndSplineSet
EndChar

StartChar: OE
Encoding: 338 338 72
Width: 1117
GlyphClass: 2
Flags: MW
HStem: -14 33<264.5 375> 0 33<644 1037> 329 32<702 1062 696 1068> 658 32<754 754 754 1143> 671 33<330.5 504 315 548>
VStem: 65 41<197.5 367.5 197.5 373> 668.65 19.35
LayerCount: 2
Fore
SplineSet
754 658 m 1x76
 702 361 l 1
 1068 361 l 1
 1062 329 l 1
 696 329 l 1
 644 33 l 1
 1043 33 l 1
 1037 0 l 1
 600 0 l 1x76
 632 183 l 1
 590 108 l 1
 516 19 428 -14 322 -14 c 0
 158 -14 65 102 65 281 c 0
 65 465 182 704 448 704 c 0xae
 560 704 625 670 672 579 c 1
 688 499 l 1
 722 690 l 1
 1149 690 l 1
 1143 658 l 1
 754 658 l 1x76
330 19 m 0xae
 489 19 622 127 661 345 c 0
 688 501 650 671 446 671 c 0
 215 671 106 453 106 282 c 0
 106 113 199 19 330 19 c 0xae
EndSplineSet
Position2: "'cpsp' Capital Spacing in Latin lookup 0 subtable" dx=5 dy=0 dh=10 dv=0
EndChar

StartChar: oe
Encoding: 339 339 186
Width: 992
GlyphClass: 2
Flags: MW
HStem: -14 32<191.5 292 641.5 721.5> 253 33<539 918 539 951 533 918> 512 32<237.5 388 223.5 396.5 729.5 813.5>
VStem: 26 41<154 279.5 154 281.5> 493 35 923 39<331.5 397.5 327 402.5>
LayerCount: 2
Fore
SplineSet
951 253 m 1
 533 253 l 1
 529 233 528 213 528 196 c 0
 528 69 601 18 682 18 c 0
 761 18 846 64 889 164 c 1
 928 164 l 1
 875 39 776 -14 674 -14 c 0
 585 -14 506 41 493 155 c 1
 440 46 350 -14 234 -14 c 0
 100 -14 26 80 26 215 c 0
 26 348 115 544 332 544 c 0
 444 544 520 482 533 373 c 1
 586 484 679 544 780 544 c 0
 907 544 962 453 962 342 c 0
 962 312 958 282 951 253 c 1
240 18 m 0
 367 18 471 121 494 279 c 0
 511 397 466 512 327 512 c 0
 148 512 67 342 67 217 c 0
 67 91 143 18 240 18 c 0
773 512 m 0
 676 512 571 438 539 286 c 1
 918 286 l 1
 922 306 923 323 923 340 c 0
 923 465 854 512 773 512 c 0
EndSplineSet
EndChar

StartChar: racute
Encoding: 341 341 191
Width: 279
GlyphClass: 2
Flags: MW
HStem: 0 21G<26 64 26 26> 507 34<272.5 314> 510 20G<119 157 157 157> 518 20G<320 320> 521 20G<272.5 298.5> 580 110<177 298 177 298> 670 20G<257 298 298 298>
VStem: 26 294
AnchorPoint: "Anchor-0" 45 0 basechar 0
LayerCount: 2
Fore
SplineSet
205 580 m 1x8d
 177 580 l 1
 257 690 l 1
 298 690 l 1
 205 580 l 1x8d
294 541 m 0
 303 541 312 540 320 538 c 1x93
 314 507 l 1xc3
 242 512 149 480 116 298 c 1
 115 292 l 1
 64 0 l 1
 26 0 l 1
 119 530 l 1
 157 530 l 1xa3
 138 422 l 1
 176 484 l 1
 209 520 251 541 294 541 c 0
EndSplineSet
EndChar

StartChar: rcommaaccent
Encoding: 343 343 193
Width: 279
GlyphClass: 2
Flags: MW
HStem: -168 117<-32 57 -32 57> 0 21G<26 64 26 26> 507 34<272.5 314> 510 20G<119 157 157 157> 518 20G<320 320> 521 20G<272.5 298.5>
VStem: -32 352
AnchorPoint: "Anchor-0" 45 0 basechar 0
LayerCount: 2
Fore
SplineSet
294 541 m 0xc6
 303 541 312 540 320 538 c 1xca
 314 507 l 1xe2
 242 512 149 480 116 298 c 1
 115 292 l 1
 64 0 l 1
 26 0 l 1
 119 530 l 1
 157 530 l 1xd2
 138 422 l 1
 176 484 l 1
 209 520 251 541 294 541 c 0xc6
20 -51 m 1
 57 -51 l 1
 57 -55 l 1
 -7 -168 l 1
 -32 -168 l 1
 20 -51 l 1
EndSplineSet
EndChar

StartChar: sacute
Encoding: 347 347 195
Width: 455
GlyphClass: 2
Flags: MW
HStem: -16 33<158.5 248 158.5 252> 509 32<209 291.5> 580 110<261 382 261 382> 670 20G<341 382 382 382>
VStem: 10 39<150 150> 75 40<361.5 421.5 361.5 430.5> 349 40<98 163.5> 387 39<382 382>
AnchorPoint: "Anchor-0" 183 0 basechar 0
LayerCount: 2
Fore
SplineSet
289 580 m 1xe5
 261 580 l 1
 341 690 l 1
 382 690 l 1
 289 580 l 1xe5
258 541 m 0
 363 541 421 483 426 382 c 1
 387 382 l 1
 380 473 329 509 254 509 c 0
 164 509 115 451 115 392 c 0xd5
 115 331 162 302 231 283 c 0
 334 254 389 217 389 136 c 0
 389 38 305 -16 199 -16 c 0
 84 -16 11 40 10 150 c 1
 49 150 l 1
 53 53 112 17 205 17 c 0
 291 17 349 64 349 132 c 0xde
 349 195 309 224 210 251 c 0
 141 270 75 305 75 389 c 0
 75 472 144 541 258 541 c 0
EndSplineSet
EndChar

StartChar: Scedilla
Encoding: 350 350 83
Width: 549
GlyphClass: 2
Flags: MW
HStem: -210 26<177.5 214 177.5 216> -71 23 -14 33<224 224 254 254> 671 33<293 388.5>
VStem: 18 39<184 184> 106 43<470 559> 271 32<-140.5 -104> 452 43<131.5 222> 501 40<510 510>
AnchorPoint: "Anchor-0" 246 0 basechar 0
LayerCount: 2
Fore
SplineSet
350 704 m 0
 482 704 546 617 541 510 c 1
 501 510 l 1xb680
 503 612 436 671 341 671 c 0
 245 671 149 618 149 507 c 0
 149 433 202 403 310 371 c 1
 432 337 495 285 495 187 c 0
 495 73 396 -8 254 -14 c 1
 229 -48 l 1
 274 -53 303 -78 303 -120 c 0
 303 -181 250 -210 182 -210 c 0
 163 -210 146 -208 131 -203 c 1
 136 -177 l 1
 152 -183 168 -184 187 -184 c 0
 241 -184 271 -159 271 -122 c 0
 271 -86 243 -67 183 -71 c 1
 224 -14 l 1
 104 -10 8 56 18 184 c 1
 57 184 l 1
 53 77 130 19 246 19 c 0
 362 19 452 82 452 181 c 0xff
 452 263 401 303 288 336 c 0
 170 370 106 410 106 496 c 0
 106 622 209 704 350 704 c 0
EndSplineSet
Substitution2: "'locl' Localized Forms in Latin lookup 2 subtable" Scommaaccent
Substitution2: "'locl' Localized Forms in Latin lookup 1 subtable" Scommaaccent
Substitution2: "'aalt' Access All Alternates in Latin lookup 0 subtable" Scommaaccent
Position2: "'cpsp' Capital Spacing in Latin lookup 0 subtable" dx=5 dy=0 dh=10 dv=0
EndChar

StartChar: scedilla
Encoding: 351 351 197
Width: 455
GlyphClass: 2
Flags: MW
HStem: -210 26<115.5 152 115.5 154> -71 23 -16 33<190 199 190 190> -14 31<162 162> 509 32<209 291.5>
VStem: 10 39<150 150> 75 40<361.5 421.5 361.5 430.5> 209 32<-140.5 -104> 349 40<98 163.5> 387 39<382 382>
AnchorPoint: "Anchor-0" 183 0 basechar 0
LayerCount: 2
Fore
SplineSet
231 283 m 0x9b80
 334 254 389 217 389 136 c 0
 389 38 305 -16 199 -16 c 2
 190 -16 l 1xab80
 168 -48 l 1
 213 -53 241 -78 241 -120 c 0
 241 -181 188 -210 120 -210 c 0
 101 -210 84 -208 69 -203 c 1
 74 -177 l 1
 90 -183 106 -184 125 -184 c 0
 179 -184 209 -159 209 -122 c 0
 209 -86 181 -67 121 -71 c 1
 162 -14 l 1
 69 -3 11 52 10 150 c 1
 49 150 l 1
 53 53 112 17 205 17 c 0
 291 17 349 64 349 132 c 0xdf80
 349 195 309 224 210 251 c 0
 141 270 75 305 75 389 c 0
 75 472 144 541 258 541 c 0
 363 541 421 483 426 382 c 1
 387 382 l 1x9b40
 380 473 329 509 254 509 c 0
 164 509 115 451 115 392 c 0
 115 331 162 302 231 283 c 0x9b80
EndSplineSet
Substitution2: "'locl' Localized Forms in Latin lookup 2 subtable" scommaaccent
Substitution2: "'locl' Localized Forms in Latin lookup 1 subtable" scommaaccent
Substitution2: "'aalt' Access All Alternates in Latin lookup 0 subtable" scommaaccent
EndChar

StartChar: scaron
Encoding: 353 353 196
Width: 455
GlyphClass: 2
Flags: MW
HStem: -16 33<158.5 248 158.5 252> 509 32<209 291.5> 580 25<263 283 283 283 283 295> 580 110<217 263 217 295>
VStem: 10 39<150 150> 75 40<361.5 421.5 361.5 430.5> 349 40<98 163.5> 387 39<382 382>
AnchorPoint: "Anchor-0" 183 0 basechar 0
LayerCount: 2
Fore
SplineSet
263 580 m 1xd6
 217 690 l 1
 250 690 l 1xd6
 283 605 l 1xe6
 347 690 l 1
 381 690 l 1
 295 580 l 1
 263 580 l 1xd6
231 283 m 0
 334 254 389 217 389 136 c 0
 389 38 305 -16 199 -16 c 0
 84 -16 11 40 10 150 c 1
 49 150 l 1
 53 53 112 17 205 17 c 0
 291 17 349 64 349 132 c 0xde
 349 195 309 224 210 251 c 0
 141 270 75 305 75 389 c 0
 75 472 144 541 258 541 c 0
 363 541 421 483 426 382 c 1
 387 382 l 1xd5
 380 473 329 509 254 509 c 0
 164 509 115 451 115 392 c 0
 115 331 162 302 231 283 c 0
EndSplineSet
EndChar

StartChar: Tcedilla
Encoding: 354 354 88
Width: 588
GlyphClass: 2
Flags: MW
HStem: -210 26<191.5 228 191.5 230> -71 23 0 21G<245 248 245 245 278 283 278 278> 658 32<108 361 102 665 399 399 399 659>
VStem: 285 32<-140.5 -104>
AnchorPoint: "Anchor-0" 261 0 basechar 0
LayerCount: 2
Fore
SplineSet
278 0 m 1
 244 -48 l 1
 289 -53 317 -78 317 -120 c 0
 317 -181 264 -210 196 -210 c 0
 177 -210 160 -208 145 -203 c 1
 150 -177 l 1
 166 -183 182 -184 201 -184 c 0
 255 -184 285 -159 285 -122 c 0
 285 -86 257 -67 197 -71 c 1
 248 0 l 1
 245 0 l 1
 361 658 l 1
 102 658 l 1
 108 690 l 1
 665 690 l 1
 659 658 l 1
 399 658 l 1
 283 0 l 1
 278 0 l 1
EndSplineSet
Substitution2: "'locl' Localized Forms in Latin lookup 2 subtable" uni021A
Substitution2: "'locl' Localized Forms in Latin lookup 1 subtable" uni021A
Substitution2: "'aalt' Access All Alternates in Latin lookup 0 subtable" uni021A
Position2: "'cpsp' Capital Spacing in Latin lookup 0 subtable" dx=5 dy=0 dh=10 dv=0
EndChar

StartChar: tcedilla
Encoding: 355 355 203
Width: 258
GlyphClass: 2
Flags: MW
HStem: -210 26<37.5 74 37.5 76> -71 23 -7 30.01 -7 33 -3 26.01 493 30<62 122 56 127 165 260>
VStem: 49 39<47.5 66.5> 131 32<-140.5 -104>
AnchorPoint: "Anchor-0" 105 0 basechar 0
LayerCount: 2
Fore
SplineSet
160 493 m 1xa7
 97 135 l 2
 90 99 88 82 88 68 c 0xa7
 88 27 117 17 180 26 c 1x97
 175 -3 l 1
 160 -6 145 -7 125 -7 c 2
 119 -7 l 1xa7
 90 -48 l 1
 135 -53 163 -78 163 -120 c 0
 163 -181 110 -210 42 -210 c 0
 23 -210 6 -208 -10 -203 c 1
 -5 -177 l 1
 12 -183 28 -184 47 -184 c 0
 101 -184 131 -159 131 -122 c 0
 131 -86 103 -67 43 -71 c 1
 92 -3 l 1
 64 4 49 23 49 57 c 0xcf
 49 76 51 98 59 137 c 1
 122 493 l 1
 56 493 l 1
 62 523 l 1
 127 523 l 1
 147 635 l 1
 185 635 l 1
 165 523 l 1
 265 523 l 1
 260 493 l 1
 160 493 l 1xa7
EndSplineSet
Substitution2: "'locl' Localized Forms in Latin lookup 2 subtable" uni021B
Substitution2: "'locl' Localized Forms in Latin lookup 1 subtable" uni021B
Substitution2: "'aalt' Access All Alternates in Latin lookup 0 subtable" uni021B
EndChar

StartChar: Tcaron
Encoding: 356 356 87
Width: 588
GlyphClass: 2
Flags: MW
HStem: 0 21G<245 283 245 245> 658 32<108 361 102 665 399 659 399 399> 658 172<329 361 458 494 329 659 329 399> 736 20<379 398 398 398 398 413>
VStem: 102 563<658 690>
AnchorPoint: "Anchor-0" 261 0 basechar 0
LayerCount: 2
Fore
SplineSet
379 736 m 1xd8
 329 830 l 1
 364 830 l 1xa8
 398 756 l 1xd8
 458 830 l 1
 494 830 l 1xa8
 413 736 l 1
 379 736 l 1xd8
659 658 m 1xd8
 399 658 l 1
 283 0 l 1
 245 0 l 1
 361 658 l 1
 102 658 l 1
 108 690 l 1
 665 690 l 1
 659 658 l 1xd8
EndSplineSet
Position2: "'cpsp' Capital Spacing in Latin lookup 0 subtable" dx=5 dy=0 dh=10 dv=0
EndChar

StartChar: tcaron
Encoding: 357 357 202
Width: 242
GlyphClass: 2
Flags: MW
HStem: -7 30.01 -7 33 493 30<62 122 56 127 165 260> 584 51<147 241 147 215> 584 117<215 305 215 305> 681 20G<267 305 305 305>
VStem: 49 39<47.5 66.5>
AnchorPoint: "Anchor-0" 105 0 basechar 0
LayerCount: 2
Fore
SplineSet
305 701 m 1xb6
 305 697 l 1xb6
 241 584 l 1
 215 584 l 1xaa
 267 701 l 1
 305 701 l 1xb6
165 523 m 1
 265 523 l 1
 260 493 l 1
 160 493 l 1
 97 135 l 2
 90 99 88 82 88 68 c 0xb6
 88 27 117 17 180 26 c 1x76
 175 -3 l 1
 160 -6 145 -7 125 -7 c 0
 75 -7 49 11 49 57 c 0
 49 76 51 98 59 137 c 1
 122 493 l 1
 56 493 l 1
 62 523 l 1
 127 523 l 1
 147 635 l 1
 185 635 l 1
 165 523 l 1
EndSplineSet
EndChar

StartChar: Tbar
Encoding: 358 358 86
Width: 594
GlyphClass: 2
Flags: MW
HStem: 0 21G<245 283 245 245> 319 29<181 301 175 307 345 485> 658 32<108 361 102 665 399 659 399 399>
VStem: 102 563<658 690>
AnchorPoint: "Anchor-0" 261 0 basechar 0
LayerCount: 2
Fore
SplineSet
399 658 m 1
 345 348 l 1
 491 348 l 1
 485 319 l 1
 339 319 l 1
 283 0 l 1
 245 0 l 1
 301 319 l 1
 175 319 l 1
 181 348 l 1
 307 348 l 1
 361 658 l 1
 102 658 l 1
 108 690 l 1
 665 690 l 1
 659 658 l 1
 399 658 l 1
EndSplineSet
Position2: "'cpsp' Capital Spacing in Latin lookup 0 subtable" dx=5 dy=0 dh=10 dv=0
EndChar

StartChar: Uring
Encoding: 366 366 98
Width: 621
GlyphClass: 2
Flags: MW
HStem: -14 33<224.5 346 224.5 353> 670 20G<166 204 204 204 591 629 629 629> 721 24<396 421 396 424> 827 25<407.5 432>
VStem: 79 38<118.5 170.5> 343 31<768.5 791 768.5 798> 455 30<781 804>
LayerCount: 2
Fore
SplineSet
425 852 m 0
 460 852 485 831 485 798 c 0
 485 750 445 721 403 721 c 0
 368 721 343 741 343 774 c 0
 343 822 384 852 425 852 c 0
421 827 m 0
 394 827 374 805 374 777 c 0
 374 760 385 745 407 745 c 0
 435 745 455 767 455 795 c 0
 455 813 443 827 421 827 c 0
629 690 m 1
 550 243 l 2
 546 221 541 198 536 177 c 0
 508 65 429 -14 277 -14 c 0
 147 -14 79 54 79 155 c 0
 79 186 82 212 87 245 c 2
 166 690 l 1
 204 690 l 1
 126 244 l 2
 120 211 117 185 117 157 c 0
 117 80 166 19 283 19 c 0
 409 19 475 86 500 184 c 0
 505 204 508 220 513 246 c 2
 591 690 l 1
 629 690 l 1
EndSplineSet
Position2: "'cpsp' Capital Spacing in Latin lookup 0 subtable" dx=5 dy=0 dh=10 dv=0
EndChar

StartChar: uring
Encoding: 367 367 213
Width: 542
GlyphClass: 2
Flags: MW
HStem: -14 33<212 233> 0 21G<387 425 387 387> 507 20G<111 149 149 149 479 517 517 517> 570 25<308 333 308 335.5> 681 24<319.5 344>
VStem: 47 39<102 144.5> 256 30<618.5 642.5 618.5 648.5> 367 30<633.5 657.5>
LayerCount: 2
Fore
SplineSet
314 570 m 0xbf
 280 570 256 592 256 624 c 0
 256 673 295 705 338 705 c 0
 372 705 397 684 397 652 c 0
 397 603 357 570 314 570 c 0xbf
333 681 m 0
 306 681 286 657 286 628 c 0
 286 609 297 595 319 595 c 0
 347 595 367 619 367 648 c 0
 367 667 355 681 333 681 c 0
517 527 m 1
 425 0 l 1
 387 0 l 1x7f
 407 113 l 1
 372 56 l 1
 322 6 264 -14 202 -14 c 0
 100 -14 47 41 47 128 c 0
 47 161 49 182 58 234 c 2
 111 527 l 1
 149 527 l 1
 98 242 l 2
 90 198 86 166 86 136 c 0
 86 68 123 18 212 19 c 1
 309 19 402 86 429 235 c 1
 479 527 l 1
 517 527 l 1
EndSplineSet
EndChar

StartChar: Uhungarumlaut
Encoding: 368 368 95
Width: 621
GlyphClass: 2
Flags: MW
HStem: -14 33<224.5 346 224.5 353> 670 20G<166 204 204 204 591 629 629 629> 736 94<340 450 340 450 432 432 432 450 409 460>
VStem: 79 38<118.5 170.5>
LayerCount: 2
Fore
SplineSet
368 736 m 1
 340 736 l 1
 409 830 l 1
 450 830 l 1
 368 736 l 1
460 736 m 1
 432 736 l 1
 501 830 l 1
 542 830 l 1
 460 736 l 1
629 690 m 1
 550 243 l 2
 546 221 541 198 536 177 c 0
 508 65 429 -14 277 -14 c 0
 147 -14 79 54 79 155 c 0
 79 186 82 212 87 245 c 2
 166 690 l 1
 204 690 l 1
 126 244 l 2
 120 211 117 185 117 157 c 0
 117 80 166 19 283 19 c 0
 409 19 475 86 500 184 c 0
 505 204 508 220 513 246 c 2
 591 690 l 1
 629 690 l 1
EndSplineSet
Position2: "'cpsp' Capital Spacing in Latin lookup 0 subtable" dx=5 dy=0 dh=10 dv=0
EndChar

StartChar: uhungarumlaut
Encoding: 369 369 210
Width: 542
GlyphClass: 2
Flags: MW
HStem: -14 33<212 233> 0 21G<387 425 387 387> 507 20G<111 149 149 149 479 517 517 517> 580 110<246 367 246 367 351 367 326 379 351 351>
VStem: 47 39<102 144.5>
LayerCount: 2
Fore
SplineSet
274 580 m 1xb8
 246 580 l 1
 326 690 l 1
 367 690 l 1
 274 580 l 1xb8
351 580 m 1
 431 690 l 1
 472 690 l 1
 379 580 l 1
 351 580 l 1
517 527 m 1
 425 0 l 1
 387 0 l 1x78
 407 113 l 1
 372 56 l 1
 322 6 264 -14 202 -14 c 0
 100 -14 47 41 47 128 c 0
 47 161 49 182 58 234 c 2
 111 527 l 1
 149 527 l 1
 98 242 l 2
 90 198 86 166 86 136 c 0
 86 68 123 18 212 19 c 1
 309 19 402 86 429 235 c 1
 479 527 l 1
 517 527 l 1
EndSplineSet
EndChar

StartChar: Uogonek
Encoding: 370 370 97
Width: 621
GlyphClass: 2
Flags: MW
HStem: -223 28<258 268> -14 33<224.5 277 277 297> 670 20G<166 204 204 204 591 629 629 629>
VStem: 79 38<118.5 170.5> 192 39<-168 -135>
LayerCount: 2
Fore
SplineSet
629 690 m 1
 550 243 l 2
 546 221 541 198 536 177 c 0
 514 89 460 21 363 -4 c 1
 279 -44 231 -97 231 -153 c 0
 231 -183 246 -195 270 -195 c 0
 292 -195 312 -186 337 -166 c 1
 332 -195 l 1
 309 -214 283 -223 253 -223 c 0
 221 -223 192 -207 192 -161 c 0
 192 -109 227 -56 297 -14 c 1
 277 -14 l 2
 147 -14 79 54 79 155 c 0
 79 186 82 212 87 245 c 2
 166 690 l 1
 204 690 l 1
 126 244 l 2
 120 211 117 185 117 157 c 0
 117 80 166 19 283 19 c 0
 409 19 475 86 500 184 c 0
 505 204 508 220 513 246 c 2
 591 690 l 1
 629 690 l 1
EndSplineSet
Position2: "'cpsp' Capital Spacing in Latin lookup 0 subtable" dx=5 dy=0 dh=10 dv=0
EndChar

StartChar: uogonek
Encoding: 371 371 212
Width: 542
GlyphClass: 2
Flags: MW
HStem: -223 28<306 316> -14 33<212 233> 0 21G<420 425 420 420> 507 20G<111 149 149 149 479 517 517 517>
VStem: 47 39<102 144.5> 240 39<-168 -130>
LayerCount: 2
Fore
SplineSet
517 527 m 1xdc
 425 0 l 1
 420 0 l 1xbc
 330 -40 279 -95 279 -153 c 0
 279 -183 294 -195 318 -195 c 0
 340 -195 360 -186 385 -166 c 1
 380 -195 l 1
 357 -214 331 -223 301 -223 c 0
 269 -223 240 -207 240 -161 c 0
 240 -99 289 -36 389 9 c 1
 407 113 l 1
 372 56 l 1
 322 6 264 -14 202 -14 c 0
 100 -14 47 41 47 128 c 0
 47 161 49 182 58 234 c 2
 111 527 l 1
 149 527 l 1
 98 242 l 2
 90 198 86 166 86 136 c 0
 86 68 123 18 212 19 c 1
 309 19 402 86 429 235 c 1
 479 527 l 1
 517 527 l 1xdc
EndSplineSet
EndChar

StartChar: wcircumflex
Encoding: 373 373 217
Width: 728
GlyphClass: 2
Flags: MW
HStem: 0 36<153 153 153 171 122 153> 490 36<400 400> 580 110<332 450 332 450 418 463 418 496> 666 24<430 430>
VStem: 51 713<527 527>
LayerCount: 2
Fore
SplineSet
366 580 m 1xe8
 332 580 l 1xe8
 418 690 l 1
 450 690 l 1xd8
 496 580 l 1
 463 580 l 1xe8
 430 666 l 1xd8
 366 580 l 1xe8
764 527 m 1
 503 0 l 1
 456 0 l 1
 400 490 l 1
 171 0 l 1
 122 0 l 1
 51 527 l 1
 92 527 l 1
 153 36 l 1
 379 526 l 1
 430 526 l 1
 487 39 l 1
 721 527 l 1
 764 527 l 1
EndSplineSet
EndChar

StartChar: Ycircumflex
Encoding: 374 374 108
Width: 554
GlyphClass: 2
Flags: MW
HStem: 0 21G<220 258 220 220> 670 20G<97 138 138 138 579 626 626 626> 809 21<384 384>
VStem: 97 529<690 690>
LayerCount: 2
Fore
SplineSet
325 736 m 1
 289 736 l 1
 370 830 l 1
 404 830 l 1
 453 736 l 1
 419 736 l 1
 384 809 l 1
 325 736 l 1
305 269 m 1
 258 0 l 1
 220 0 l 1
 268 273 l 1
 97 690 l 1
 138 690 l 1
 293 309 l 1
 579 690 l 1
 626 690 l 1
 305 269 l 1
EndSplineSet
Position2: "'cpsp' Capital Spacing in Latin lookup 0 subtable" dx=5 dy=0 dh=10 dv=0
EndChar

StartChar: ycircumflex
Encoding: 375 375 223
Width: 478
GlyphClass: 2
Flags: MW
HStem: -210 33<-9.5 20.5 -9.5 28> 507 20G<51 93 93 93 469 513 513 513> 580 110<205 323 205 323 291 336 291 369> 666 24<303 303>
VStem: -41 554
LayerCount: 2
Fore
SplineSet
239 580 m 1xe8
 205 580 l 1xe8
 291 690 l 1
 323 690 l 1xd8
 369 580 l 1
 336 580 l 1xe8
 303 666 l 1xd8
 239 580 l 1xe8
513 527 m 1
 213 0 l 2
 112 -179 63 -210 -7 -210 c 0
 -18 -210 -30 -209 -41 -206 c 1
 -35 -174 l 1
 -23 -177 -14 -177 -5 -177 c 0
 46 -177 87 -146 152 -34 c 1
 165 -11 l 1
 51 527 l 1
 93 527 l 1
 193 31 l 1
 469 527 l 1
 513 527 l 1
EndSplineSet
EndChar

StartChar: Ydieresis
Encoding: 376 376 109
Width: 554
GlyphClass: 2
Flags: MW
HStem: 0 21G<220 258 220 220> 670 20G<97 138 138 138 579 626 626 626> 757 53<330.5 336 418 424>
VStem: 307 53<779.5 786.5> 394 54<779.5 786.5>
LayerCount: 2
Fore
SplineSet
328 757 m 0
 315 757 307 766 307 778 c 0
 307 795 323 810 338 810 c 0
 352 810 360 800 360 788 c 0
 360 771 344 757 328 757 c 0
416 757 m 0
 403 757 394 766 394 778 c 0
 394 795 410 810 426 810 c 0
 439 810 448 800 448 788 c 0
 448 771 432 757 416 757 c 0
305 269 m 1
 258 0 l 1
 220 0 l 1
 268 273 l 1
 97 690 l 1
 138 690 l 1
 293 309 l 1
 579 690 l 1
 626 690 l 1
 305 269 l 1
EndSplineSet
Position2: "'cpsp' Capital Spacing in Latin lookup 0 subtable" dx=5 dy=0 dh=10 dv=0
EndChar

StartChar: Zacute
Encoding: 377 377 112
Width: 551
GlyphClass: 2
Flags: MW
HStem: 0 33<48 479> 657 33<142 541 135 595> 657 173<417 458 417 541>
VStem: -9 604
LayerCount: 2
Fore
SplineSet
376 736 m 1xb0
 348 736 l 1
 417 830 l 1
 458 830 l 1
 376 736 l 1xb0
589 658 m 1xd0
 48 33 l 1
 486 33 l 1
 479 0 l 1
 -9 0 l 1
 -3 29 l 1
 541 657 l 1
 135 657 l 1
 142 690 l 1
 595 690 l 1
 589 658 l 1xd0
EndSplineSet
Position2: "'cpsp' Capital Spacing in Latin lookup 0 subtable" dx=5 dy=0 dh=10 dv=0
EndChar

StartChar: zacute
Encoding: 378 378 227
Width: 467
GlyphClass: 2
Flags: MW
HStem: 0 31<29 387> 490 33<92 418 87 473> 490 200<351 392 351 418> 580 110<271 392 271 392>
VStem: -23 496
LayerCount: 2
Fore
SplineSet
299 580 m 1xd8
 271 580 l 1xd8
 351 690 l 1
 392 690 l 1xa8
 299 580 l 1xd8
468 491 m 1
 29 31 l 1
 392 31 l 1
 387 0 l 1
 -23 0 l 1
 -18 30 l 1
 418 490 l 1
 87 490 l 1
 92 523 l 1
 473 523 l 1
 468 491 l 1
EndSplineSet
EndChar

StartChar: Zdotaccent
Encoding: 379 379 114
Width: 551
GlyphClass: 2
Flags: MW
HStem: 0 33<48 479> 657 33<142 541 135 595> 757 53<370 376>
VStem: 346 54<779.5 786.5>
LayerCount: 2
Fore
SplineSet
368 757 m 0
 355 757 346 766 346 778 c 0
 346 795 362 810 378 810 c 0
 391 810 400 800 400 788 c 0
 400 771 384 757 368 757 c 0
589 658 m 1
 48 33 l 1
 486 33 l 1
 479 0 l 1
 -9 0 l 1
 -3 29 l 1
 541 657 l 1
 135 657 l 1
 142 690 l 1
 595 690 l 1
 589 658 l 1
EndSplineSet
Position2: "'cpsp' Capital Spacing in Latin lookup 0 subtable" dx=5 dy=0 dh=10 dv=0
EndChar

StartChar: zdotaccent
Encoding: 380 380 229
Width: 467
GlyphClass: 2
Flags: MW
HStem: 0 31<29 387> 490 33<92 418 87 473> 608 58<293 302>
VStem: 269 58<632 642.5>
LayerCount: 2
Fore
SplineSet
293 608 m 0
 279 608 269 619 269 633 c 0
 269 652 284 666 302 666 c 0
 317 666 327 655 327 642 c 0
 327 622 311 608 293 608 c 0
468 491 m 1
 29 31 l 1
 392 31 l 1
 387 0 l 1
 -23 0 l 1
 -18 30 l 1
 418 490 l 1
 87 490 l 1
 92 523 l 1
 473 523 l 1
 468 491 l 1
EndSplineSet
EndChar

StartChar: Zcaron
Encoding: 381 381 113
Width: 551
GlyphClass: 2
Flags: MW
HStem: 0 33<48 479> 657 33<142 541 135 595> 657 173<300 335 429 465 300 541 135 335> 736 20<350 369 369 369 369 384>
VStem: -9 604
LayerCount: 2
Fore
SplineSet
350 736 m 1xd8
 300 830 l 1
 335 830 l 1xa8
 369 756 l 1xd8
 429 830 l 1
 465 830 l 1xa8
 384 736 l 1
 350 736 l 1xd8
589 658 m 1xd8
 48 33 l 1
 486 33 l 1
 479 0 l 1
 -9 0 l 1
 -3 29 l 1
 541 657 l 1
 135 657 l 1
 142 690 l 1
 595 690 l 1
 589 658 l 1xd8
EndSplineSet
Position2: "'cpsp' Capital Spacing in Latin lookup 0 subtable" dx=5 dy=0 dh=10 dv=0
EndChar

StartChar: zcaron
Encoding: 382 382 228
Width: 467
GlyphClass: 2
Flags: MW
HStem: 0 31<29 387> 490 33<92 418 87 473> 490 200<227 260 357 391 227 418 87 260> 580 25<273 293 293 293 293 305> 580 110<227 273 227 305>
VStem: -23 496
LayerCount: 2
Fore
SplineSet
273 580 m 1xcc
 227 690 l 1
 260 690 l 1xa4
 293 605 l 1xd4
 357 690 l 1
 391 690 l 1xa4
 305 580 l 1
 273 580 l 1xcc
468 491 m 1xcc
 29 31 l 1
 392 31 l 1
 387 0 l 1
 -23 0 l 1
 -18 30 l 1
 418 490 l 1
 87 490 l 1
 92 523 l 1
 473 523 l 1
 468 491 l 1xcc
EndSplineSet
EndChar

StartChar: scommaaccent
Encoding: 537 537 198
Width: 455
GlyphClass: 2
Flags: MW
HStem: -168 117<107 196 107 196> -16 33<158.5 248 158.5 252> 509 32<209 291.5>
VStem: 10 39<150 150> 75 40<361.5 421.5 361.5 430.5> 349 40<98 163.5> 387 39<382 382>
AnchorPoint: "Anchor-0" 183 0 basechar 0
LayerCount: 2
Fore
SplineSet
258 541 m 0x6a
 363 541 421 483 426 382 c 1
 387 382 l 1
 380 473 329 509 254 509 c 0
 164 509 115 451 115 392 c 0x6a
 115 331 162 302 231 283 c 0
 334 254 389 217 389 136 c 0
 389 38 305 -16 199 -16 c 0
 84 -16 11 40 10 150 c 1
 49 150 l 1
 53 53 112 17 205 17 c 0
 291 17 349 64 349 132 c 0x7c
 349 195 309 224 210 251 c 0
 141 270 75 305 75 389 c 0
 75 472 144 541 258 541 c 0x6a
196 -55 m 1xec
 133 -168 l 1
 107 -168 l 1
 159 -51 l 1
 196 -51 l 1
 196 -55 l 1xec
EndSplineSet
EndChar

StartChar: uni021A
Encoding: 538 538 89
Width: 588
GlyphClass: 2
Flags: MW
HStem: -168 117<184 273 184 273> 0 21G<245 283 245 245> 658 32<108 361 102 665 399 659 399 399>
VStem: 102 563<658 690>
AnchorPoint: "Anchor-0" 261 0 basechar 0
LayerCount: 2
Fore
SplineSet
659 658 m 1
 399 658 l 1
 283 0 l 1
 245 0 l 1
 361 658 l 1
 102 658 l 1
 108 690 l 1
 665 690 l 1
 659 658 l 1
236 -51 m 1
 273 -51 l 1
 273 -55 l 1
 210 -168 l 1
 184 -168 l 1
 236 -51 l 1
EndSplineSet
Position2: "'cpsp' Capital Spacing in Latin lookup 0 subtable" dx=5 dy=0 dh=10 dv=0
EndChar

StartChar: uni021B
Encoding: 539 539 204
Width: 258
GlyphClass: 2
Flags: MW
HStem: -168 117<28 117 28 117> -7 30.01 -7 33 493 30<62 122 56 127 165 260>
VStem: 49 39<47.5 66.5>
AnchorPoint: "Anchor-0" 105 0 basechar 0
LayerCount: 2
Fore
SplineSet
160 493 m 1x58
 97 135 l 2
 90 99 88 82 88 68 c 0xd8
 88 27 117 17 180 26 c 1x38
 175 -3 l 1
 160 -6 145 -7 125 -7 c 0
 75 -7 49 11 49 57 c 0
 49 76 51 98 59 137 c 1
 122 493 l 1
 56 493 l 1
 62 523 l 1
 127 523 l 1
 147 635 l 1
 185 635 l 1
 165 523 l 1
 265 523 l 1
 260 493 l 1
 160 493 l 1x58
80 -51 m 1
 117 -51 l 1
 117 -55 l 1
 54 -168 l 1
 28 -168 l 1
 80 -51 l 1
EndSplineSet
EndChar

StartChar: circumflex
Encoding: 710 710 330
Width: 300
Flags: MW
HStem: 580 110<59 177 59 177 145 223 145 190> 666 24<157 157>
VStem: 59 164<580 580>
LayerCount: 2
Fore
SplineSet
190 580 m 1xa0
 157 666 l 1x60
 93 580 l 1
 59 580 l 1xa0
 145 690 l 1
 177 690 l 1x60
 223 580 l 1
 190 580 l 1xa0
EndSplineSet
EndChar

StartChar: caron
Encoding: 711 711 328
Width: 300
Flags: MW
HStem: 580 25<145 145 145 157 125 145> 580 110<79 157 79 125>
VStem: 79 164<690 690>
LayerCount: 2
Fore
SplineSet
243 690 m 1x60
 157 580 l 1
 125 580 l 1
 79 690 l 1
 112 690 l 1x60
 145 605 l 1xa0
 209 690 l 1
 243 690 l 1x60
EndSplineSet
EndChar

StartChar: breve
Encoding: 728 728 327
Width: 300
Flags: MW
HStem: 569 30<123.5 165.5 123.5 170> 670 20G<67 94 94 94 227 254 254 254>
VStem: 64.26 29.74
LayerCount: 2
Fore
SplineSet
227 690 m 1
 254 690 l 1
 239 615 201 569 139 569 c 0
 74 569 56 618 67 690 c 1
 94 690 l 1
 86 626 102 599 145 599 c 0
 186 599 214 631 227 690 c 1
EndSplineSet
EndChar

StartChar: dotaccent
Encoding: 729 729 332
Width: 300
Flags: MW
HStem: 608 58<146 155>
VStem: 122 58<632 642.5>
LayerCount: 2
Fore
SplineSet
155 666 m 0
 170 666 180 655 180 642 c 0
 180 622 164 608 146 608 c 0
 132 608 122 619 122 633 c 0
 122 652 137 666 155 666 c 0
EndSplineSet
EndChar

StartChar: ring
Encoding: 730 730 337
Width: 300
Flags: MW
HStem: 570 25<132 157 132 159.5> 681 24<143.5 168>
VStem: 80 30<618.5 642.5 618.5 648.5> 191 30<633.5 657.5>
LayerCount: 2
Fore
SplineSet
162 705 m 0
 196 705 221 684 221 652 c 0
 221 603 181 570 138 570 c 0
 104 570 80 592 80 624 c 0
 80 673 119 705 162 705 c 0
157 681 m 0
 130 681 110 657 110 628 c 0
 110 609 121 595 143 595 c 0
 171 595 191 619 191 648 c 0
 191 667 179 681 157 681 c 0
EndSplineSet
EndChar

StartChar: ogonek
Encoding: 731 731 336
Width: 300
Flags: MW
HStem: -223 28<79 89> 0 21G<193 193>
VStem: 13 39<-168 -129>
LayerCount: 2
Fore
SplineSet
171 13 m 1
 193 0 l 1
 103 -40 52 -95 52 -153 c 0
 52 -183 67 -195 91 -195 c 0
 113 -195 133 -186 158 -166 c 1
 153 -195 l 1
 130 -214 104 -223 74 -223 c 0
 42 -223 13 -207 13 -161 c 0
 13 -97 65 -32 171 13 c 1
EndSplineSet
EndChar

StartChar: tilde
Encoding: 732 732 338
Width: 300
Flags: MW
HStem: 619 28<198.5 208 198.5 214> 643 28<93 102.5>
VStem: 54 24<623 623> 222 24<667 667>
LayerCount: 2
Fore
SplineSet
99 671 m 0x70
 116 671 133 667 158 658 c 0
 181 650 194 647 203 647 c 0
 213 647 220 652 222 667 c 1
 246 667 l 1
 243 634 227 619 201 619 c 0xb0
 184 619 168 623 142 632 c 0
 120 640 107 643 98 643 c 0
 88 643 81 638 78 623 c 1
 54 623 l 1
 57 656 73 671 99 671 c 0x70
EndSplineSet
EndChar

StartChar: hungarumlaut
Encoding: 733 733 334
Width: 300
Flags: MW
HStem: 580 110<70 191 70 191 175 175 175 191 150 203>
VStem: 70 226<580 690>
LayerCount: 2
Fore
SplineSet
98 580 m 1
 70 580 l 1
 150 690 l 1
 191 690 l 1
 98 580 l 1
203 580 m 1
 175 580 l 1
 255 690 l 1
 296 690 l 1
 203 580 l 1
EndSplineSet
EndChar

StartChar: uni0326
Encoding: 806 806 339
Width: 0
GlyphClass: 4
Flags: MW
HStem: -168 117<93 182 93 182>
VStem: 93 89
AnchorPoint: "Anchor-0" 170 0 mark 0
LayerCount: 2
Fore
SplineSet
182 -55 m 1
 119 -168 l 1
 93 -168 l 1
 145 -51 l 1
 182 -51 l 1
 182 -55 l 1
EndSplineSet
EndChar

StartChar: wgrave
Encoding: 7809 7809 219
Width: 728
GlyphClass: 2
Flags: MW
HStem: 0 36<153 153 153 171 122 153> 490 36<400 400> 580 110<349 403 349 430>
VStem: 51 713<527 527>
LayerCount: 2
Fore
SplineSet
403 580 m 1
 349 690 l 1
 388 690 l 1
 430 580 l 1
 403 580 l 1
764 527 m 1
 503 0 l 1
 456 0 l 1
 400 490 l 1
 171 0 l 1
 122 0 l 1
 51 527 l 1
 92 527 l 1
 153 36 l 1
 379 526 l 1
 430 526 l 1
 487 39 l 1
 721 527 l 1
 764 527 l 1
EndSplineSet
EndChar

StartChar: Wacute
Encoding: 7810 7810 101
Width: 856
GlyphClass: 2
Flags: MW
HStem: 0 44<187 187 187 204 155 187> 643 37<508 508> 670 20G<101 141 141 141 890 931 931 931> 736 94<509 619 509 619>
VStem: 101 830<690 690>
LayerCount: 2
Fore
SplineSet
537 736 m 1xb8
 509 736 l 1
 578 830 l 1
 619 830 l 1
 537 736 l 1xb8
931 690 m 1
 621 0 l 1
 573 0 l 1
 508 643 l 1xd8
 204 0 l 1
 155 0 l 1
 101 690 l 1
 141 690 l 1xb8
 187 44 l 1
 486 680 l 1
 541 680 l 1xd8
 605 45 l 1
 890 690 l 1
 931 690 l 1
EndSplineSet
Position2: "'cpsp' Capital Spacing in Latin lookup 0 subtable" dx=5 dy=0 dh=10 dv=0
EndChar

StartChar: wacute
Encoding: 7811 7811 216
Width: 728
GlyphClass: 2
Flags: MW
HStem: 0 36<153 153 153 171 122 153> 490 36<400 400> 580 110<396 517 396 517>
VStem: 51 713<527 527>
LayerCount: 2
Fore
SplineSet
424 580 m 1
 396 580 l 1
 476 690 l 1
 517 690 l 1
 424 580 l 1
764 527 m 1
 503 0 l 1
 456 0 l 1
 400 490 l 1
 171 0 l 1
 122 0 l 1
 51 527 l 1
 92 527 l 1
 153 36 l 1
 379 526 l 1
 430 526 l 1
 487 39 l 1
 721 527 l 1
 764 527 l 1
EndSplineSet
EndChar

StartChar: Wdieresis
Encoding: 7812 7812 103
Width: 856
GlyphClass: 2
Flags: MW
HStem: 0 44<187 187 187 204 155 187> 643 37<508 508> 670 20G<101 141 141 141 890 931 931 931> 757 53<487.5 493 575 581>
VStem: 101 830<690 690> 464 53<779.5 786.5> 551 54<779.5 786.5>
LayerCount: 2
Fore
SplineSet
485 757 m 0xb6
 472 757 464 766 464 778 c 0
 464 795 480 810 495 810 c 0
 509 810 517 800 517 788 c 0
 517 771 501 757 485 757 c 0xb6
573 757 m 0
 560 757 551 766 551 778 c 0
 551 795 567 810 583 810 c 0
 596 810 605 800 605 788 c 0
 605 771 589 757 573 757 c 0
931 690 m 1
 621 0 l 1
 573 0 l 1
 508 643 l 1xd8
 204 0 l 1
 155 0 l 1
 101 690 l 1
 141 690 l 1xb8
 187 44 l 1
 486 680 l 1
 541 680 l 1xd2
 605 45 l 1
 890 690 l 1
 931 690 l 1
EndSplineSet
Position2: "'cpsp' Capital Spacing in Latin lookup 0 subtable" dx=5 dy=0 dh=10 dv=0
EndChar

StartChar: wdieresis
Encoding: 7813 7813 218
Width: 728
GlyphClass: 2
Flags: MW
HStem: 0 36<153 153 153 171 122 153> 490 36<400 400> 606 53<371 377 467.5 473>
VStem: 347 54<628.5 635.5> 444 53<628.5 635.5>
LayerCount: 2
Fore
SplineSet
369 606 m 0
 356 606 347 615 347 627 c 0
 347 644 363 659 379 659 c 0
 392 659 401 649 401 637 c 0
 401 620 385 606 369 606 c 0
465 606 m 0
 452 606 444 615 444 627 c 0
 444 644 460 659 475 659 c 0
 489 659 497 649 497 637 c 0
 497 620 481 606 465 606 c 0
764 527 m 1
 503 0 l 1
 456 0 l 1
 400 490 l 1
 171 0 l 1
 122 0 l 1
 51 527 l 1
 92 527 l 1
 153 36 l 1
 379 526 l 1
 430 526 l 1
 487 39 l 1
 721 527 l 1
 764 527 l 1
EndSplineSet
EndChar

StartChar: ygrave
Encoding: 7923 7923 225
Width: 478
GlyphClass: 2
Flags: MW
HStem: -210 33<-9.5 20.5 -9.5 28> 507 20G<51 93 93 93 469 513 513 513> 580 110<222 276 222 303>
VStem: -41 554
LayerCount: 2
Fore
SplineSet
276 580 m 1
 222 690 l 1
 261 690 l 1
 303 580 l 1
 276 580 l 1
513 527 m 1
 213 0 l 2
 112 -179 63 -210 -7 -210 c 0
 -18 -210 -30 -209 -41 -206 c 1
 -35 -174 l 1
 -23 -177 -14 -177 -5 -177 c 0
 46 -177 87 -146 152 -34 c 1
 165 -11 l 1
 51 527 l 1
 93 527 l 1
 193 31 l 1
 469 527 l 1
 513 527 l 1
EndSplineSet
EndChar

StartChar: endash
Encoding: 8211 8211 270
Width: 500
Flags: MW
HStem: 276 30<73 427 67 433>
VStem: 67 366<276 306>
LayerCount: 2
Fore
SplineSet
427 276 m 1
 67 276 l 1
 73 306 l 1
 433 306 l 1
 427 276 l 1
EndSplineSet
EndChar

StartChar: emdash
Encoding: 8212 8212 269
Width: 1000
Flags: MW
HStem: 276 30<73 927 67 933>
VStem: 67 866<276 306>
LayerCount: 2
Fore
SplineSet
927 276 m 1
 67 276 l 1
 73 306 l 1
 933 306 l 1
 927 276 l 1
EndSplineSet
EndChar

StartChar: quoteleft
Encoding: 8216 8216 279
Width: 190
Flags: MW
HStem: 486 238<100 237 100 237>
VStem: 100 137
LayerCount: 2
Fore
SplineSet
100 493 m 1
 202 724 l 1
 237 724 l 1
 140 486 l 1
 100 486 l 1
 100 493 l 1
EndSplineSet
EndChar

StartChar: quoteright
Encoding: 8217 8217 280
Width: 190
Flags: MW
HStem: 486 238<59 196 59 196>
VStem: 59 137
LayerCount: 2
Fore
SplineSet
196 717 m 1
 94 486 l 1
 59 486 l 1
 156 724 l 1
 196 724 l 1
 196 717 l 1
EndSplineSet
EndChar

StartChar: quotedblleft
Encoding: 8220 8220 277
Width: 300
Flags: MW
HStem: 486 238<100 237 100 237 210 210 210 237 202 251>
VStem: 100 247<486 724>
LayerCount: 2
Fore
SplineSet
101 493 m 1
 202 724 l 1
 237 724 l 1
 141 486 l 1
 100 486 l 1
 101 493 l 1
211 493 m 1
 312 724 l 1
 347 724 l 1
 251 486 l 1
 210 486 l 1
 211 493 l 1
EndSplineSet
EndChar

StartChar: quotedblright
Encoding: 8221 8221 278
Width: 300
Flags: MW
HStem: 486 238<59 196 59 196 169 169 169 196 156 204>
VStem: 59 247<486 717>
LayerCount: 2
Fore
SplineSet
196 717 m 1
 94 486 l 1
 59 486 l 1
 156 724 l 1
 196 724 l 1
 196 717 l 1
306 717 m 1
 204 486 l 1
 169 486 l 1
 266 724 l 1
 306 724 l 1
 306 717 l 1
EndSplineSet
EndChar

StartChar: quotedblbase
Encoding: 8222 8222 276
Width: 264
Flags: MW
HStem: -117 160<-93 32 -93 32 17 17 17 32 -11 53>
VStem: -93 235<-117 43>
LayerCount: 2
Fore
SplineSet
31 36 m 1
 -57 -117 l 1
 -93 -117 l 1
 -11 43 l 1
 32 43 l 1
 31 36 l 1
141 36 m 1
 53 -117 l 1
 17 -117 l 1
 100 43 l 1
 142 43 l 1
 141 36 l 1
EndSplineSet
EndChar

StartChar: dagger
Encoding: 8224 8224 319
Width: 590
Flags: MW
HStem: 397.5 34 670 20G<328 373 373 373>
VStem: 94 414<396 433>
LayerCount: 2
Fore
SplineSet
502 396 m 1
 317 399 l 1
 223 -160 l 1
 179 -160 l 1
 280 399 l 1
 94 396 l 1
 100 433 l 1
 285 430 l 1
 328 690 l 1
 373 690 l 1
 323 430 l 1
 508 433 l 1
 502 396 l 1
EndSplineSet
EndChar

StartChar: daggerdbl
Encoding: 8225 8225 320
Width: 583
Flags: MW
HStem: 97.5 34 397.5 34 670 20G<328 373 373 373>
VStem: 41 467<96 433>
LayerCount: 2
Fore
SplineSet
318 399 m 1
 270 130 l 1
 456 133 l 1
 449 96 l 1
 265 99 l 1
 223 -160 l 1
 179 -160 l 1
 227 99 l 1
 41 96 l 1
 48 133 l 1
 232 130 l 1
 280 399 l 1
 94 396 l 1
 100 433 l 1
 285 430 l 1
 328 690 l 1
 373 690 l 1
 323 430 l 1
 508 433 l 1
 502 396 l 1
 318 399 l 1
EndSplineSet
EndChar

StartChar: bullet
Encoding: 8226 8226 246
Width: 222
Flags: MW
HStem: 245 120<102 119>
VStem: 50 122<297 313.5>
LayerCount: 2
Fore
SplineSet
121 365 m 0
 152 365 172 345 172 317 c 0
 172 277 138 245 100 245 c 0
 70 245 50 266 50 294 c 0
 50 333 83 365 121 365 c 0
EndSplineSet
EndChar

StartChar: ellipsis
Encoding: 8230 8230 249
Width: 404
Flags: MW
HStem: -14 62<8.5 19 134 144 259 269>
VStem: -17 62<11.5 23> 108 62<11.5 23> 233 62<11.5 23>
LayerCount: 2
Fore
SplineSet
18 48 m 0
 35 48 45 36 45 22 c 0
 45 1 28 -14 10 -14 c 0
 -7 -14 -17 -2 -17 12 c 0
 -17 34 -1 48 18 48 c 0
143 48 m 0
 160 48 170 36 170 22 c 0
 170 1 153 -14 135 -14 c 0
 118 -14 108 -2 108 12 c 0
 108 34 125 48 143 48 c 0
268 48 m 0
 285 48 295 36 295 22 c 0
 295 1 278 -14 260 -14 c 0
 243 -14 233 -2 233 12 c 0
 233 34 250 48 268 48 c 0
EndSplineSet
EndChar

StartChar: perthousand
Encoding: 8240 8240 306
Width: 1019
Flags: MW
HStem: -14 31<449 514 449 524 758.5 823.5> 0 21G<62 106 62 62> 273 31<471.5 536.5 781 846> 386 31<200.5 265.5 200.5 275.5> 670 20G<629 673 673 673> 673 31<223.5 288.5>
VStem: 108 39<484 550.5 484 557> 343 38<540 606> 356 39<84 150.5 84 157> 591 38<140 206> 666 38<84 150.5 84 157> 900 39<140 206>
LayerCount: 2
Fore
SplineSet
222 386 m 0xb770
 151 386 108 440 108 515 c 0
 108 599 160 704 267 704 c 0
 338 704 381 650 381 575 c 0
 381 491 329 386 222 386 c 0xb770
673 690 m 1x4820
 106 0 l 1
 62 0 l 1
 629 690 l 1
 673 690 l 1x4820
263 673 m 0x3740
 184 673 147 587 147 514 c 0
 147 454 175 417 226 417 c 0
 305 417 343 504 343 576 c 0
 343 636 314 673 263 673 c 0x3740
515 304 m 0
 586 304 629 250 629 175 c 0
 629 91 577 -14 471 -14 c 0
 400 -14 356 40 356 115 c 0xa0c0
 356 199 408 304 515 304 c 0
824 304 m 0xa0f0
 895 304 939 250 939 175 c 0
 939 91 887 -14 780 -14 c 0
 709 -14 666 40 666 115 c 0
 666 199 718 304 824 304 c 0xa0f0
475 17 m 0
 553 17 591 104 591 176 c 0
 591 236 562 273 511 273 c 0
 432 273 395 187 395 114 c 0
 395 54 423 17 475 17 c 0
784 17 m 0
 863 17 900 104 900 176 c 0
 900 236 872 273 820 273 c 0
 742 273 704 187 704 114 c 0
 704 54 733 17 784 17 c 0
EndSplineSet
EndChar

StartChar: guilsinglleft
Encoding: 8249 8249 274
Width: 346
Flags: MW
HStem: 82 332<209 311 209 311>
VStem: 101 210<248 414>
LayerCount: 2
Fore
SplineSet
141 244 m 1
 247 82 l 1
 209 82 l 1
 101 248 l 1
 267 414 l 1
 311 414 l 1
 141 244 l 1
EndSplineSet
EndChar

StartChar: guilsinglright
Encoding: 8250 8250 275
Width: 346
Flags: MW
HStem: 82 332<29 131 29 131>
VStem: 29 210<82 248>
LayerCount: 2
Fore
SplineSet
239 248 m 1
 73 82 l 1
 29 82 l 1
 199 252 l 1
 93 414 l 1
 131 414 l 1
 239 248 l 1
EndSplineSet
EndChar

StartChar: fraction
Encoding: 8260 8260 243
Width: 304
Flags: MW
HStem: 0 21G<-140 -95 -140 -140> 670 20G<428 472 472 472>
VStem: -140 612
LayerCount: 2
Fore
SplineSet
-95 0 m 1
 -140 0 l 1
 428 690 l 1
 472 690 l 1
 -95 0 l 1
EndSplineSet
EndChar

StartChar: Euro
Encoding: 8364 8364 286
Width: 543
Flags: MW
HStem: -14 33<258.5 333.5> 275 30<20 90 5 92 133 420> 385 30<63 103 48 110 151 461> 671 33<326.5 425.5>
VStem: 89 41<160.5 239 160.5 243> 92 41<305 305>
LayerCount: 2
Fore
SplineSet
401 704 m 0xf8
 475 704 519 685 555 643 c 1
 530 619 l 1
 496 657 456 671 395 671 c 0
 258 671 183 550 151 415 c 1
 477 415 l 1
 461 385 l 1
 144 385 l 1
 139 358 135 331 133 305 c 1xf4
 434 305 l 1
 420 275 l 1
 131 275 l 1
 130 239 l 1
 130 82 198 19 319 19 c 0
 371 19 419 33 468 60 c 1
 462 23 l 1
 408 -5 358 -14 309 -14 c 0
 175 -14 89 56 89 237 c 0
 89 249 89 262 90 275 c 1
 5 275 l 1
 20 305 l 1xf8
 92 305 l 1
 94 331 98 358 103 385 c 1
 48 385 l 1
 63 415 l 1
 110 415 l 1xf4
 145 564 232 704 401 704 c 0xf8
EndSplineSet
EndChar

StartChar: trademark
Encoding: 8482 8482 325
Width: 523
Flags: MW
HStem: 459 23<334 334 334 344 313 334> 636 24<41 119 37 233 148 229 148 148>
VStem: 37 432<636 659>
LayerCount: 2
Fore
SplineSet
148 636 m 1
 116 456 l 1
 87 456 l 1
 119 636 l 1
 37 636 l 1
 41 660 l 1
 233 660 l 1
 229 636 l 1
 148 636 l 1
469 659 m 1
 433 456 l 1
 406 456 l 1
 439 630 l 1
 344 459 l 1
 313 459 l 1
 280 629 l 1
 251 456 l 1
 223 456 l 1
 259 659 l 1
 301 659 l 1
 334 482 l 1
 429 659 l 1
 469 659 l 1
EndSplineSet
EndChar

StartChar: partialdiff
Encoding: 8706 8706 304
Width: 543
Flags: MW
HStem: -14 32<186.5 284 186.5 321> 434 32<223.5 332.5> 726 32<298 374>
VStem: 51 40<118.5 225 118.5 231.5> 467 41<480 572>
LayerCount: 2
Fore
SplineSet
330 758 m 0
 456 758 508 659 508 502 c 0
 508 240 421 -14 221 -14 c 0
 117 -14 51 57 51 166 c 0
 51 297 122 466 303 466 c 0
 382 466 438 427 458 373 c 1
 465 422 467 459 467 501 c 0
 467 643 428 726 320 726 c 0
 263 726 221 711 171 675 c 1
 156 700 l 1
 214 742 266 758 330 758 c 0
226 18 m 0
 342 18 421 148 452 324 c 1
 436 404 367 434 298 434 c 0
 149 434 91 284 91 166 c 0
 91 71 147 18 226 18 c 0
EndSplineSet
EndChar

StartChar: product
Encoding: 8719 8719 309
Width: 543
Flags: MW
HStem: 657 33<112 163 105 574 201 473 201 201 511 568 511 511>
VStem: 27 547
LayerCount: 2
Fore
SplineSet
568 657 m 1
 511 657 l 1
 375 -110 l 1
 337 -110 l 1
 473 657 l 1
 201 657 l 1
 65 -110 l 1
 27 -110 l 1
 163 657 l 1
 105 657 l 1
 112 690 l 1
 574 690 l 1
 568 657 l 1
EndSplineSet
EndChar

StartChar: summation
Encoding: 8721 8721 311
Width: 543
Flags: MW
HStem: -110 33<9 432> 657 33<169 562 169 169>
VStem: -42 610
LayerCount: 2
Fore
SplineSet
562 657 m 1
 169 657 l 1
 361 300 l 1
 9 -77 l 1
 439 -77 l 1
 432 -110 l 1
 -42 -110 l 1
 -36 -78 l 1
 316 301 l 1
 124 658 l 1
 130 690 l 1
 568 690 l 1
 562 657 l 1
EndSplineSet
EndChar

StartChar: minus
Encoding: 8722 8722 301
Width: 543
Flags: MW
HStem: 303 30<76 475 70 481>
VStem: 70 411<303 333>
LayerCount: 2
Fore
SplineSet
475 303 m 1
 70 303 l 1
 76 333 l 1
 481 333 l 1
 475 303 l 1
EndSplineSet
EndChar

StartChar: radical
Encoding: 8730 8730 310
Width: 543
Flags: MW
HStem: -160 32<192 192 192 209 165 192> 280 30<51 112 46 141>
VStem: 46 546<280 780>
LayerCount: 2
Fore
SplineSet
592 780 m 1
 209 -160 l 1
 165 -160 l 1
 112 280 l 1
 46 280 l 1
 51 310 l 1
 141 310 l 1
 192 -128 l 1
 559 780 l 1
 592 780 l 1
EndSplineSet
EndChar

StartChar: infinity
Encoding: 8734 8734 296
Width: 995
Flags: MW
HStem: -14 32<182 270 182 277 641.5 766.5> 512 32<229 354 725.5 814>
VStem: 26 41<149 276.5 149 278.5> 475 45<265 265> 928 41<252.5 380>
LayerCount: 2
Fore
SplineSet
775 544 m 0
 899 544 969 449 969 319 c 0
 969 182 882 -14 682 -14 c 0
 570 -14 501 54 486 191 c 1
 424 54 334 -14 220 -14 c 0
 96 -14 26 80 26 210 c 0
 26 347 113 544 313 544 c 0
 424 544 494 477 510 340 c 1
 569 474 661 544 775 544 c 0
475 265 m 1
 481 449 401 512 307 512 c 0
 151 512 67 341 67 212 c 0
 67 86 138 18 226 18 c 0
 314 18 428 88 475 265 c 1
688 18 m 0
 845 18 928 188 928 317 c 0
 928 443 858 512 770 512 c 0
 681 512 567 442 520 265 c 1
 514 81 595 18 688 18 c 0
EndSplineSet
EndChar

StartChar: integral
Encoding: 8747 8747 297
Width: 543
Flags: MW
HStem: -160 30<166 204 166 210> 724 30<346 383>
VStem: 245 33<499.5 595.5 499.5 608.5> 272 33<-1.5 92.5>
LayerCount: 2
Fore
SplineSet
379 754 m 0xe0
 403 754 422 746 437 728 c 1
 419 704 l 1
 405 720 392 724 374 724 c 0
 318 724 278 659 278 532 c 0xe0
 278 467 281 416 291 301 c 1
 301 198 305 129 305 69 c 0
 305 -98 250 -160 170 -160 c 0
 145 -160 128 -152 112 -134 c 1
 130 -110 l 1
 145 -126 157 -130 175 -130 c 0
 233 -130 272 -70 272 67 c 0xd0
 272 118 269 163 258 293 c 0
 248 411 245 461 245 531 c 0
 245 686 300 754 379 754 c 0xe0
EndSplineSet
EndChar

StartChar: approxequal
Encoding: 8776 8776 289
Width: 538
Flags: MW
HStem: 163 31<339.5 373> 234 31<134 168> 338 31<370.5 404> 409 31<165 199>
VStem: 31 477<194 410>
LayerCount: 2
Fore
SplineSet
190 440 m 0
 227 440 249 429 294 402 c 1
 336 378 355 369 386 369 c 0
 429 369 454 385 489 428 c 1
 508 410 l 1
 471 361 429 338 379 338 c 0
 343 338 321 349 275 376 c 0
 234 400 215 409 183 409 c 0
 141 409 115 393 80 351 c 1
 61 369 l 1
 99 418 140 440 190 440 c 0
159 265 m 0
 196 265 218 254 264 227 c 0
 305 203 324 194 355 194 c 0
 398 194 423 210 458 253 c 1
 478 235 l 1
 439 186 398 163 348 163 c 0
 312 163 290 174 244 201 c 0
 203 225 184 234 152 234 c 0
 110 234 84 218 50 176 c 1
 31 194 l 1
 68 243 109 265 159 265 c 0
EndSplineSet
EndChar

StartChar: notequal
Encoding: 8800 8800 303
Width: 543
Flags: MW
HStem: 210 29<52 166 46 188 223 466 52 201> 395 29<85 307 79 329 364 499 85 342> 395 137<79 446 411 446 411 499 342 446>
VStem: 46 459<210 424>
LayerCount: 2
Fore
SplineSet
342 395 m 1xd0
 223 239 l 1
 472 239 l 1
 466 210 l 1
 201 210 l 1
 119 102 l 1
 84 102 l 1
 166 210 l 1
 46 210 l 1
 52 239 l 1
 188 239 l 1
 307 395 l 1
 79 395 l 1
 85 424 l 1
 329 424 l 1xd0
 411 532 l 1
 446 532 l 1xb0
 364 424 l 1
 505 424 l 1
 499 395 l 1
 342 395 l 1xd0
EndSplineSet
EndChar

StartChar: lessequal
Encoding: 8804 8804 299
Width: 543
Flags: MW
HStem: 0 30<21 420 15 426>
VStem: 15 489<0 473>
LayerCount: 2
Fore
SplineSet
498 438 m 1
 102 282 l 1
 444 128 l 1
 437 93 l 1
 63 267 l 1
 69 299 l 1
 504 473 l 1
 498 438 l 1
21 30 m 1
 426 30 l 1
 420 0 l 1
 15 0 l 1
 21 30 l 1
EndSplineSet
EndChar

StartChar: greaterequal
Encoding: 8805 8805 295
Width: 543
Flags: MW
HStem: 0 30<21 420 15 426>
VStem: 15 459<0 299>
LayerCount: 2
Fore
SplineSet
474 299 m 1
 468 267 l 1
 32 93 l 1
 39 129 l 1
 435 285 l 1
 93 439 l 1
 99 473 l 1
 474 299 l 1
21 30 m 1
 426 30 l 1
 420 0 l 1
 15 0 l 1
 21 30 l 1
EndSplineSet
EndChar

StartChar: lozenge
Encoding: 9674 9674 312
Width: 509
Flags: MW
HStem: 0 33<199 199 199 210 177 199> 657 33<310 310>
VStem: 71 367<345 345>
LayerCount: 2
Fore
SplineSet
438 345 m 1
 210 0 l 1
 177 0 l 1
 71 345 l 1
 299 690 l 1
 332 690 l 1
 438 345 l 1
404 345 m 1
 310 657 l 1
 106 345 l 1
 199 33 l 1
 404 345 l 1
EndSplineSet
EndChar

StartChar: fi
Encoding: 64257 64257 231
Width: 422
GlyphClass: 3
Flags: MW
HStem: 0 21G<31 69 31 31 266 304 266 266> 491 32<76 117 70 123 160 352> 720.03 28.97 720.03 33.97
VStem: 126 37.5
LayerCount: 2
Fore
SplineSet
396 523 m 1xe8
 304 0 l 1
 266 0 l 1
 352 491 l 1
 155 491 l 1
 69 0 l 1
 31 0 l 1
 117 491 l 1
 70 491 l 1
 76 523 l 1
 123 523 l 1
 129 560 l 2
 132 576 135 595 141 615 c 0
 165 700 237 754 348 754 c 0xd8
 368 754 380 753 398 749 c 1
 392 716 l 1
 263 736 197 679 178 613 c 0
 173 593 170 577 167 562 c 2
 160 523 l 1
 396 523 l 1xe8
EndSplineSet
Ligature2: "'liga' Standard Ligatures in Latin lookup 4 subtable" f i
EndChar

StartChar: fl
Encoding: 64258 64258 232
Width: 436
GlyphClass: 3
Flags: MW
HStem: -5 33 0 21G<30 68 30 30> 491 32<76 117 70 122 161 262> 715 20G<432 432> 722 32<278 332>
VStem: 125.5 39 275 40<43 47>
LayerCount: 2
Fore
SplineSet
315 55 m 0xae
 315 31 329 23 367 28 c 1
 362 -2 l 1
 349 -5 337 -5 325 -5 c 0
 295 -5 275 5 275 41 c 0xae
 275 53 277 67 288 127 c 2
 390 711 l 1
 374 719 344 722 320 722 c 0
 236 722 194 670 179 613 c 0
 173 593 170 577 168 562 c 2
 161 523 l 1
 268 523 l 1
 262 491 l 1
 155 491 l 1
 68 0 l 1
 30 0 l 1
 117 491 l 1
 70 491 l 1
 76 523 l 1
 122 523 l 1
 129 560 l 2
 132 576 135 595 141 615 c 0
 164 697 225 754 326 754 c 0x6e
 364 754 412 747 432 735 c 1xb6
 326 128 l 2
 316 76 315 65 315 55 c 0xae
EndSplineSet
Ligature2: "'liga' Standard Ligatures in Latin lookup 4 subtable" f l
EndChar

StartChar: .notdef
Encoding: 65536 -1 0
Width: 572
Flags: MW
HStem: 0 50<152 492 152 572> 650 50<152 492 152 152>
LayerCount: 2
Fore
SplineSet
72 0 m 1
 72 700 l 1
 572 700 l 1
 572 0 l 1
 72 0 l 1
322 395 m 1
 492 650 l 1
 152 650 l 1
 322 395 l 1
352 350 m 1
 522 95 l 1
 522 605 l 1
 352 350 l 1
152 50 m 1
 492 50 l 1
 322 305 l 1
 152 50 l 1
122 605 m 1
 122 95 l 1
 292 350 l 1
 122 605 l 1
EndSplineSet
EndChar

StartChar: a.alt
Encoding: 65537 -1 230
Width: 562
GlyphClass: 2
Flags: MW
HStem: -14 32<172.5 250> 0 21G<407 445 407 407> 507 20G<499 537 537 537> 509 32<234.5 351.5 222.5 375.5>
VStem: 25 41<149 278.5 149 283.5> 463.73 16.27
LayerCount: 2
Fore
SplineSet
537 527 m 1xac
 445 0 l 1
 407 0 l 1x5c
 426 111 l 1
 385 52 l 1
 334 4 286 -14 214 -14 c 0
 94 -14 25 77 25 200 c 0
 25 367 128 541 317 541 c 0
 386 541 430 520 461 472 c 1x9c
 480 416 l 1
 499 527 l 1
 537 527 l 1xac
450 244 m 2
 459 295 l 2
 479 413 439 509 312 509 c 0
 157 509 66 355 66 202 c 0
 66 96 121 18 224 18 c 0x9c
 324 18 420 77 450 244 c 2
EndSplineSet
EndChar

StartChar: braceleft.001
Encoding: 65538 -1 268
Width: 291
Flags: MW
HStem: -80 30<159 214 197 208> 750 30<286.5 360 345 355>
VStem: 78 33<-13 23 -13 23> 143 32<254.5 284.5>
LayerCount: 2
Fore
SplineSet
360 780 m 1
 355 750 l 1
 338 750 l 2
 235 750 222 690 219 575 c 0
 216 466 208 368 110 350 c 1
 157 341 175 308 175 270 c 0
 175 239 169 207 141 128 c 0
 116 57 111 37 111 9 c 0
 111 -35 143 -50 197 -50 c 2
 214 -50 l 1
 208 -80 l 1
 193 -80 l 2
 125 -80 78 -55 78 8 c 0
 78 38 86 64 113 138 c 0
 137 206 143 240 143 267 c 0
 143 302 125 330 76 335 c 1
 81 365 l 1
 175 375 186 453 187 565 c 1
 190 705 212 780 345 780 c 2
 360 780 l 1
EndSplineSet
EndChar
